<svg id="圖層_1" data-name="圖層 1" xmlns="http://www.w3.org/2000/svg" viewBox="0 0 1397.3 384.44"><defs><style>.cls-1,.cls-6{fill:#fff;}.cls-1{stroke:#8f8f8f;stroke-miterlimit:10;stroke-width:0.5px;}.cls-2{fill:#ce1d1c;}.cls-3{fill:#e1913d;}.cls-4{fill:#7aae47;}.cls-5{fill:#29b7ec;}.cls-6{font-size:24px;}.cls-6,.cls-7{font-family:MicrosoftJhengHeiBold, Microsoft JhengHei;}.cls-7{font-size:18px;fill:#8f8f8f;}.cls-8{letter-spacing:-0.01em;}.cls-9{letter-spacing:-0.01em;}.cls-10{letter-spacing:-0.04em;}.cls-11{letter-spacing:0em;}.cls-12{letter-spacing:-0.01em;}.cls-13{letter-spacing:-0.11em;}.cls-14{fill:#bdbdbd;}.cls-15{letter-spacing:-0.03em;}.cls-16{letter-spacing:-0.01em;}.cls-17{letter-spacing:-0.02em;}.cls-18{letter-spacing:-0.07em;}</style></defs><title>LineTrack color</title><rect class="cls-1" x="0.25" y="0.25" width="260.94" height="383.94" rx="11.09"/><rect class="cls-1" x="284.29" y="0.25" width="260.94" height="383.94" rx="11.09"/><rect class="cls-1" x="568.34" y="0.25" width="260.94" height="383.94" rx="11.09"/><rect class="cls-1" x="852.38" y="0.25" width="260.94" height="383.94" rx="11.09"/><path class="cls-2" d="M11.34.25H250.1a11.09,11.09,0,0,1,11.09,11.09V174.89a0,0,0,0,1,0,0H.25a0,0,0,0,1,0,0V11.34A11.09,11.09,0,0,1,11.34.25Z"/><path class="cls-3" d="M295.38.25H534.14a11.09,11.09,0,0,1,11.09,11.09V174.89a0,0,0,0,1,0,0H284.29a0,0,0,0,1,0,0V11.34A11.09,11.09,0,0,1,295.38.25Z"/><path class="cls-4" d="M579.43.25H818.18a11.09,11.09,0,0,1,11.09,11.09V174.89a0,0,0,0,1,0,0H568.34a0,0,0,0,1,0,0V11.34A11.09,11.09,0,0,1,579.43.25Z"/><path class="cls-5" d="M863.47.25h238.76a11.09,11.09,0,0,1,11.09,11.09V174.89a0,0,0,0,1,0,0H852.38a0,0,0,0,1,0,0V11.34A11.09,11.09,0,0,1,863.47.25Z"/><text class="cls-6" transform="translate(21.7 43.35)">Danger 500</text><text class="cls-7" transform="translate(21.7 208.8)">故障、不明原因停擺、過期<tspan x="0" y="36">等需要緊急處理的狀況。</tspan><tspan x="0" y="72">Eme</tspan><tspan class="cls-8" x="37.42" y="72">r</tspan><tspan x="44.27" y="72">gency : b</tspan><tspan class="cls-8" x="121.58" y="72">r</tspan><tspan x="128.43" y="72">ea</tspan><tspan class="cls-8" x="148.81" y="72">k</tspan><tspan x="158.63" y="72">downs, </tspan><tspan x="0" y="108">unknown s</tspan><tspan class="cls-9" x="94.27" y="108">t</tspan><tspan x="101.06" y="108">op</tspan><tspan class="cls-8" x="124.27" y="108">p</tspan><tspan x="135.66" y="108">ages, </tspan><tspan x="0" y="144">expi</tspan><tspan class="cls-8" x="36.45" y="144">r</tspan><tspan x="43.29" y="144">ed i</tspan><tspan class="cls-9" x="74.69" y="144">t</tspan><tspan x="81.47" y="144">ems</tspan></text><text class="cls-6" transform="translate(305.74 43.35)"><tspan class="cls-10">W</tspan><tspan x="23.89" y="0">a</tspan><tspan class="cls-11" x="37.35" y="0">r</tspan><tspan x="46.77" y="0">ning 400</tspan></text><text class="cls-7" transform="translate(305.74 208.8)">異常、即將過期、注意等低<tspan x="0" y="36">於危險的狀況。</tspan><tspan class="cls-10" x="0" y="72">W</tspan><tspan x="17.92" y="72">a</tspan><tspan class="cls-11" x="28.01" y="72">r</tspan><tspan x="35.08" y="72">ning : abno</tspan><tspan class="cls-11" x="132.36" y="72">r</tspan><tspan x="139.43" y="72">mal, </tspan><tspan x="0" y="108">near expiration, caution.</tspan></text><text class="cls-6" transform="translate(589.78 43.35)">Sucess 400</text><text class="cls-7" transform="translate(589.78 208.8)">正常、通過、穩定並持續進<tspan x="0" y="36">行的狀態。</tspan><tspan x="0" y="72">No</tspan><tspan class="cls-11" x="26.39" y="72">r</tspan><tspan x="33.46" y="72">mal : stable, app</tspan><tspan class="cls-8" x="174.08" y="72">r</tspan><tspan x="180.92" y="72">o</tspan><tspan class="cls-12" x="192.49" y="72">v</tspan><tspan x="202.11" y="72">ed, </tspan><tspan x="0" y="108">ongoing.</tspan></text><text class="cls-6" transform="translate(873.83 43.35)"><tspan class="cls-13">T</tspan><tspan x="11.47" y="0">est 300</tspan></text><text class="cls-7" transform="translate(873.83 208.8)">測試<tspan class="cls-13" x="0" y="36">T</tspan><tspan x="8.6" y="36">est</tspan></text><rect class="cls-1" x="1136.12" y="0.25" width="260.94" height="383.94" rx="11.09"/><path class="cls-14" d="M1147.21.25H1386a11.09,11.09,0,0,1,11.09,11.09V174.89a0,0,0,0,1,0,0H1136.12a0,0,0,0,1,0,0V11.34A11.09,11.09,0,0,1,1147.21.25Z"/><text class="cls-6" transform="translate(1157.56 43.35)">Neutral 300</text><text class="cls-7" transform="translate(1157.56 208.8)">關機、無訊號、無運作等停<tspan x="0" y="36">滯狀況。</tspan><tspan class="cls-15" x="0" y="72">S</tspan><tspan class="cls-9" x="9.9" y="72">t</tspan><tspan x="16.68" y="72">opped : po</tspan><tspan class="cls-16" x="110.27" y="72">w</tspan><tspan x="124.73" y="72">e</tspan><tspan class="cls-8" x="135.02" y="72">r</tspan><tspan x="141.86" y="72">ed </tspan><tspan class="cls-17" x="168.3" y="72">o</tspan><tspan x="179.52" y="72">f</tspan><tspan class="cls-18" x="186.08" y="72">f</tspan><tspan x="191.43" y="72">, </tspan><tspan x="0" y="108">no signal, idle</tspan></text></svg>