<?xml version="1.0" encoding="UTF-8"?>
<svg id="_圖層_1" data-name="圖層 1" xmlns="http://www.w3.org/2000/svg" viewBox="0 0 1281.79 187.94">
  <defs>
    <style>
      .cls-1 {
        letter-spacing: 0em;
      }

      .cls-2 {
        fill: #ea943b;
      }

      .cls-3 {
        fill: #7db646;
      }

      .cls-4 {
        letter-spacing: -.04em;
      }

      .cls-5 {
        fill: #bdbdbd;
      }

      .cls-6 {
        fill: #8f8f8f;
        font-family: MicrosoftJhengHeiBold, 'Microsoft JhengHei';
        font-size: 16px;
      }

      .cls-7 {
        letter-spacing: 0em;
      }

      .cls-8 {
        fill: #74c5b4;
      }

      .cls-9 {
        fill: #132241;
      }

      .cls-10 {
        letter-spacing: -.01em;
      }

      .cls-11 {
        fill: #db1516;
      }

      .cls-12 {
        fill: #4e94a9;
      }

      .cls-13 {
        fill: #1a6891;
      }

      .cls-14 {
        letter-spacing: -.02em;
      }
    </style>
  </defs>
  <g>
    <text class="cls-6" transform="translate(195.16 160.08)"><tspan x="0" y="0">#4e94a9</tspan></text>
    <text class="cls-6" transform="translate(195.83 183.76)"><tspan x="0" y="0">P</tspan><tspan class="cls-10" x="10.01" y="0">r</tspan><tspan x="16.09" y="0">essing</tspan></text>
    <rect class="cls-12" x="165" width="126.78" height="126.78"/>
  </g>
  <g>
    <text class="cls-6" transform="translate(29.97 160.08)"><tspan x="0" y="0">#1a6891</tspan></text>
    <text class="cls-6" transform="translate(43.76 183.76)"><tspan x="0" y="0">Main</tspan></text>
    <rect class="cls-13" width="126.78" height="126.78"/>
  </g>
  <text class="cls-6" transform="translate(853.87 160.08)"><tspan x="0" y="0">#db1516</tspan></text>
  <text class="cls-6" transform="translate(845.57 183.76)"><tspan x="0" y="0">Eme</tspan><tspan class="cls-10" x="33.27" y="0">r</tspan><tspan x="39.35" y="0">gency</tspan></text>
  <rect class="cls-11" x="825.01" width="126.78" height="126.78"/>
  <text class="cls-6" transform="translate(523.87 160.08)"><tspan x="0" y="0">#7db646</tspan></text>
  <text class="cls-6" transform="translate(529.23 183.76)"><tspan x="0" y="0">No</tspan><tspan class="cls-7" x="23.46" y="0">r</tspan><tspan x="29.74" y="0">mal</tspan></text>
  <rect class="cls-3" x="495" width="126.78" height="126.78"/>
  <text class="cls-6" transform="translate(1017.23 160.08)"><tspan x="0" y="0">#bdbdbd</tspan></text>
  <text class="cls-6" transform="translate(1016.82 183.76)"><tspan x="0" y="0">No signal</tspan></text>
  <rect class="cls-5" x="990.01" width="126.78" height="126.78"/>
  <text class="cls-6" transform="translate(1184.7 160.08)"><tspan x="0" y="0">#132241</tspan></text>
  <text class="cls-6" transform="translate(1171.85 183.76)"><tspan x="0" y="0">Bac</tspan><tspan class="cls-14" x="27.38" y="0">k</tspan><tspan x="35.99" y="0">g</tspan><tspan class="cls-10" x="46.34" y="0">r</tspan><tspan x="52.43" y="0">ound</tspan></text>
  <rect class="cls-9" x="1155.01" width="126.78" height="126.78"/>
  <text class="cls-6" transform="translate(689.75 160.08)"><tspan x="0" y="0">#ea943b</tspan></text>
  <text class="cls-6" transform="translate(690.41 183.76)"><tspan class="cls-4" x="0" y="0">W</tspan><tspan x="15.93" y="0">a</tspan><tspan class="cls-7" x="24.9" y="0">r</tspan><tspan x="31.18" y="0">ning</tspan></text>
  <rect class="cls-2" x="660" width="126.78" height="126.78"/>
  <g>
    <text class="cls-6" transform="translate(360 160.08)"><tspan x="0" y="0">#74c5b4</tspan></text>
    <text class="cls-6" transform="translate(357.55 183.76)"><tspan x="0" y="0">Ho</tspan><tspan class="cls-1" x="22.89" y="0">v</tspan><tspan x="31.45" y="0">ering</tspan></text>
    <rect class="cls-8" x="330" width="126.78" height="126.78"/>
  </g>
</svg>