<?xml version="1.0" encoding="UTF-8"?>
<svg xmlns="http://www.w3.org/2000/svg" viewBox="0 0 1280.4 320.42">
  <defs>
    <style>
      .cls-1, .cls-2, .cls-3 {
        fill: #fff;
      }

      .cls-4 {
        mix-blend-mode: overlay;
        opacity: .2;
      }

      .cls-4, .cls-5, .cls-6, .cls-7, .cls-8, .cls-9 {
        fill: none;
      }

      .cls-5, .cls-8, .cls-2 {
        stroke: #fff;
        stroke-miterlimit: 10;
      }

      .cls-10 {
        fill: #e0e0e0;
        font-family: AdobeFanHeitiStd-Bold-B5pc-H, 'Adobe Fan Heiti Std';
        font-size: 8.28px;
        font-weight: 700;
      }

      .cls-6 {
        isolation: isolate;
      }

      .cls-7 {
        opacity: .6;
      }

      .cls-8 {
        stroke-width: .88px;
      }

      .cls-3 {
        font-family: MicrosoftJhengHeiBold, 'Microsoft JhengHei';
        font-size: 16px;
      }
    </style>
  </defs>
  <g class="cls-6">
    <g id="_圖層_1" data-name="圖層 1">
      <path class="cls-1" d="m288.5,47.02c-.44-3.24-3.19-5.39-6.38-5.49-.51-.02-1.02,0-1.53,0H102.55c-3.89,0-7.05,2.37-7.17,6.51-.06,2.33,0,4.67,0,7v104.79c0,.82-.03,1.64.13,2.45.63,3.06,3.32,4.97,6.34,5.07,1.57.05,3.16,0,4.73,0h71.44v8.35c0,4.65-3.77,8.42-8.42,8.42h-7.95c-.76,0-1.42.51-1.62,1.23l-2.28,8.32c-.29,1.07.51,2.12,1.62,2.12h65.22c1.11,0,1.91-1.05,1.62-2.12l-2.28-8.32c-.2-.73-.86-1.23-1.62-1.23h-7.95c-4.65,0-8.42-3.77-8.42-8.42v-8.35h76.27c.16,0,.3-.02.44-.06,3.4-.36,5.8-2.96,5.91-6.42.02-.74,0-1.48,0-2.22V52.94c0-1.94.18-3.99-.08-5.92Zm-6.27,106.74c-4.22,0-174.43.04-180.03,0-1.4-.01-2.75-.48-3.35-1.9-.31-.73-.23-1.57-.23-2.35,0-3.11-.06-93.29,0-101.13.01-1.91,1.03-3.49,3.11-3.61.3-.02.61,0,.92,0h177.1c2.08,0,4.75-.35,5.48,2.28.47,1.71.11,3.93.11,5.67v94.64c0,2.51.52,6.23-3.11,6.39Z"/>
      <text class="cls-3" transform="translate(144 266.24)"><tspan x="0" y="0">電腦線上作業</tspan><tspan x="-144" y="25">生管開製令單、分配於各產線與機台、分配生產負責人</tspan><tspan x="-40" y="50">電腦處理較為複雜的作業</tspan></text>
      <text class="cls-3" transform="translate(589.02 266.24)"><tspan x="0" y="0">平板作業</tspan><tspan x="-128" y="25">派工系統執行生產、品管系統紀錄統計不良數</tspan><tspan x="-48" y="50">每台機台配置一台平板</tspan></text>
      <text class="cls-3" transform="translate(1061.71 266.24)"><tspan x="0" y="0">戰情看板</tspan><tspan x="-88" y="25">將各產線作業等數據彙整到戰情室</tspan><tspan x="-64" y="50">詳細設計可看塑上雲戰情室</tspan></text>
      <g>
        <path class="cls-9" d="m656.49,130.77v-20.78c0-1.47,0-2.94,0-4.4-.01-2.17-1.59-3.59-3.7-3.6-1.09,0-11.73,0-25.76,0,0,29.18,0,64.6,0,64.71.04,1.91,1.53,3.37,3.44,3.41,1.67.03,13.1.04,26.03.03v-39.36Z"/>
        <path class="cls-9" d="m543,136.02c-1.4-.53-3.07-.08-4.02,1.08-.96,1.17-1.12,2.85-.33,4.17.78,1.31,2.31,1.97,3.8,1.7,1.7-.31,2.9-1.85,2.93-3.55-.02-1.51-.95-2.85-2.37-3.39Zm-.35,5.84c-1.05.38-2.24.05-2.94-.81-.68-.84-.75-2.05-.2-2.98.55-.92,1.65-1.43,2.7-1.23,1.24.23,2.13,1.32,2.15,2.57-.01,1.08-.68,2.08-1.7,2.45Z"/>
        <path class="cls-9" d="m623.67,172.9v-70.92c-30.28,0-73.25,0-73.38,0-1.91.04-3.37,1.53-3.41,3.44-.07,4,0,64.09,0,66.36,0,1.82-.07,3.72,1.88,4.7.69.35,47.62.38,75.88.37-.55-.91-.89-1.96-.97-3.09-.02-.29-.01-.57-.01-.86Z"/>
        <path class="cls-9" d="m649.91,98.63c1.02,0,2.04,0,3.07,0,3.89.03,6.86,3.1,6.88,6.96.02,4.54,0,9.07,0,13.61v50.93c17.2,0,35.73-.03,36.97-.03,1.82,0,3.72.07,4.7-1.88.48-.96.36-90,.36-96.47v-7.85c-.04-1.91-1.53-3.37-3.44-3.4-.34,0-.69,0-1.03,0h-62.38c-1.47,0-2.94,0-4.4,0-2.17.01-3.59,1.59-3.6,3.7,0,1.31,0,16.3,0,34.43h22.88Z"/>
        <path class="cls-9" d="m664.46,171.62c-1.51.02-2.85.95-3.39,2.37-.53,1.4-.08,3.07,1.08,4.02,1.17.96,2.85,1.12,4.17.33,1.31-.78,1.97-2.31,1.7-3.8-.31-1.7-1.85-2.91-3.55-2.93Zm1.64,5.65c-.84.68-2.05.75-2.98.2-.92-.55-1.43-1.65-1.23-2.7.23-1.24,1.32-2.13,2.57-2.15,1.08.01,2.08.68,2.45,1.7.38,1.05.05,2.24-.81,2.94Z"/>
        <path class="cls-1" d="m542.21,136.84c-1.06-.2-2.15.31-2.7,1.23-.55.92-.48,2.14.2,2.98.7.87,1.89,1.19,2.94.81,1.03-.37,1.69-1.37,1.7-2.45-.02-1.25-.9-2.34-2.15-2.57Z"/>
        <path class="cls-1" d="m633.51,180.18c-1.1,0-2.21.05-3.3,0-2.37-.11-4.41-1.41-5.55-3.32-28.27,0-75.19-.02-75.88-.37-1.95-.98-1.88-2.88-1.88-4.7,0-2.27-.07-62.35,0-66.36.03-1.9,1.49-3.4,3.41-3.44.12,0,43.09,0,73.38,0v-3.36h-79.59c-.29,0-.57,0-.86.01-3.49.24-6.25,3.02-6.41,6.52-.05,1.1,0,2.21,0,3.3v63.29c0,2.44.17,4.81,2.14,6.62,1.69,1.55,3.7,1.83,5.84,1.83h108.3c.1,0,.19-.01.28-.02h-19.86Zm-91.07-37.22c-1.49.27-3.02-.39-3.8-1.7-.78-1.31-.62-2.99.33-4.17.95-1.16,2.62-1.61,4.02-1.08,1.42.54,2.35,1.88,2.37,3.39-.02,1.7-1.23,3.24-2.93,3.55Z"/>
        <path class="cls-1" d="m652.79,101.99c2.12,0,3.69,1.43,3.7,3.6,0,1.47,0,2.94,0,4.4v60.14c1.11,0,2.23,0,3.36,0v-50.93c0-4.54.02-9.07,0-13.61-.02-3.86-2.99-6.93-6.88-6.96-1.02,0-2.04,0-3.07,0h-22.88v3.36c14.03,0,24.67,0,25.76,0Z"/>
        <path class="cls-1" d="m664.46,172.63c-1.25.02-2.34.9-2.57,2.15-.2,1.06.31,2.15,1.23,2.7.92.55,2.14.48,2.98-.2.87-.7,1.19-1.89.81-2.94-.37-1.03-1.37-1.69-2.45-1.7Z"/>
        <path class="cls-1" d="m698.94,57.15c-.39-.03-.79-.02-1.19-.02h-53.51c-4.54,0-9.07-.02-13.61,0-3.86.02-6.93,2.99-6.96,6.88,0,1.02,0,2.04,0,3.07v31.55h3.36c0-18.13,0-33.12,0-34.43,0-2.12,1.43-3.69,3.6-3.7,1.47,0,2.94,0,4.4,0h62.38c.34,0,.69,0,1.03,0,1.91.03,3.4,1.49,3.44,3.4v7.85c0,6.47.12,95.51-.36,96.47-.98,1.95-2.88,1.88-4.7,1.88-1.24,0-19.78.02-36.97.03v2.58c0,.4.01.79-.02,1.19-.27,3.46-3.05,6.07-6.46,6.28h43.42c2.44,0,4.81-.17,6.62-2.14,1.55-1.69,1.83-3.7,1.83-5.84V63.9c-.08-3.54-2.75-6.47-6.3-6.75Zm-32.64,121.2c-1.31.78-2.99.62-4.17-.33-1.16-.95-1.61-2.62-1.08-4.02.54-1.42,1.88-2.35,3.39-2.37,1.69.02,3.24,1.23,3.55,2.93.27,1.49-.39,3.02-1.7,3.8Z"/>
        <path class="cls-1" d="m659.83,173.9c.03-.39.02-.79.02-1.19v-2.58c-1.13,0-2.25,0-3.36,0v2.24c0,.34,0,.69,0,1.03-.03,1.91-1.49,3.4-3.4,3.44h-7.85c-1.78,0-9.84,0-20.58.01,1.14,1.91,3.18,3.21,5.55,3.32,1.1.05,2.21,0,3.3,0h19.86c3.41-.21,6.19-2.83,6.46-6.28Z"/>
        <path class="cls-1" d="m627.03,101.98v-3.36h-3.36v3.36h3.36Z"/>
      </g>
      <g>
        <path class="cls-1" d="m1223.33,52.97c-1.42-.71-2.9-.86-4.44-.86h-250.02c-.64,0-1.29-.02-1.92.04-4.26.4-7.12,4.02-7.14,8.16-.02,3.37,0,6.74,0,10.11v157.94c0,3.43,1.71,6.56,5.01,7.86,2.17.85,4.92.54,7.21.54h247.74c4.52-.12,7.83-3.68,7.86-8.15,0-1.11,0-2.22,0-3.32V60.59c0-3.15-1.35-6.14-4.29-7.61Zm2.22,18.79v152.42c0,3.4-2.19,6.27-5.78,6.36-1.65,0-250.42.04-252.1,0-3.61-.08-5.78-2.99-5.78-6.38V60.53c0-3.38,2.21-6.26,5.79-6.34.46,0,.91,0,1.37,0h249.51c.53,0,1.06-.02,1.58,0,3.52.23,5.42,3.22,5.42,6.46v11.1Z"/>
        <g>
          <g class="cls-7">
            <path class="cls-5" d="m1279.9,50.2c0,27.45-22.25,49.7-49.7,49.7v-49.7s35.14-35.14,35.14-35.14c8.99,8.99,14.56,21.42,14.56,35.14Z"/>
            <path class="cls-5" d="m1230.2,50.2h-49.7c0-13.72,5.56-26.15,14.56-35.14l35.14,35.14Z"/>
            <path class="cls-2" d="m1230.2.5c13.72,0,26.15,5.56,35.14,14.56l-35.14,35.14-35.14-35.14c8.99-8.99,21.42-14.56,35.14-14.56Z"/>
          </g>
          <text class="cls-10" transform="translate(1247.21 60.86)"><tspan x="0" y="0">13%</tspan></text>
          <text class="cls-10" transform="translate(1222.71 24.58)"><tspan x="0" y="0">25%</tspan></text>
          <text class="cls-10" transform="translate(1192.31 41.42)"><tspan x="0" y="0">38%</tspan></text>
        </g>
        <g class="cls-4">
          <polyline class="cls-8" points="978.56 131.67 978.56 166.2 1207.81 166.2"/>
          <rect class="cls-1" x="984.25" y="151.51" width="3.37" height="14.69"/>
          <rect class="cls-1" x="990.47" y="148.18" width="3.37" height="18.02"/>
          <rect class="cls-1" x="996.68" y="144.85" width="3.37" height="21.35"/>
          <rect class="cls-1" x="1002.89" y="141.52" width="3.37" height="24.68"/>
          <rect class="cls-1" x="1009.1" y="138.19" width="3.37" height="28"/>
          <rect class="cls-1" x="1015.31" y="134.87" width="3.37" height="31.33"/>
          <rect class="cls-1" x="1052.61" y="151.51" width="3.37" height="14.69"/>
          <rect class="cls-1" x="1046.4" y="148.18" width="3.37" height="18.02"/>
          <rect class="cls-1" x="1040.19" y="144.85" width="3.37" height="21.35"/>
          <rect class="cls-1" x="1033.97" y="141.52" width="3.37" height="24.68"/>
          <rect class="cls-1" x="1027.76" y="138.19" width="3.37" height="28"/>
          <rect class="cls-1" x="1021.55" y="134.87" width="3.37" height="31.33"/>
          <rect class="cls-1" x="1057.98" y="151.51" width="3.37" height="14.69"/>
          <rect class="cls-1" x="1064.19" y="148.18" width="3.37" height="18.02"/>
          <rect class="cls-1" x="1070.4" y="144.85" width="3.37" height="21.35"/>
          <rect class="cls-1" x="1076.62" y="141.52" width="3.37" height="24.68"/>
          <rect class="cls-1" x="1082.83" y="138.19" width="3.37" height="28"/>
          <rect class="cls-1" x="1089.04" y="134.87" width="3.37" height="31.33"/>
          <rect class="cls-1" x="1126.34" y="151.51" width="3.37" height="14.69"/>
          <rect class="cls-1" x="1120.13" y="148.18" width="3.37" height="18.02"/>
          <rect class="cls-1" x="1113.91" y="144.85" width="3.37" height="21.35"/>
          <rect class="cls-1" x="1107.7" y="141.52" width="3.37" height="24.68"/>
          <rect class="cls-1" x="1101.49" y="138.19" width="3.37" height="28"/>
          <rect class="cls-1" x="1095.28" y="134.87" width="3.37" height="31.33"/>
          <rect class="cls-1" x="1131.71" y="151.51" width="3.37" height="14.69"/>
          <rect class="cls-1" x="1137.92" y="148.18" width="3.37" height="18.02"/>
          <rect class="cls-1" x="1144.13" y="144.85" width="3.37" height="21.35"/>
          <rect class="cls-1" x="1150.34" y="141.52" width="3.37" height="24.68"/>
          <rect class="cls-1" x="1156.56" y="138.19" width="3.37" height="28"/>
          <rect class="cls-1" x="1162.77" y="134.87" width="3.37" height="31.33"/>
          <rect class="cls-1" x="1200.07" y="151.51" width="3.37" height="14.69"/>
          <rect class="cls-1" x="1193.85" y="148.18" width="3.37" height="18.02"/>
          <rect class="cls-1" x="1187.64" y="144.85" width="3.37" height="21.35"/>
          <rect class="cls-1" x="1181.43" y="141.52" width="3.37" height="24.68"/>
          <rect class="cls-1" x="1175.22" y="138.19" width="3.37" height="28"/>
          <rect class="cls-1" x="1169" y="134.87" width="3.37" height="31.33"/>
          <circle class="cls-8" cx="978.51" cy="130.72" r="1.22"/>
          <circle class="cls-8" cx="1208.92" cy="166.19" r="1.22"/>
        </g>
      </g>
      <polygon class="cls-1" points="405.94 144.11 393.81 138.41 393.81 142.8 358.92 142.8 358.92 145.41 393.81 145.41 393.81 149.81 405.94 144.11"/>
      <polygon class="cls-1" points="847.33 144.11 835.2 138.41 835.2 142.8 800.31 142.8 800.31 145.41 835.2 145.41 835.2 149.81 847.33 144.11"/>
    </g>
  </g>
</svg>