<?xml version="1.0" encoding="UTF-8"?>
<svg id="_圖層_1" data-name="圖層 1" xmlns="http://www.w3.org/2000/svg" xmlns:xlink="http://www.w3.org/1999/xlink" viewBox="0 0 1742.4 410.16">
  <defs>
    <style>
      .cls-1 {
        fill: #fff;
      }

      .cls-2 {
        fill: url(#_未命名漸層_16);
        filter: url(#drop-shadow-1);
      }

      .cls-2, .cls-3, .cls-4, .cls-5 {
        stroke-miterlimit: 10;
      }

      .cls-2, .cls-4, .cls-5 {
        stroke: #fff;
        stroke-width: 1.33105px;
      }

      .cls-6 {
        filter: url(#drop-shadow-4);
      }

      .cls-7 {
        filter: url(#drop-shadow-8);
      }

      .cls-8 {
        filter: url(#drop-shadow-6);
      }

      .cls-9, .cls-3 {
        fill: #3da39c;
      }

      .cls-10 {
        filter: url(#drop-shadow-2);
      }

      .cls-11 {
        fill: none;
      }

      .cls-3 {
        filter: url(#drop-shadow-3);
        stroke: #71c5c0;
      }

      .cls-4 {
        fill: url(#_未命名漸層_16-2);
        filter: url(#drop-shadow-5);
      }

      .cls-5 {
        fill: url(#_未命名漸層_16-3);
        filter: url(#drop-shadow-7);
      }
    </style>
    <radialGradient id="_未命名漸層_16" data-name="未命名漸層 16" cx="168.85913" cy="157.95992" fx="168.85913" fy="157.95992" r="196.1749" gradientUnits="userSpaceOnUse">
      <stop offset="0" stop-color="#fff"/>
      <stop offset=".96977" stop-color="#d1d1d1"/>
    </radialGradient>
    <filter id="drop-shadow-1" filterUnits="userSpaceOnUse">
      <feOffset dx="4.13504" dy="4.13504"/>
      <feGaussianBlur result="blur" stdDeviation="4.96204"/>
      <feFlood flood-color="#6d6d6d" flood-opacity=".75"/>
      <feComposite in2="blur" operator="in"/>
      <feComposite in="SourceGraphic"/>
    </filter>
    <filter id="drop-shadow-2" filterUnits="userSpaceOnUse">
      <feOffset dx="2.08468" dy="2.08468"/>
      <feGaussianBlur result="blur-2" stdDeviation="3.47446"/>
      <feFlood flood-color="#767777" flood-opacity=".75"/>
      <feComposite in2="blur-2" operator="in"/>
      <feComposite in="SourceGraphic"/>
    </filter>
    <filter id="drop-shadow-3" filterUnits="userSpaceOnUse">
      <feOffset dx="4.13504" dy="4.13504"/>
      <feGaussianBlur result="blur-3" stdDeviation="4.96204"/>
      <feFlood flood-color="#6d6d6d" flood-opacity=".75"/>
      <feComposite in2="blur-3" operator="in"/>
      <feComposite in="SourceGraphic"/>
    </filter>
    <filter id="drop-shadow-4" filterUnits="userSpaceOnUse">
      <feOffset dx="2.08468" dy="2.08468"/>
      <feGaussianBlur result="blur-4" stdDeviation="3.47446"/>
      <feFlood flood-color="#767777" flood-opacity=".75"/>
      <feComposite in2="blur-4" operator="in"/>
      <feComposite in="SourceGraphic"/>
    </filter>
    <radialGradient id="_未命名漸層_16-2" data-name="未命名漸層 16" cx="1057.10606" fx="1057.10606" xlink:href="#_未命名漸層_16"/>
    <filter id="drop-shadow-5" filterUnits="userSpaceOnUse">
      <feOffset dx="4.13504" dy="4.13504"/>
      <feGaussianBlur result="blur-5" stdDeviation="4.96204"/>
      <feFlood flood-color="#6d6d6d" flood-opacity=".75"/>
      <feComposite in2="blur-5" operator="in"/>
      <feComposite in="SourceGraphic"/>
    </filter>
    <filter id="drop-shadow-6" filterUnits="userSpaceOnUse">
      <feOffset dx="2.08468" dy="2.08468"/>
      <feGaussianBlur result="blur-6" stdDeviation="3.47446"/>
      <feFlood flood-color="#767777" flood-opacity=".75"/>
      <feComposite in2="blur-6" operator="in"/>
      <feComposite in="SourceGraphic"/>
    </filter>
    <radialGradient id="_未命名漸層_16-3" data-name="未命名漸層 16" cx="1501.22952" fx="1501.22952" r="196.1749" xlink:href="#_未命名漸層_16"/>
    <filter id="drop-shadow-7" filterUnits="userSpaceOnUse">
      <feOffset dx="4.13504" dy="4.13504"/>
      <feGaussianBlur result="blur-7" stdDeviation="4.96204"/>
      <feFlood flood-color="#6d6d6d" flood-opacity=".75"/>
      <feComposite in2="blur-7" operator="in"/>
      <feComposite in="SourceGraphic"/>
    </filter>
    <filter id="drop-shadow-8" filterUnits="userSpaceOnUse">
      <feOffset dx="2.08468" dy="2.08468"/>
      <feGaussianBlur result="blur-8" stdDeviation="3.47446"/>
      <feFlood flood-color="#767777" flood-opacity=".75"/>
      <feComposite in2="blur-8" operator="in"/>
      <feComposite in="SourceGraphic"/>
    </filter>
  </defs>
  <g>
    <circle class="cls-2" cx="200.89126" cy="200.92984" r="186.72385"/>
    <g class="cls-10">
      <path class="cls-9" d="M160.09619,177.32721h91.09302v-6.25384c0-3.39893-1.45879-6.63451-4.00549-8.88521l-10.50776-9.28513c-1.69816-1.50045-2.67068-3.65743-2.67068-5.92343v-24.38822h-.09607c-1.48777-23.13956-20.72355-41.44817-44.23908-41.44817s-42.75131,18.30861-44.23908,41.44817h-.09607v24.38822c0,2.266-.97252,4.42298-2.67068,5.92343l-10.50776,9.28513c-2.54724,2.2507-4.00549,5.48628-4.00549,8.88528v6.25378h31.94514Zm1.85005-58.80848h20.891l12.44959-12.44992,6.03158,6.03158h12.88969c3.06034,4.6374,4.84652,10.18976,4.84652,16.16176,0,16.22878-13.1559,29.38488-29.38448,29.38488s-29.38502-13.1561-29.38502-29.38488c0-3.41631,.58931-6.69355,1.66113-9.74341Z"/>
      <g>
        <path class="cls-9" d="M288.17708,212.55889l-9.16205-9.16215c-2.85795-2.8579-7.49321-2.8579-10.35116,0l-8.61932,8.61953,19.513,19.51321,8.61953-8.61953c2.85795-2.85795,2.85795-7.49159,0-10.35105Z"/>
        <path class="cls-9" d="M233.10071,222.40852c-3.10825,.87848-5.58012,3.2385-6.60153,6.30264l-14.21947,42.6571,2.2391,2.2391,22.8803-22.88025c-.45595-.95415-.7317-2.00893-.7317-3.13682,0-4.04075,3.27553-7.31633,7.31633-7.31633,4.0406,0,7.31633,3.27558,7.31633,7.31633s-3.27574,7.31628-7.31633,7.31628c-1.128,0-2.18278-.2759-3.13703-.73164l-22.88009,22.88019,2.2391,2.2391,42.65715-14.21947c3.06403-1.02146,5.4241-3.49328,6.30264-6.60148l6.52206-23.07683-19.51008-19.51013-23.07678,6.52222Z"/>
        <path class="cls-9" d="M227.20353,214.52965l33.90468-9.5824c-8.22646-13.56924-23.13527-22.64136-40.1547-22.64136h-3.45536l-26.17655,26.17615-25.45038-25.45038c-.55496-.23495-1.1067-.47559-1.65361-.72577h-5.83085c-25.90658,0-46.92479,21.01834-46.92479,46.92479v14.52438c0,9.25226,7.50646,16.75885,16.75885,16.75885h76.88007l12.1662-36.49733c1.53741-4.61224,5.25817-8.16454,9.93643-9.48693Z"/>
      </g>
    </g>
    <g>
      <path class="cls-9" d="M84.93259,316.546h-10.12276v-2.17551h3.76274v-12.42036l-3.86263,1.04335v-2.2865l6.47102-1.69823v15.36173h3.75164v2.17551Z"/>
      <path class="cls-9" d="M96.76468,310.25257v6.29343h-2.66388v-17.19315h5.19457c1.94612,0,3.43715,.44953,4.47311,1.34859s1.55393,2.20325,1.55393,3.91258c0,1.72412-.61787,3.10971-1.85362,4.15677s-2.76378,1.54098-4.5841,1.48179h-2.12001Zm0-8.66872v6.44882h1.90912c2.56769,0,3.85153-1.10255,3.85153-3.30766,0-2.09411-1.23205-3.14116-3.69614-3.14116h-2.06451Z"/>
      <path class="cls-9" d="M121.37231,316.546h-3.11896l-2.79708-4.684c-.54758-.91756-1.0452-1.54283-1.49288-1.87582s-.96011-.49948-1.53728-.49948h-1.44294v7.05929h-2.66388v-17.19315h5.47206c1.78332,0,3.16151,.40143,4.13457,1.2043s1.45959,1.94057,1.45959,3.4131c0,1.15435-.33669,2.14221-1.01006,2.96357s-1.61313,1.39484-2.81928,1.72043v.0444c.76957,.26639,1.63163,1.16915,2.58619,2.70828l3.22996,5.13908Zm-10.38915-14.99545v5.72735h2.3642c.98416,0,1.77037-.28489,2.35865-.85466,.58827-.56978,.88241-1.29494,.88241-2.17551,0-1.79812-1.06555-2.69718-3.19666-2.69718h-2.4086Z"/>
      <path class="cls-9" d="M122.11597,308.16586c0-2.71568,.76032-4.91154,2.28095-6.58756s3.57219-2.51404,6.15468-2.51404c2.41969,0,4.36211,.81396,5.82725,2.44189,1.46514,1.62793,2.1977,3.71464,2.1977,6.26013,0,2.70088-.74737,4.88749-2.2421,6.55981-1.49473,1.67233-3.51485,2.50849-6.06034,2.50849-2.42709,0-4.39356-.80656-5.89939-2.41969s-2.25875-3.69614-2.25875-6.24903Zm2.79708-.18869c0,1.89432,.48468,3.4538,1.45404,4.67845,.96936,1.22465,2.2791,1.83697,3.92923,1.83697,1.73152,0,3.07827-.58272,4.04022-1.74817s1.44294-2.73973,1.44294-4.72284c0-2.02751-.46433-3.63324-1.39299-4.81719s-2.25135-1.77592-3.96808-1.77592c-1.67233,0-3.00797,.61417-4.00693,1.84252s-1.49843,2.79708-1.49843,4.70619Z"/>
      <path class="cls-9" d="M141.64406,316.546v-17.19315h5.21677c6.06774,0,9.1016,2.79338,9.1016,8.38013,0,2.68608-.86391,4.82644-2.59174,6.42107-1.72782,1.59463-3.94218,2.39195-6.64306,2.39195h-5.08358Zm2.66388-14.90665v12.62015h2.342c2.02751,0,3.62029-.56793,4.77834-1.70378s1.73707-2.72493,1.73707-4.76724c0-2.00531-.55128-3.5315-1.65383-4.57855-1.10255-1.04705-2.70088-1.57058-4.79499-1.57058h-2.4086Z"/>
      <path class="cls-9" d="M172.25652,309.42011c0,4.94298-2.2606,7.41448-6.7818,7.41448-4.33621,0-6.50432-2.3901-6.50432-7.17029v-10.31145h2.66388v10.24485c0,3.26326,1.34674,4.89489,4.04022,4.89489,2.61209,0,3.91813-1.57613,3.91813-4.72839v-10.41135h2.66388v10.06726Z"/>
      <path class="cls-9" d="M188.27313,315.86893c-1.27274,.64377-2.87477,.96566-4.80609,.96566-2.48629,0-4.47865-.78252-5.97709-2.34755-1.49843-1.56503-2.24765-3.63139-2.24765-6.19908,0-2.67868,.83061-4.88564,2.49184-6.62086s3.80158-2.60284,6.42107-2.60284c1.65013,0,3.02277,.22939,4.11792,.68817v2.69718c-1.21355-.68077-2.55659-1.02116-4.02912-1.02116-1.87212,0-3.37425,.61602-4.5064,1.84807-1.13215,1.23205-1.69823,2.84333-1.69823,4.83384,0,1.90172,.53093,3.44085,1.59278,4.6174s2.48444,1.76482,4.26776,1.76482c1.65753,0,3.11526-.38108,4.37321-1.14325v2.51959Z"/>
      <path class="cls-9" d="M202.42501,301.63935h-4.93928v14.90665h-2.67498v-14.90665h-4.92819v-2.2865h12.54245v2.2865Z"/>
      <path class="cls-9" d="M226.27787,316.546v-11.09952c0-.96936,.0518-2.12001,.15539-3.45195h-.0666c-.22199,.95456-.39588,1.57983-.52168,1.87582l-5.22787,12.67565h-1.74262l-5.25007-12.57575c-.13319-.31819-.30709-.97676-.52168-1.97571h-.0666c.074,1.03595,.111,2.2865,.111,3.75164v10.79983h-2.47519v-17.19315h3.71834l4.6507,11.35481c.36258,.88796,.60307,1.62423,.72147,2.2088h.0777c.14059-.46618,.39958-1.21355,.77697-2.2421l4.72839-11.32151h3.57404v17.19315h-2.64168Z"/>
      <path class="cls-9" d="M247.16716,316.546h-2.93027l-1.60943-4.47311h-6.8817l-1.53173,4.47311h-2.93027l6.48212-17.19315h2.96357l6.43772,17.19315Zm-5.28337-6.68191l-2.3975-6.7818c-.0888-.24419-.17759-.67707-.26639-1.29864h-.0777c-.0666,.51058-.15909,.93606-.27749,1.27644l-2.3864,6.804h5.40546Z"/>
      <path class="cls-9" d="M263.98293,316.546h-2.97467l-8.22474-12.67565c-.30339-.46618-.52538-.86946-.66597-1.20985h-.0666c.0666,.44398,.0999,1.28014,.0999,2.50849v11.377h-2.58619v-17.19315h3.15226l7.98055,12.43146c.37738,.59197,.62897,1.00266,.75477,1.23205h.0555c-.0814-.53278-.12209-1.35414-.12209-2.46409v-11.19941h2.59729v17.19315Z"/>
      <path class="cls-9" d="M282.23053,316.546h-2.93027l-1.60943-4.47311h-6.8817l-1.53173,4.47311h-2.93027l6.48212-17.19315h2.96357l6.43772,17.19315Zm-5.28337-6.68191l-2.3975-6.7818c-.0888-.24419-.17759-.67707-.26639-1.29864h-.0777c-.0666,.51058-.15909,.93606-.27749,1.27644l-2.3864,6.804h5.40546Z"/>
      <path class="cls-9" d="M297.60336,315.38055c-1.71673,.96936-3.69614,1.45404-5.93824,1.45404-2.56769,0-4.6211-.78067-6.16023-2.342s-2.3087-3.66284-2.3087-6.30453c0-2.67128,.85281-4.85974,2.55844-6.56536s3.90148-2.55844,6.58756-2.55844c1.84992,0,3.43345,.28489,4.75059,.85466v2.73048c-1.35414-.83616-2.99317-1.25425-4.91709-1.25425-1.81292,0-3.29656,.61047-4.45091,1.83142s-1.73152,2.82298-1.73152,4.80609c0,2.04231,.53093,3.63509,1.59278,4.77834s2.49924,1.71488,4.31216,1.71488c1.19875,0,2.2088-.22199,3.03017-.66597v-4.30661h-3.65174v-2.2643h6.32672v8.09155Z"/>
      <path class="cls-9" d="M310.88948,316.546h-9.52339v-17.19315h9.1349v2.2865h-6.47102v5.06138h6.00484v2.2754h-6.00484v5.28337h6.8595v2.2865Z"/>
      <path class="cls-9" d="M327.07258,316.546h-3.11896l-2.79708-4.684c-.54758-.91756-1.0452-1.54283-1.49288-1.87582s-.96011-.49948-1.53728-.49948h-1.44294v7.05929h-2.66388v-17.19315h5.47206c1.78332,0,3.16151,.40143,4.13457,1.2043s1.45959,1.94057,1.45959,3.4131c0,1.15435-.33669,2.14221-1.01006,2.96357-.67337,.82136-1.61313,1.39484-2.81928,1.72043v.0444c.76957,.26639,1.63163,1.16915,2.58619,2.70828l3.22996,5.13908Zm-10.38915-14.99545v5.72735h2.3642c.98416,0,1.77037-.28489,2.35865-.85466s.88241-1.29494,.88241-2.17551c0-1.79812-1.06555-2.69718-3.19666-2.69718h-2.4086Z"/>
    </g>
  </g>
  <g>
    <circle class="cls-3" cx="645.01472" cy="200.92984" r="186.72385"/>
    <g class="cls-6">
      <path class="cls-1" d="M584.61656,152.87048l30.72036,12.64119,.01395-.05032c4.96352,1.90117,10.34782,2.95299,15.98008,2.95299,5.63119,0,11.01442-1.05129,15.97579-2.95165l.01503,.04898,30.72036-12.64119-4.01461-5.73491,12.90365-6.02165c-9.31948-9.31921-11.21944-22.65283-11.21944-22.65283l-.00859,.00228c-2.6052-22.20293-21.46851-39.42966-44.37218-39.42966s-41.76805,17.22724-44.37218,39.4306l-.01288-.00322s-1.89996,13.33362-11.21837,22.65283l12.90365,6.02165-4.01461,5.73491Zm17.17266-39.4513h2.50752s15.80726-3.87104,21.50608-15.05409c0,0,6.34394,21.18324,17.09752,26.45219h19.77357c-.47767,16.90125-14.31627,30.45465-31.33329,30.45465-17.31972,0-31.3569-14.03702-31.3569-31.3567,0-3.68239,.63976-7.21382,1.8055-10.49605Z"/>
      <path class="cls-1" d="M651.04764,219.52073c-2.80781-2.80781-2.80781-7.36048,0-10.16836l16.27823-16.27843c2.80808-2.80788,7.36048-2.80788,10.16829,0l22.16892,22.16885,7.97153-7.97153c-5.71277-19.47254-23.70714-33.70589-45.02214-33.70589h-5.83085c-7.75094,3.56122-16.37484,5.58624-25.45253,5.58624s-17.66643-2.02502-25.45253-5.58624h-5.83058c-25.90658,0-46.92506,21.01834-46.92506,46.92479v14.52438c0,9.25226,7.50673,16.75885,16.75912,16.75885h79.65729c1.34205-2.93193,3.2133-5.6811,5.62716-8.09504,3.65984-3.65991,8.08531-6.08424,12.76061-7.2801l-16.87747-16.87753Z"/>
      <path class="cls-1" d="M734.96106,259.22519l-22.33557-22.33543,22.77755-22.77728c2.00731-2.00731,2.00731-5.26193,0-7.26944l-7.23784-7.23777c-2.00731-2.00724-5.2622-2.00737-7.26924,0l-22.77755,22.77728-21.95289-21.95282c-2.00731-2.00737-5.26193-2.00737-7.26924,0l-10.14548,10.14555c-2.00731,2.00737-2.00731,5.26207,0,7.26937l58.79822,58.79835c.46479,.46473,1.0898,.73382,1.74673,.7518l14.12735,.38777c1.47167,.04039,2.67605-1.16104,2.64009-2.63258l-.35021-14.17096c-.01637-.65949-.28553-1.28744-.75193-1.75384Z"/>
      <path class="cls-1" d="M659.43134,247.41606c-3.62898,3.62898-5.56303,8.31039-5.80508,13.06157h-.01395l-.00027,.4705c-.00993,.36543-.00993,.7308,.00027,1.0963v13.39044c0,3.2922,2.66907,5.96127,5.96154,5.96133l13.39018-.00007c.3655,.01,.73073,.01013,1.09624,.00007l.47043-.00007v-.01422c5.03946-.25641,9.99976-2.41668,13.70979-6.48362,3.3303-3.65072,5.04564-8.29476,5.14627-12.97094l-20.33524-20.33544c-4.94151,.11271-9.84895,2.05293-13.62016,5.82414Z"/>
    </g>
    <g>
      <path class="cls-1" d="M556.11281,316.546h-10.12276v-2.17551h3.76274v-12.42036l-3.86263,1.04335v-2.2865l6.47102-1.69823v15.36173h3.75164v2.17551Z"/>
      <path class="cls-1" d="M578.36735,309.42011c0,4.94298-2.2606,7.41448-6.7818,7.41448-4.33621,0-6.50432-2.3901-6.50432-7.17029v-10.31145h2.66388v10.24485c0,3.26326,1.34674,4.89489,4.04022,4.89489,2.61209,0,3.91813-1.57613,3.91813-4.72839v-10.41135h2.66388v10.06726Z"/>
      <path class="cls-1" d="M585.11585,301.52835v15.01765h-2.66388v-17.19315h2.66388v2.17551Z"/>
      <path class="cls-1" d="M608.20285,309.42011c0,4.94298-2.2606,7.41448-6.7818,7.41448-4.33621,0-6.50432-2.3901-6.50432-7.17029v-10.31145h2.66388v10.24485c0,3.26326,1.34674,4.89489,4.04022,4.89489,2.61209,0,3.91813-1.57613,3.91813-4.72839v-10.41135h2.66388v10.06726Z"/>
      <path class="cls-1" d="M624.92982,316.546h-3.20776l-3.60734-6.23793c-.11839-.19979-.24419-.51798-.37738-.95456h-.0555c-.0592,.19979-.19239,.52538-.39958,.97676l-3.68504,6.21573h-3.22996l5.66075-8.62432-5.19457-8.56883h3.26326l3.13006,5.73845c.22939,.42178,.42178,.85096,.57717,1.28754h.0444c.0592-.14799,.27009-.59567,.63267-1.34304l3.32985-5.68295h3.01907l-5.31667,8.52443,5.41656,8.66872Z"/>
      <path class="cls-1" d="M633.03246,316.546v-17.19315h5.21677c6.06774,0,9.1016,2.79338,9.1016,8.38013,0,2.68608-.86391,4.82644-2.59174,6.42107s-3.94218,2.39195-6.64306,2.39195h-5.08358Zm2.66388-14.90665v12.62015h2.342c2.02751,0,3.62029-.56793,4.77834-1.70378s1.73707-2.72493,1.73707-4.76724c0-2.00531-.55128-3.5315-1.65383-4.57855s-2.70088-1.57058-4.79499-1.57058h-2.4086Z"/>
      <path class="cls-1" d="M660.08199,316.546h-9.52339v-17.19315h9.1349v2.2865h-6.47102v5.06138h6.00484v2.2754h-6.00484v5.28337h6.8595v2.2865Z"/>
      <path class="cls-1" d="M662.41288,312.98305c1.31714,1.07295,2.86738,1.60943,4.6507,1.60943,2.2791,0,3.41865-.78067,3.41865-2.342,0-.45138-.12579-.85836-.37738-1.22095s-.59012-.67892-1.01561-.94901-1.26719-.70482-2.52514-1.30419c-1.54653-.73997-2.62689-1.49104-3.24106-2.2532s-.92126-1.65753-.92126-2.68608c0-1.47994,.58457-2.64538,1.75372-3.49635s2.66388-1.27644,4.4842-1.27644c1.72412,0,3.02647,.21089,3.90703,.63267v2.73048c-1.05815-.73257-2.379-1.09885-3.96253-1.09885-1.01376,0-1.83142,.20349-2.45299,.61047s-.93236,.96566-.93236,1.67603c0,.64377,.22754,1.17285,.68262,1.58723s1.41519,.96936,2.88032,1.66493c1.70933,.79917,2.88957,1.60018,3.54075,2.40305,.65117,.80287,.97676,1.72597,.97676,2.76933,0,1.55393-.56238,2.74158-1.68713,3.56294s-2.68238,1.23205-4.6729,1.23205c-.73257,0-1.54653-.0888-2.44189-.26639s-1.58353-.41438-2.06451-.71037v-2.87477Z"/>
      <path class="cls-1" d="M679.15095,301.52835v15.01765h-2.66388v-17.19315h2.66388v2.17551Z"/>
      <path class="cls-1" d="M696.76589,315.38055c-1.71673,.96936-3.69614,1.45404-5.93824,1.45404-2.56769,0-4.6211-.78067-6.16023-2.342-1.53913-1.56133-2.3087-3.66284-2.3087-6.30453,0-2.67128,.85281-4.85974,2.55844-6.56536s3.90148-2.55844,6.58756-2.55844c1.84992,0,3.43345,.28489,4.75059,.85466v2.73048c-1.35414-.83616-2.99317-1.25425-4.91709-1.25425-1.81292,0-3.29656,.61047-4.45091,1.83142s-1.73152,2.82298-1.73152,4.80609c0,2.04231,.53093,3.63509,1.59278,4.77834,1.06185,1.14325,2.49924,1.71488,4.31216,1.71488,1.19875,0,2.2088-.22199,3.03017-.66597v-4.30661h-3.65174v-2.2643h6.32672v8.09155Z"/>
      <path class="cls-1" d="M714.9469,316.546h-2.97467l-8.22474-12.67565c-.30339-.46618-.52538-.86946-.66597-1.20985h-.0666c.0666,.44398,.0999,1.28014,.0999,2.50849v11.377h-2.58619v-17.19315h3.15226l7.98055,12.43146c.37738,.59197,.62897,1.00266,.75477,1.23205h.0555c-.0814-.53278-.12209-1.35414-.12209-2.46409v-11.19941h2.59729v17.19315Z"/>
      <path class="cls-1" d="M727.95619,316.546h-9.52339v-17.19315h9.1349v2.2865h-6.47102v5.06138h6.00484v2.2754h-6.00484v5.28337h6.8595v2.2865Z"/>
      <path class="cls-1" d="M744.13928,316.546h-3.11896l-2.79708-4.684c-.54758-.91756-1.0452-1.54283-1.49288-1.87582s-.96011-.49948-1.53728-.49948h-1.44294v7.05929h-2.66388v-17.19315h5.47206c1.78332,0,3.16151,.40143,4.13457,1.2043s1.45959,1.94057,1.45959,3.4131c0,1.15435-.33669,2.14221-1.01006,2.96357s-1.61313,1.39484-2.81928,1.72043v.0444c.76957,.26639,1.63163,1.16915,2.58619,2.70828l3.22996,5.13908Zm-10.38915-14.99545v5.72735h2.3642c.98416,0,1.77037-.28489,2.35865-.85466s.88241-1.29494,.88241-2.17551c0-1.79812-1.06555-2.69718-3.19666-2.69718h-2.4086Z"/>
    </g>
  </g>
  <g>
    <circle class="cls-4" cx="1089.13818" cy="200.92984" r="186.72385"/>
    <g class="cls-8">
      <path class="cls-9" d="M1101.82369,178.63154h-5.83085c-7.75094,3.56122-16.37484,5.58624-25.45253,5.58624s-17.6667-2.02502-25.45253-5.58624h-5.83058c-25.90658,0-46.92479,21.01834-46.92479,46.92479v14.52438c0,9.25226,7.50646,16.75885,16.75885,16.75885h67.81257l-11.76528-11.76528c-.70792-.70786-.70792-1.85555,0-2.56334l28.43101-28.43115c.70792-.70779,1.85568-.70779,2.56334,0l5.01934,5.0192c.70766,.70786,.70766,1.85548,0,2.56334l-20.8486,20.8486c-.70792,.70779-.70792,1.85548,0,2.56334l11.76528,11.76528h21.06275l21.82542-51.08673c.39314-.9206,1.45825-1.34802,2.37898-.95474l6.23231,2.6627c.92073,.39328,1.34822,1.45838,.95481,2.37891l-20.07949,46.99986h7.54591c9.25239,0,16.75885-7.5066,16.75885-16.75885v-14.52438c0-25.90645-21.01847-46.92479-46.92479-46.92479Z"/>
      <path class="cls-9" d="M1093.56959,273.50523c.70792,.70786,1.85568,.70786,2.56334,0l5.01934-5.019c.70766-.70786,.70766-1.85555,0-2.56341l-9.08333-9.08326h-15.16509l16.66573,16.66567Z"/>
      <path class="cls-9" d="M1185.4132,242.51074l-28.43101-28.43095c-.70792-.70779-1.85568-.70779-2.56361,0l-5.01907,5.01907c-.70766,.70779-.70766,1.85548,0,2.56334l20.8486,20.84854c.70792,.70786,.70792,1.85548,0,2.56341l-20.8486,20.84854c-.70766,.70786-.70792,1.85548,0,2.56341l5.01907,5.01907c.70792,.70792,1.85568,.70792,2.56361,0l28.43101-28.43101c.70766-.70792,.70766-1.85555,0-2.56341Z"/>
      <path class="cls-9" d="M1104.20025,277.74533c-.39341,.9206,.03408,1.9857,.95454,2.37898l6.23258,2.66263c.92046,.39328,1.98557-.03415,2.37898-.95468l10.67736-24.9927h-11.31202l-8.93144,20.90576Z"/>
      <path class="cls-9" d="M1103.34331,91.50905v-.78967h-.75287c-8.10181-8.33716-19.42841-13.52393-31.97388-13.52393-4.83783,0-9.49091,.78027-13.8526,2.20483l-8.15417-4.70789-5.52649,9.57214-5.57434-1.81384-5.59863,17.20569c-3.73657,6.52222-5.88342,14.07214-5.88342,22.12866,0,24.62891,19.96082,44.5896,44.58966,44.5896s44.58966-19.96069,44.58966-44.5896c0-11.69092-4.5033-22.32446-11.86292-30.276Zm-32.72675,60.69617c-16.80237,0-30.42017-13.61768-30.42017-30.42017,0-2.80945,.38867-5.52661,1.10132-8.10913h58.6377c.71265,2.58252,1.10132,5.29968,1.10132,8.10913,0,16.80249-13.61774,30.42017-30.42017,30.42017Z"/>
    </g>
    <g>
      <path class="cls-9" d="M1012.01933,316.45994h-10.07031v-2.16406h3.74316v-12.35645l-3.84277,1.03809v-2.27441l6.4375-1.68945v15.28223h3.73242v2.16406Z"/>
      <path class="cls-9" d="M1035.00957,316.45994h-2.91602l-1.60059-4.4502h-6.84668l-1.52344,4.4502h-2.91504l6.44824-17.10449h2.94824l6.40527,17.10449Zm-5.25684-6.64746l-2.38477-6.74707c-.08887-.24219-.17676-.67285-.26465-1.29199h-.07812c-.06543,.50879-.1582,.93164-.27539,1.27051l-2.37402,6.76855h5.37695Z"/>
      <path class="cls-9" d="M1040.04472,310.1992v6.26074h-2.64941v-17.10449h5.16699c1.93652,0,3.41992,.44727,4.4502,1.3418s1.5459,2.19141,1.5459,3.89258c0,1.71484-.61426,3.09375-1.84375,4.13477-1.22949,1.04199-2.75,1.5332-4.56055,1.47461h-2.10938Zm0-8.62402v6.41504h1.89941c2.55469,0,3.83203-1.09668,3.83203-3.29004,0-2.08301-1.22559-3.125-3.67773-3.125h-2.05371Z"/>
      <path class="cls-9" d="M1054.18926,310.1992v6.26074h-2.64941v-17.10449h5.16699c1.93652,0,3.41992,.44727,4.4502,1.3418s1.5459,2.19141,1.5459,3.89258c0,1.71484-.61426,3.09375-1.84375,4.13477-1.22949,1.04199-2.75,1.5332-4.56055,1.47461h-2.10938Zm0-8.62402v6.41504h1.89941c2.55469,0,3.83203-1.09668,3.83203-3.29004,0-2.08301-1.22559-3.125-3.67773-3.125h-2.05371Z"/>
      <path class="cls-9" d="M1080.8123,316.45994h-9.47363v-17.10449h9.08691v2.27441h-6.4375v5.03516h5.97461v2.26367h-5.97461v5.25684h6.82422v2.27441Z"/>
      <path class="cls-9" d="M1098.27031,316.45994h-2.95996l-8.18164-12.61035c-.30176-.46387-.52344-.86523-.66309-1.20312h-.06641c.06641,.44141,.09961,1.27344,.09961,2.49512v11.31836h-2.57227v-17.10449h3.13574l7.93945,12.36719c.375,.58887,.625,.99805,.75098,1.22559h.05469c-.08105-.5293-.12109-1.34668-.12109-2.45117v-11.1416h2.58398v17.10449Z"/>
      <path class="cls-9" d="M1115.78398,315.30076c-1.70801,.96387-3.67773,1.44629-5.9082,1.44629-2.55469,0-4.59668-.77637-6.12793-2.33008-1.53125-1.55273-2.29688-3.64355-2.29688-6.27148,0-2.6582,.84863-4.83496,2.54492-6.53223,1.69727-1.69629,3.88184-2.54492,6.55371-2.54492,1.83984,0,3.41602,.2832,4.72656,.85059v2.71582c-1.34766-.83105-2.97852-1.24707-4.89258-1.24707-1.80371,0-3.2793,.60742-4.42773,1.82129-1.14844,1.21484-1.72266,2.80859-1.72266,4.78125,0,2.03223,.52832,3.61621,1.58496,4.75391s2.48633,1.70605,4.29004,1.70605c1.19238,0,2.19727-.2207,3.01465-.66211v-4.28516h-3.63281v-2.25195h6.29395v8.0498Z"/>
      <path class="cls-9" d="M1122.16582,301.51951v14.94043h-2.65039v-17.10449h2.65039v2.16406Z"/>
      <path class="cls-9" d="M1140.80547,316.45994h-2.95996l-8.18164-12.61035c-.30176-.46387-.52344-.86523-.66309-1.20312h-.06641c.06641,.44141,.09961,1.27344,.09961,2.49512v11.31836h-2.57227v-17.10449h3.13574l7.93945,12.36719c.375,.58887,.625,.99805,.75098,1.22559h.05469c-.08105-.5293-.12109-1.34668-.12109-2.45117v-11.1416h2.58398v17.10449Z"/>
      <path class="cls-9" d="M1154.56328,316.45994h-9.47363v-17.10449h9.08691v2.27441h-6.4375v5.03516h5.97461v2.26367h-5.97461v5.25684h6.82422v2.27441Z"/>
      <path class="cls-9" d="M1167.15117,316.45994h-9.47363v-17.10449h9.08691v2.27441h-6.4375v5.03516h5.97461v2.26367h-5.97461v5.25684h6.82422v2.27441Z"/>
      <path class="cls-9" d="M1183.25176,316.45994h-3.10254l-2.7832-4.66016c-.54492-.91211-1.04004-1.53418-1.48535-1.86621-.44531-.33105-.95508-.49609-1.5293-.49609h-1.43555v7.02246h-2.64941v-17.10449h5.44336c1.77441,0,3.14551,.39941,4.11328,1.19824s1.45215,1.93066,1.45215,3.39551c0,1.14844-.33496,2.13086-1.00488,2.94824s-1.60449,1.3877-2.80469,1.71191v.04395c.76562,.26465,1.62305,1.16309,2.57324,2.69434l3.21289,5.1123Zm-10.33594-14.91797v5.69727h2.35254c.97852,0,1.76074-.2832,2.34668-.84961,.58496-.56738,.87793-1.28809,.87793-2.16406,0-1.78906-1.06055-2.68359-3.18066-2.68359h-2.39648Z"/>
    </g>
  </g>
  <g>
    <circle class="cls-5" cx="1533.26165" cy="200.92984" r="186.72385"/>
    <g class="cls-7">
      <path class="cls-11" d="M1587.70286,208.89429l-6.23258-2.6627c-.92073-.39334-1.98557,.03415-2.37898,.95474l-21.82542,51.08673h11.31202l20.07949-46.99993c.39341-.92053-.03408-1.98557-.95454-2.37884Z"/>
      <path class="cls-11" d="M1524.43785,243.94444l20.8486-20.8486c.70766-.70786,.70766-1.85555,0-2.56334l-5.01907-5.0192c-.70792-.70786-1.85568-.70786-2.56361,0l-28.43101,28.43108c-.70766,.70786-.70766,1.85548,0,2.56341l11.76555,11.76528h15.16482l-11.76528-11.76528c-.70792-.70792-.70792-1.85555,0-2.56334Z"/>
      <path class="cls-9" d="M1540.94392,93.59807h-20.44848v-11.68491c0-3.22665-2.61567-5.84239-5.84239-5.84239s-5.84239,2.61574-5.84239,5.84239v11.68491h-20.45788c-8.06411,.00255-14.59912,6.54192-14.59671,14.60596v49.66062c.00644,6.45068,5.23429,11.67847,11.68504,11.68484h58.42413c6.45075-.00637,11.67833-5.23416,11.68477-11.68484v-49.67007c-.00268-8.06404-6.54199-14.59919-14.6061-14.59651Zm-37.97564,58.42413h-11.68477v-5.84239h11.68477v5.84239Zm1.46066-29.21099c-.00027,4.03306-3.26992,7.30224-7.30305,7.30198-4.0334,0-7.30305-3.26965-7.30305-7.30305s3.26965-7.30305,7.30305-7.30305,7.30305,3.26965,7.30305,7.30305v.00107Zm16.06649,29.21099h-11.68477v-5.84239h11.68477v5.84239Zm17.52743,0h-11.68504v-5.84239h11.68504v5.84239Zm1.46066-29.21099c-.00054,4.03306-3.27019,7.30224-7.30305,7.30198-4.0334,0-7.30305-3.26965-7.30305-7.30305s3.26965-7.30305,7.30305-7.30305,7.30305,3.26965,7.30305,7.30305v.00107Z"/>
      <path class="cls-9" d="M1567.24901,152.0222c3.22269-.00382,5.83219-2.61956,5.82843-5.84239v-23.3837c-.00403-3.22276-2.61969-5.83226-5.84265-5.82836h-5.84239v35.05445h5.85661Z"/>
      <path class="cls-9" d="M1462.07131,152.0222h5.84239v-35.05445h-5.85634c-3.22296,.00382-5.83219,2.61956-5.82843,5.84239v23.3837c.00376,3.22276,2.61969,5.83226,5.84239,5.82836Z"/>
      <path class="cls-9" d="M1545.93642,180.06497h-5.83085c-7.75094,3.56129-16.37484,5.58631-25.45253,5.58631s-17.66643-2.02502-25.45253-5.58631h-5.83058c-25.90658,0-46.92479,21.01841-46.92479,46.92486v14.52438c0,9.25226,7.50646,16.75885,16.75885,16.75885h67.83431l-11.76555-11.76528c-.70766-.70792-.70766-1.85555,0-2.56341l28.43101-28.43108c.70792-.70786,1.85568-.70786,2.56361,0l5.01907,5.0192c.70766,.70779,.70766,1.85548,0,2.56334l-20.8486,20.8486c-.70792,.70779-.70792,1.85542,0,2.56334l11.76528,11.76528h21.06275l21.82542-51.08673c.39341-.9206,1.45825-1.34809,2.37898-.95474l6.23258,2.6627c.92046,.39328,1.34795,1.45832,.95454,2.37884l-20.07949,46.99993h7.52444c9.25239,0,16.75885-7.5066,16.75885-16.75885v-14.52438c0-25.90645-21.01847-46.92486-46.92479-46.92486Z"/>
      <path class="cls-9" d="M1537.70378,274.93866c.70792,.70792,1.85568,.70792,2.56334,0l5.01934-5.01893c.70766-.70792,.70766-1.85555,0-2.56341l-9.08333-9.08326h-15.16482l16.66547,16.6656Z"/>
      <path class="cls-9" d="M1629.5474,243.94424l-28.43101-28.43095c-.70792-.70786-1.85568-.70786-2.56334,0l-5.01934,5.019c-.70766,.70786-.70766,1.85548,0,2.56341l20.8486,20.84854c.70792,.70786,.70792,1.85548,0,2.56341l-20.8486,20.84847c-.70766,.70792-.70766,1.85555,0,2.56341l5.01934,5.01914c.70766,.70792,1.85542,.70792,2.56334,0l28.43101-28.43101c.70766-.70792,.70766-1.85555,0-2.56341Z"/>
      <path class="cls-9" d="M1548.33445,279.17882c-.39341,.9206,.03408,1.98564,.95454,2.37891l6.23258,2.6627c.92046,.39328,1.98557-.03422,2.37898-.95474l10.67736-24.99263h-11.31202l-8.93144,20.90576Z"/>
    </g>
    <g>
      <path class="cls-9" d="M1417.03306,316.546h-10.12276v-2.17551h3.76274v-12.42036l-3.86263,1.04335v-2.2865l6.47102-1.69823v15.36173h3.75164v2.17551Z"/>
      <path class="cls-9" d="M1426.20126,316.546v-17.19315h5.37217c1.62053,0,2.89882,.35888,3.83488,1.07665s1.40409,1.68343,1.40409,2.89697c0,.94716-.28489,1.77962-.85466,2.49739s-1.32084,1.22095-2.2532,1.50953v.0444c1.16915,.13319,2.11076,.57348,2.82483,1.32084,.71407,.74737,1.0711,1.69453,1.0711,2.84148,0,1.49473-.53463,2.70273-1.60388,3.62399s-2.48074,1.38189-4.23447,1.38189h-5.56086Zm2.66388-15.00655v5.02808h1.93132c1.01376,0,1.80182-.24419,2.3642-.73257s.84356-1.15805,.84356-2.00901c0-1.52433-1.04335-2.2865-3.13006-2.2865h-2.00901Zm0,7.22579v5.59416h2.50849c1.08775,0,1.93132-.25159,2.53069-.75477s.89906-1.20245,.89906-2.09781c0-1.82772-1.23205-2.74158-3.69614-2.74158h-2.2421Z"/>
      <path class="cls-9" d="M1454.79361,316.546h-2.93027l-1.60943-4.47311h-6.8817l-1.53173,4.47311h-2.93027l6.48212-17.19315h2.96357l6.43772,17.19315Zm-5.28337-6.68191l-2.3975-6.7818c-.0888-.24419-.17759-.67707-.26639-1.29864h-.0777c-.0666,.51058-.15909,.93606-.27749,1.27644l-2.3864,6.804h5.40546Z"/>
      <path class="cls-9" d="M1468.7901,315.86893c-1.27274,.64377-2.87477,.96566-4.80609,.96566-2.48629,0-4.47865-.78252-5.97709-2.34755-1.49843-1.56503-2.24765-3.63139-2.24765-6.19908,0-2.67868,.83061-4.88564,2.49184-6.62086,1.66123-1.73522,3.80158-2.60284,6.42107-2.60284,1.65013,0,3.02277,.22939,4.11792,.68817v2.69718c-1.21355-.68077-2.55659-1.02116-4.02912-1.02116-1.87212,0-3.37425,.61602-4.5064,1.84807-1.13215,1.23205-1.69823,2.84333-1.69823,4.83384,0,1.90172,.53093,3.44085,1.59278,4.6174,1.06185,1.17655,2.48444,1.76482,4.26776,1.76482,1.65753,0,3.11526-.38108,4.37321-1.14325v2.51959Z"/>
      <path class="cls-9" d="M1484.8844,316.546h-3.54075l-6.06034-7.72526c-.22199-.28119-.37368-.52168-.45508-.72147h-.0555v8.44673h-2.66388v-17.19315h2.66388v8.10265h.0555c.1036-.20719,.25899-.44768,.46618-.72147l5.82725-7.38118h3.24106l-6.8817,8.23584,7.40338,8.95731Z"/>
      <path class="cls-9" d="M1502.15525,316.546h-9.52339v-17.19315h9.1349v2.2865h-6.47102v5.06138h6.00484v2.2754h-6.00484v5.28337h6.8595v2.2865Z"/>
      <path class="cls-9" d="M1519.70359,316.546h-2.97467l-8.22474-12.67565c-.30339-.46618-.52538-.86946-.66597-1.20985h-.0666c.0666,.44398,.0999,1.28014,.0999,2.50849v11.377h-2.58619v-17.19315h3.15226l7.98055,12.43146c.37738,.59197,.62897,1.00266,.75477,1.23205h.0555c-.0814-.53278-.12209-1.35414-.12209-2.46409v-11.19941h2.59729v17.19315Z"/>
      <path class="cls-9" d="M1524.0102,316.546v-17.19315h5.21677c6.06774,0,9.1016,2.79338,9.1016,8.38013,0,2.68608-.86391,4.82644-2.59174,6.42107s-3.94218,2.39195-6.64306,2.39195h-5.08358Zm2.66388-14.90665v12.62015h2.342c2.02751,0,3.62029-.56793,4.77834-1.70378s1.73707-2.72493,1.73707-4.76724c0-2.00531-.55128-3.5315-1.65383-4.57855s-2.70088-1.57058-4.79499-1.57058h-2.4086Z"/>
      <path class="cls-9" d="M1556.74267,316.546h-9.52339v-17.19315h9.1349v2.2865h-6.47102v5.06138h6.00484v2.2754h-6.00484v5.28337h6.8595v2.2865Z"/>
      <path class="cls-9" d="M1574.29101,316.546h-2.97467l-8.22474-12.67565c-.30339-.46618-.52538-.86946-.66597-1.20985h-.0666c.0666,.44398,.0999,1.28014,.0999,2.50849v11.377h-2.58619v-17.19315h3.15226l7.98055,12.43146c.37738,.59197,.62897,1.00266,.75477,1.23205h.0555c-.0814-.53278-.12209-1.35414-.12209-2.46409v-11.19941h2.59729v17.19315Z"/>
      <path class="cls-9" d="M1591.89484,315.38055c-1.71673,.96936-3.69614,1.45404-5.93824,1.45404-2.56769,0-4.6211-.78067-6.16023-2.342-1.53913-1.56133-2.3087-3.66284-2.3087-6.30453,0-2.67128,.85281-4.85974,2.55844-6.56536s3.90148-2.55844,6.58756-2.55844c1.84992,0,3.43345,.28489,4.75059,.85466v2.73048c-1.35414-.83616-2.99317-1.25425-4.91709-1.25425-1.81292,0-3.29656,.61047-4.45091,1.83142s-1.73152,2.82298-1.73152,4.80609c0,2.04231,.53093,3.63509,1.59278,4.77834s2.49924,1.71488,4.31216,1.71488c1.19875,0,2.2088-.22199,3.03017-.66597v-4.30661h-3.65174v-2.2643h6.32672v8.09155Z"/>
      <path class="cls-9" d="M1598.31036,301.52835v15.01765h-2.66388v-17.19315h2.66388v2.17551Z"/>
      <path class="cls-9" d="M1617.04635,316.546h-2.97467l-8.22474-12.67565c-.30339-.46618-.52538-.86946-.66597-1.20985h-.0666c.0666,.44398,.0999,1.28014,.0999,2.50849v11.377h-2.58619v-17.19315h3.15226l7.98055,12.43146c.37738,.59197,.62897,1.00266,.75477,1.23205h.0555c-.0814-.53278-.12209-1.35414-.12209-2.46409v-11.19941h2.59729v17.19315Z"/>
      <path class="cls-9" d="M1630.87634,316.546h-9.52339v-17.19315h9.1349v2.2865h-6.47102v5.06138h6.00484v2.2754h-6.00484v5.28337h6.8595v2.2865Z"/>
      <path class="cls-9" d="M1643.52979,316.546h-9.52339v-17.19315h9.1349v2.2865h-6.47102v5.06138h6.00484v2.2754h-6.00484v5.28337h6.8595v2.2865Z"/>
      <path class="cls-9" d="M1659.71289,316.546h-3.11896l-2.79708-4.684c-.54758-.91756-1.0452-1.54283-1.49288-1.87582s-.96011-.49948-1.53728-.49948h-1.44294v7.05929h-2.66388v-17.19315h5.47206c1.78332,0,3.16151,.40143,4.13457,1.2043s1.45959,1.94057,1.45959,3.4131c0,1.15435-.33669,2.14221-1.01006,2.96357-.67337,.82136-1.61313,1.39484-2.81928,1.72043v.0444c.76957,.26639,1.63163,1.16915,2.58619,2.70828l3.22996,5.13908Zm-10.38915-14.99545v5.72735h2.3642c.98416,0,1.77037-.28489,2.35865-.85466,.58827-.56978,.88241-1.29494,.88241-2.17551,0-1.79812-1.06555-2.69718-3.19666-2.69718h-2.4086Z"/>
    </g>
  </g>
</svg>