<?xml version="1.0" encoding="UTF-8"?>
<svg id="_圖層_1" data-name="圖層 1" xmlns="http://www.w3.org/2000/svg" xmlns:xlink="http://www.w3.org/1999/xlink" viewBox="0 0 1742.52522 410.25391">
  <defs>
    <style>
      .cls-1 {
        fill: #fff;
      }

      .cls-2 {
        fill: url(#_未命名漸層_16);
        filter: url(#drop-shadow-1);
      }

      .cls-2, .cls-3, .cls-4 {
        stroke: #fff;
        stroke-width: 1.33105px;
      }

      .cls-2, .cls-3, .cls-4, .cls-5 {
        stroke-miterlimit: 10;
      }

      .cls-6 {
        filter: url(#drop-shadow-4);
      }

      .cls-3 {
        fill: url(#_未命名漸層_16-3);
        filter: url(#drop-shadow-7);
      }

      .cls-7 {
        filter: url(#drop-shadow-8);
      }

      .cls-4 {
        fill: url(#_未命名漸層_16-2);
        filter: url(#drop-shadow-5);
      }

      .cls-8 {
        filter: url(#drop-shadow-6);
      }

      .cls-9, .cls-5 {
        fill: #3da39c;
      }

      .cls-10 {
        filter: url(#drop-shadow-2);
      }

      .cls-11 {
        fill: none;
      }

      .cls-5 {
        filter: url(#drop-shadow-3);
        stroke: #71c5c0;
      }
    </style>
    <radialGradient id="_未命名漸層_16" data-name="未命名漸層 16" cx="168.98759" cy="158.00345" fx="168.98759" fy="158.00345" r="196.1749" gradientUnits="userSpaceOnUse">
      <stop offset="0" stop-color="#fff"/>
      <stop offset=".96977" stop-color="#d1d1d1"/>
    </radialGradient>
    <filter id="drop-shadow-1" filterUnits="userSpaceOnUse">
      <feOffset dx="4.13504" dy="4.13504"/>
      <feGaussianBlur result="blur" stdDeviation="4.96204"/>
      <feFlood flood-color="#6d6d6d" flood-opacity=".75"/>
      <feComposite in2="blur" operator="in"/>
      <feComposite in="SourceGraphic"/>
    </filter>
    <filter id="drop-shadow-2" filterUnits="userSpaceOnUse">
      <feOffset dx="2.08468" dy="2.08468"/>
      <feGaussianBlur result="blur-2" stdDeviation="3.47446"/>
      <feFlood flood-color="#767777" flood-opacity=".75"/>
      <feComposite in2="blur-2" operator="in"/>
      <feComposite in="SourceGraphic"/>
    </filter>
    <filter id="drop-shadow-3" filterUnits="userSpaceOnUse">
      <feOffset dx="4.13504" dy="4.13504"/>
      <feGaussianBlur result="blur-3" stdDeviation="4.96204"/>
      <feFlood flood-color="#6d6d6d" flood-opacity=".75"/>
      <feComposite in2="blur-3" operator="in"/>
      <feComposite in="SourceGraphic"/>
    </filter>
    <filter id="drop-shadow-4" filterUnits="userSpaceOnUse">
      <feOffset dx="2.08468" dy="2.08468"/>
      <feGaussianBlur result="blur-4" stdDeviation="3.47446"/>
      <feFlood flood-color="#767777" flood-opacity=".75"/>
      <feComposite in2="blur-4" operator="in"/>
      <feComposite in="SourceGraphic"/>
    </filter>
    <radialGradient id="_未命名漸層_16-2" data-name="未命名漸層 16" cx="1057.23452" cy="158.00345" fx="1057.23452" fy="158.00345" r="196.1749" xlink:href="#_未命名漸層_16"/>
    <filter id="drop-shadow-5" filterUnits="userSpaceOnUse">
      <feOffset dx="4.13504" dy="4.13504"/>
      <feGaussianBlur result="blur-5" stdDeviation="4.96204"/>
      <feFlood flood-color="#6d6d6d" flood-opacity=".75"/>
      <feComposite in2="blur-5" operator="in"/>
      <feComposite in="SourceGraphic"/>
    </filter>
    <filter id="drop-shadow-6" filterUnits="userSpaceOnUse">
      <feOffset dx="2.08468" dy="2.08468"/>
      <feGaussianBlur result="blur-6" stdDeviation="3.47446"/>
      <feFlood flood-color="#767777" flood-opacity=".75"/>
      <feComposite in2="blur-6" operator="in"/>
      <feComposite in="SourceGraphic"/>
    </filter>
    <radialGradient id="_未命名漸層_16-3" data-name="未命名漸層 16" cx="1501.35798" fx="1501.35798" r="196.1749" xlink:href="#_未命名漸層_16"/>
    <filter id="drop-shadow-7" filterUnits="userSpaceOnUse">
      <feOffset dx="4.13504" dy="4.13504"/>
      <feGaussianBlur result="blur-7" stdDeviation="4.96204"/>
      <feFlood flood-color="#6d6d6d" flood-opacity=".75"/>
      <feComposite in2="blur-7" operator="in"/>
      <feComposite in="SourceGraphic"/>
    </filter>
    <filter id="drop-shadow-8" filterUnits="userSpaceOnUse">
      <feOffset dx="2.08468" dy="2.08468"/>
      <feGaussianBlur result="blur-8" stdDeviation="3.47446"/>
      <feFlood flood-color="#767777" flood-opacity=".75"/>
      <feComposite in2="blur-8" operator="in"/>
      <feComposite in="SourceGraphic"/>
    </filter>
  </defs>
  <g>
    <circle class="cls-2" cx="201.01972" cy="200.97337" r="186.72385"/>
    <g class="cls-10">
      <path class="cls-9" d="M160.22465,177.37074h91.09302v-6.25384c0-3.39893-1.45879-6.63451-4.00549-8.88521l-10.50776-9.28513c-1.69816-1.50045-2.67068-3.65743-2.67068-5.92343v-24.38822h-.09607c-1.48777-23.13956-20.72355-41.44817-44.23908-41.44817s-42.75131,18.30861-44.23908,41.44817h-.09607v24.38822c0,2.266-.97252,4.42298-2.67068,5.92343l-10.50776,9.28513c-2.54724,2.2507-4.00549,5.48628-4.00549,8.88528v6.25378h31.94514Zm1.85005-58.80848h20.891l12.44959-12.44992,6.03158,6.03158h12.88969c3.06034,4.6374,4.84652,10.18976,4.84652,16.16176,0,16.22878-13.1559,29.38488-29.38448,29.38488s-29.38502-13.1561-29.38502-29.38488c0-3.41631,.58931-6.69355,1.66113-9.74341Z"/>
      <g>
        <path class="cls-9" d="M288.30554,212.60242l-9.16205-9.16215c-2.85795-2.8579-7.49321-2.8579-10.35116,0l-8.61932,8.61953,19.513,19.51321,8.61953-8.61953c2.85795-2.85795,2.85795-7.49159,0-10.35105Z"/>
        <path class="cls-9" d="M233.22917,222.45205c-3.10825,.87848-5.58012,3.2385-6.60153,6.30264l-14.21947,42.6571,2.2391,2.2391,22.8803-22.88025c-.45595-.95415-.7317-2.00893-.7317-3.13682,0-4.04075,3.27553-7.31633,7.31633-7.31633,4.0406,0,7.31633,3.27558,7.31633,7.31633s-3.27574,7.31628-7.31633,7.31628c-1.128,0-2.18278-.2759-3.13703-.73164l-22.88009,22.88019,2.2391,2.2391,42.65715-14.21947c3.06403-1.02146,5.4241-3.49328,6.30264-6.60148l6.52206-23.07683-19.51008-19.51013-23.07678,6.52222Z"/>
        <path class="cls-9" d="M227.33199,214.57318l33.90468-9.5824c-8.22646-13.56924-23.13527-22.64136-40.1547-22.64136h-3.45536l-26.17655,26.17615-25.45038-25.45038c-.55496-.23495-1.1067-.47559-1.65361-.72577h-5.83085c-25.90658,0-46.92479,21.01834-46.92479,46.92479v14.52438c0,9.25226,7.50646,16.75885,16.75885,16.75885h76.88007l12.1662-36.49733c1.53741-4.61224,5.25817-8.16454,9.93643-9.48693Z"/>
      </g>
    </g>
    <g>
      <path class="cls-9" d="M85.06105,316.58953h-10.12276v-2.17551h3.76274v-12.42036l-3.86263,1.04335v-2.2865l6.47102-1.69823v15.36173h3.75164v2.17551Z"/>
      <path class="cls-9" d="M96.89314,310.2961v6.29343h-2.66388v-17.19315h5.19457c1.94612,0,3.43715,.44953,4.47311,1.34859s1.55393,2.20325,1.55393,3.91258c0,1.72412-.61787,3.10971-1.85362,4.15677s-2.76378,1.54098-4.5841,1.48179h-2.12001Zm0-8.66872v6.44882h1.90912c2.56769,0,3.85153-1.10255,3.85153-3.30766,0-2.09411-1.23205-3.14116-3.69614-3.14116h-2.06451Z"/>
      <path class="cls-9" d="M121.50077,316.58953h-3.11896l-2.79708-4.684c-.54758-.91756-1.0452-1.54283-1.49288-1.87582s-.96011-.49948-1.53728-.49948h-1.44294v7.05929h-2.66388v-17.19315h5.47206c1.78332,0,3.16151,.40143,4.13457,1.2043s1.45959,1.94057,1.45959,3.4131c0,1.15435-.33669,2.14221-1.01006,2.96357s-1.61313,1.39484-2.81928,1.72043v.0444c.76957,.26639,1.63163,1.16915,2.58619,2.70828l3.22996,5.13908Zm-10.38915-14.99545v5.72735h2.3642c.98416,0,1.77037-.28489,2.35865-.85466s.88241-1.29494,.88241-2.17551c0-1.79812-1.06555-2.69718-3.19666-2.69718h-2.4086Z"/>
      <path class="cls-9" d="M122.24443,308.20939c0-2.71568,.76032-4.91154,2.28095-6.58756s3.57219-2.51404,6.15468-2.51404c2.41969,0,4.36211,.81396,5.82725,2.44189s2.1977,3.71464,2.1977,6.26013c0,2.70088-.74737,4.88749-2.2421,6.55981s-3.51485,2.50849-6.06034,2.50849c-2.42709,0-4.39356-.80656-5.89939-2.41969s-2.25875-3.69614-2.25875-6.24903Zm2.79708-.18869c0,1.89432,.48468,3.4538,1.45404,4.67845s2.2791,1.83697,3.92923,1.83697c1.73152,0,3.07827-.58272,4.04022-1.74817s1.44294-2.73973,1.44294-4.72284c0-2.02751-.46433-3.63324-1.39299-4.81719s-2.25135-1.77592-3.96808-1.77592c-1.67233,0-3.00797,.61417-4.00693,1.84252s-1.49843,2.79708-1.49843,4.70619Z"/>
      <path class="cls-9" d="M141.77252,316.58953v-17.19315h5.21677c6.06774,0,9.1016,2.79338,9.1016,8.38013,0,2.68608-.86391,4.82644-2.59174,6.42107s-3.94218,2.39195-6.64306,2.39195h-5.08358Zm2.66388-14.90665v12.62015h2.342c2.02751,0,3.62029-.56793,4.77834-1.70378s1.73707-2.72493,1.73707-4.76724c0-2.00531-.55128-3.5315-1.65383-4.57855s-2.70088-1.57058-4.79499-1.57058h-2.4086Z"/>
      <path class="cls-9" d="M172.38498,309.46364c0,4.94298-2.2606,7.41448-6.7818,7.41448-4.33621,0-6.50432-2.3901-6.50432-7.17029v-10.31145h2.66388v10.24485c0,3.26326,1.34674,4.89489,4.04022,4.89489,2.61209,0,3.91813-1.57613,3.91813-4.72839v-10.41135h2.66388v10.06726Z"/>
      <path class="cls-9" d="M188.40159,315.91246c-1.27274,.64377-2.87477,.96566-4.80609,.96566-2.48629,0-4.47865-.78252-5.97709-2.34755s-2.24765-3.63139-2.24765-6.19908c0-2.67868,.83061-4.88564,2.49184-6.62086s3.80158-2.60284,6.42107-2.60284c1.65013,0,3.02277,.22939,4.11792,.68817v2.69718c-1.21355-.68077-2.55659-1.02116-4.02912-1.02116-1.87212,0-3.37425,.61602-4.5064,1.84807s-1.69823,2.84333-1.69823,4.83384c0,1.90172,.53093,3.44085,1.59278,4.6174s2.48444,1.76482,4.26776,1.76482c1.65753,0,3.11526-.38108,4.37321-1.14325v2.51959Z"/>
      <path class="cls-9" d="M202.55347,301.68288h-4.93928v14.90665h-2.67498v-14.90665h-4.92819v-2.2865h12.54245v2.2865Z"/>
      <path class="cls-9" d="M226.40633,316.58953v-11.09952c0-.96936,.0518-2.12001,.15539-3.45195h-.0666c-.22199,.95456-.39588,1.57983-.52168,1.87582l-5.22787,12.67565h-1.74262l-5.25007-12.57575c-.13319-.31819-.30709-.97676-.52168-1.97571h-.0666c.074,1.03595,.111,2.2865,.111,3.75164v10.79983h-2.47519v-17.19315h3.71834l4.6507,11.35481c.36258,.88796,.60307,1.62423,.72147,2.2088h.0777c.14059-.46618,.39958-1.21355,.77697-2.2421l4.72839-11.32151h3.57404v17.19315h-2.64168Z"/>
      <path class="cls-9" d="M247.29562,316.58953h-2.93027l-1.60943-4.47311h-6.8817l-1.53173,4.47311h-2.93027l6.48212-17.19315h2.96357l6.43772,17.19315Zm-5.28337-6.68191l-2.3975-6.7818c-.0888-.24419-.17759-.67707-.26639-1.29864h-.0777c-.0666,.51058-.15909,.93606-.27749,1.27644l-2.3864,6.804h5.40546Z"/>
      <path class="cls-9" d="M264.11139,316.58953h-2.97467l-8.22474-12.67565c-.30339-.46618-.52538-.86946-.66597-1.20985h-.0666c.0666,.44398,.0999,1.28014,.0999,2.50849v11.377h-2.58619v-17.19315h3.15226l7.98055,12.43146c.37738,.59197,.62897,1.00266,.75477,1.23205h.0555c-.0814-.53278-.12209-1.35414-.12209-2.46409v-11.19941h2.59729v17.19315Z"/>
      <path class="cls-9" d="M282.35899,316.58953h-2.93027l-1.60943-4.47311h-6.8817l-1.53173,4.47311h-2.93027l6.48212-17.19315h2.96357l6.43772,17.19315Zm-5.28337-6.68191l-2.3975-6.7818c-.0888-.24419-.17759-.67707-.26639-1.29864h-.0777c-.0666,.51058-.15909,.93606-.27749,1.27644l-2.3864,6.804h5.40546Z"/>
      <path class="cls-9" d="M297.73182,315.42408c-1.71673,.96936-3.69614,1.45404-5.93824,1.45404-2.56769,0-4.6211-.78067-6.16023-2.342s-2.3087-3.66284-2.3087-6.30453c0-2.67128,.85281-4.85974,2.55844-6.56536s3.90148-2.55844,6.58756-2.55844c1.84992,0,3.43345,.28489,4.75059,.85466v2.73048c-1.35414-.83616-2.99317-1.25425-4.91709-1.25425-1.81292,0-3.29656,.61047-4.45091,1.83142s-1.73152,2.82298-1.73152,4.80609c0,2.04231,.53093,3.63509,1.59278,4.77834s2.49924,1.71488,4.31216,1.71488c1.19875,0,2.2088-.22199,3.03017-.66597v-4.30661h-3.65174v-2.2643h6.32672v8.09155Z"/>
      <path class="cls-9" d="M311.01794,316.58953h-9.52339v-17.19315h9.1349v2.2865h-6.47102v5.06138h6.00484v2.2754h-6.00484v5.28337h6.8595v2.2865Z"/>
      <path class="cls-9" d="M327.20104,316.58953h-3.11896l-2.79708-4.684c-.54758-.91756-1.0452-1.54283-1.49288-1.87582s-.96011-.49948-1.53728-.49948h-1.44294v7.05929h-2.66388v-17.19315h5.47206c1.78332,0,3.16151,.40143,4.13457,1.2043s1.45959,1.94057,1.45959,3.4131c0,1.15435-.33669,2.14221-1.01006,2.96357s-1.61313,1.39484-2.81928,1.72043v.0444c.76957,.26639,1.63163,1.16915,2.58619,2.70828l3.22996,5.13908Zm-10.38915-14.99545v5.72735h2.3642c.98416,0,1.77037-.28489,2.35865-.85466s.88241-1.29494,.88241-2.17551c0-1.79812-1.06555-2.69718-3.19666-2.69718h-2.4086Z"/>
    </g>
  </g>
  <g>
    <circle class="cls-5" cx="645.14318" cy="200.97337" r="186.72385"/>
    <g class="cls-6">
      <path class="cls-1" d="M584.74503,152.91401l30.72036,12.64119,.01395-.05032c4.96352,1.90117,10.34782,2.95299,15.98008,2.95299,5.63119,0,11.01442-1.05129,15.97579-2.95165l.01503,.04898,30.72036-12.64119-4.01461-5.73491,12.90365-6.02165c-9.31948-9.31921-11.21944-22.65283-11.21944-22.65283l-.00859,.00228c-2.6052-22.20293-21.46851-39.42966-44.37218-39.42966s-41.76805,17.22724-44.37218,39.4306l-.01288-.00322s-1.89996,13.33362-11.21837,22.65283l12.90365,6.02165-4.01461,5.73491Zm17.17266-39.4513h2.50752s15.80726-3.87104,21.50608-15.05409c0,0,6.34394,21.18324,17.09752,26.45219h19.77357c-.47767,16.90125-14.31627,30.45465-31.33329,30.45465-17.31972,0-31.3569-14.03702-31.3569-31.3567,0-3.68239,.63976-7.21382,1.8055-10.49605Z"/>
      <path class="cls-1" d="M651.1761,219.56426c-2.80781-2.80781-2.80781-7.36048,0-10.16836l16.27823-16.27843c2.80808-2.80788,7.36048-2.80788,10.16829,0l22.16892,22.16885,7.97153-7.97153c-5.71277-19.47254-23.70714-33.70589-45.02214-33.70589h-5.83085c-7.75094,3.56122-16.37484,5.58624-25.45253,5.58624s-17.66643-2.02502-25.45253-5.58624h-5.83058c-25.90658,0-46.92506,21.01834-46.92506,46.92479v14.52438c0,9.25226,7.50673,16.75885,16.75912,16.75885h79.65729c1.34205-2.93193,3.2133-5.6811,5.62716-8.09504,3.65984-3.65991,8.08531-6.08424,12.76061-7.2801l-16.87747-16.87753Z"/>
      <path class="cls-1" d="M735.08952,259.26872l-22.33557-22.33543,22.77755-22.77728c2.00731-2.00731,2.00731-5.26193,0-7.26944l-7.23784-7.23777c-2.00731-2.00724-5.2622-2.00737-7.26924,0l-22.77755,22.77728-21.95289-21.95282c-2.00731-2.00737-5.26193-2.00737-7.26924,0l-10.14548,10.14555c-2.00731,2.00737-2.00731,5.26207,0,7.26937l58.79822,58.79835c.46479,.46473,1.0898,.73382,1.74673,.7518l14.12735,.38777c1.47167,.04039,2.67605-1.16104,2.64009-2.63258l-.35021-14.17096c-.01637-.65949-.28553-1.28744-.75193-1.75384Z"/>
      <path class="cls-1" d="M659.5598,247.45959c-3.62898,3.62898-5.56303,8.31039-5.80508,13.06157h-.01395l-.00027,.4705c-.00993,.36543-.00993,.7308,.00027,1.0963v13.39044c0,3.2922,2.66907,5.96127,5.96154,5.96133l13.39018-.00007c.3655,.01,.73073,.01013,1.09624,.00007l.47043-.00007v-.01422c5.03946-.25641,9.99976-2.41668,13.70979-6.48362,3.3303-3.65072,5.04564-8.29476,5.14627-12.97094l-20.33524-20.33544c-4.94151,.11271-9.84895,2.05293-13.62016,5.82414Z"/>
    </g>
    <g>
      <path class="cls-1" d="M556.24127,316.58953h-10.12276v-2.17551h3.76274v-12.42036l-3.86263,1.04335v-2.2865l6.47102-1.69823v15.36173h3.75164v2.17551Z"/>
      <path class="cls-1" d="M578.49581,309.46364c0,4.94298-2.2606,7.41448-6.7818,7.41448-4.33621,0-6.50432-2.3901-6.50432-7.17029v-10.31145h2.66388v10.24485c0,3.26326,1.34674,4.89489,4.04022,4.89489,2.61209,0,3.91813-1.57613,3.91813-4.72839v-10.41135h2.66388v10.06726Z"/>
      <path class="cls-1" d="M585.24431,301.57188v15.01765h-2.66388v-17.19315h2.66388v2.17551Z"/>
      <path class="cls-1" d="M608.33131,309.46364c0,4.94298-2.2606,7.41448-6.7818,7.41448-4.33621,0-6.50432-2.3901-6.50432-7.17029v-10.31145h2.66388v10.24485c0,3.26326,1.34674,4.89489,4.04022,4.89489,2.61209,0,3.91813-1.57613,3.91813-4.72839v-10.41135h2.66388v10.06726Z"/>
      <path class="cls-1" d="M625.05828,316.58953h-3.20776l-3.60734-6.23793c-.11839-.19979-.24419-.51798-.37738-.95456h-.0555c-.0592,.19979-.19239,.52538-.39958,.97676l-3.68504,6.21573h-3.22996l5.66075-8.62432-5.19457-8.56883h3.26326l3.13006,5.73845c.22939,.42178,.42178,.85096,.57717,1.28754h.0444c.0592-.14799,.27009-.59567,.63267-1.34304l3.32985-5.68295h3.01907l-5.31667,8.52443,5.41656,8.66872Z"/>
      <path class="cls-1" d="M633.16092,316.58953v-17.19315h5.21677c6.06774,0,9.1016,2.79338,9.1016,8.38013,0,2.68608-.86391,4.82644-2.59174,6.42107s-3.94218,2.39195-6.64306,2.39195h-5.08358Zm2.66388-14.90665v12.62015h2.342c2.02751,0,3.62029-.56793,4.77834-1.70378s1.73707-2.72493,1.73707-4.76724c0-2.00531-.55128-3.5315-1.65383-4.57855s-2.70088-1.57058-4.79499-1.57058h-2.4086Z"/>
      <path class="cls-1" d="M660.21045,316.58953h-9.52339v-17.19315h9.1349v2.2865h-6.47102v5.06138h6.00484v2.2754h-6.00484v5.28337h6.8595v2.2865Z"/>
      <path class="cls-1" d="M662.54134,313.02658c1.31714,1.07295,2.86738,1.60943,4.6507,1.60943,2.2791,0,3.41865-.78067,3.41865-2.342,0-.45138-.12579-.85836-.37738-1.22095s-.59012-.67892-1.01561-.94901-1.26719-.70482-2.52514-1.30419c-1.54653-.73997-2.62689-1.49104-3.24106-2.2532s-.92126-1.65753-.92126-2.68608c0-1.47994,.58457-2.64538,1.75372-3.49635s2.66388-1.27644,4.4842-1.27644c1.72412,0,3.02647,.21089,3.90703,.63267v2.73048c-1.05815-.73257-2.379-1.09885-3.96253-1.09885-1.01376,0-1.83142,.20349-2.45299,.61047s-.93236,.96566-.93236,1.67603c0,.64377,.22754,1.17285,.68262,1.58723s1.41519,.96936,2.88032,1.66493c1.70933,.79917,2.88957,1.60018,3.54075,2.40305s.97676,1.72597,.97676,2.76933c0,1.55393-.56238,2.74158-1.68713,3.56294s-2.68238,1.23205-4.6729,1.23205c-.73257,0-1.54653-.0888-2.44189-.26639s-1.58353-.41438-2.06451-.71037v-2.87477Z"/>
      <path class="cls-1" d="M679.27942,301.57188v15.01765h-2.66388v-17.19315h2.66388v2.17551Z"/>
      <path class="cls-1" d="M696.89435,315.42408c-1.71673,.96936-3.69614,1.45404-5.93824,1.45404-2.56769,0-4.6211-.78067-6.16023-2.342s-2.3087-3.66284-2.3087-6.30453c0-2.67128,.85281-4.85974,2.55844-6.56536s3.90148-2.55844,6.58756-2.55844c1.84992,0,3.43345,.28489,4.75059,.85466v2.73048c-1.35414-.83616-2.99317-1.25425-4.91709-1.25425-1.81292,0-3.29656,.61047-4.45091,1.83142s-1.73152,2.82298-1.73152,4.80609c0,2.04231,.53093,3.63509,1.59278,4.77834s2.49924,1.71488,4.31216,1.71488c1.19875,0,2.2088-.22199,3.03017-.66597v-4.30661h-3.65174v-2.2643h6.32672v8.09155Z"/>
      <path class="cls-1" d="M715.07536,316.58953h-2.97467l-8.22474-12.67565c-.30339-.46618-.52538-.86946-.66597-1.20985h-.0666c.0666,.44398,.0999,1.28014,.0999,2.50849v11.377h-2.58619v-17.19315h3.15226l7.98055,12.43146c.37738,.59197,.62897,1.00266,.75477,1.23205h.0555c-.0814-.53278-.12209-1.35414-.12209-2.46409v-11.19941h2.59729v17.19315Z"/>
      <path class="cls-1" d="M728.08465,316.58953h-9.52339v-17.19315h9.1349v2.2865h-6.47102v5.06138h6.00484v2.2754h-6.00484v5.28337h6.8595v2.2865Z"/>
      <path class="cls-1" d="M744.26774,316.58953h-3.11896l-2.79708-4.684c-.54758-.91756-1.0452-1.54283-1.49288-1.87582s-.96011-.49948-1.53728-.49948h-1.44294v7.05929h-2.66388v-17.19315h5.47206c1.78332,0,3.16151,.40143,4.13457,1.2043s1.45959,1.94057,1.45959,3.4131c0,1.15435-.33669,2.14221-1.01006,2.96357s-1.61313,1.39484-2.81928,1.72043v.0444c.76957,.26639,1.63163,1.16915,2.58619,2.70828l3.22996,5.13908Zm-10.38915-14.99545v5.72735h2.3642c.98416,0,1.77037-.28489,2.35865-.85466s.88241-1.29494,.88241-2.17551c0-1.79812-1.06555-2.69718-3.19666-2.69718h-2.4086Z"/>
    </g>
  </g>
  <g>
    <circle class="cls-4" cx="1089.26664" cy="200.97337" r="186.72385"/>
    <g class="cls-8">
      <path class="cls-9" d="M1014.66388,145.98134h17.88622c7.90631,12.7421,22.02025,21.22913,38.11894,21.22913s30.21236-8.48704,38.11868-21.22913h17.88622c3.98858,0,7.22201-3.23343,7.22201-7.22201v-26.163c0-3.98858-3.23343-7.22214-7.22201-7.22214h-14.51486c-6.69871-16.32653-22.75018-27.82641-41.49004-27.82641s-34.79186,11.49987-41.49057,27.82641h-14.51459c-3.98858,0-7.22201,3.23356-7.22201,7.22214v26.163c0,3.98858,3.23343,7.22201,7.22201,7.22201Zm27.05837-26.07216h17.27329l11.67323-26.55118,11.6735,26.55118h17.27329c.0687,.815,.1119,1.63724,.1119,2.46995,0,16.04851-13.00992,29.05843-29.05843,29.05843s-29.0587-13.00992-29.0587-29.05843c0-.83271,.04347-1.65495,.1119-2.46995Z"/>
      <path class="cls-9" d="M1101.95215,178.67506h-5.83085c-7.75094,3.56122-16.37484,5.58624-25.45253,5.58624s-17.6667-2.02502-25.45253-5.58624h-5.83058c-25.90658,0-46.92479,21.01834-46.92479,46.92479v14.52438c0,9.25226,7.50646,16.75885,16.75885,16.75885h67.81257l-11.76528-11.76528c-.70792-.70786-.70792-1.85555,0-2.56334l28.43101-28.43115c.70792-.70779,1.85568-.70779,2.56334,0l5.01934,5.0192c.70766,.70786,.70766,1.85548,0,2.56334l-20.8486,20.8486c-.70792,.70779-.70792,1.85548,0,2.56334l11.76528,11.76528h21.06275l21.82542-51.08673c.39314-.9206,1.45825-1.34802,2.37898-.95474l6.23231,2.6627c.92073,.39328,1.34822,1.45838,.95481,2.37891l-20.07949,46.99986h7.54591c9.25239,0,16.75885-7.5066,16.75885-16.75885v-14.52438c0-25.90645-21.01847-46.92479-46.92479-46.92479Zm-31.28337,49.7008c-3.08798,0-5.59147-2.50336-5.59147-5.59147s2.5035-5.59147,5.59147-5.59147c3.08824,0,5.59174,2.50336,5.59174,5.59147s-2.5035,5.59147-5.59174,5.59147Zm0-20.93233c-3.08798,0-5.59147-2.50336-5.59147-5.59147s2.5035-5.59147,5.59147-5.59147c3.08824,0,5.59174,2.50336,5.59174,5.59147s-2.5035,5.59147-5.59174,5.59147Z"/>
      <path class="cls-9" d="M1093.69805,273.54876c.70792,.70786,1.85568,.70786,2.56334,0l5.01934-5.019c.70766-.70786,.70766-1.85555,0-2.56341l-9.08333-9.08326h-15.16509l16.66573,16.66567Z"/>
      <path class="cls-9" d="M1185.54166,242.55427l-28.43101-28.43095c-.70792-.70779-1.85568-.70779-2.56361,0l-5.01907,5.01907c-.70766,.70779-.70766,1.85548,0,2.56334l20.8486,20.84854c.70792,.70786,.70792,1.85548,0,2.56341l-20.8486,20.84854c-.70766,.70786-.70792,1.85548,0,2.56341l5.01907,5.01907c.70792,.70792,1.85568,.70792,2.56361,0l28.43101-28.43101c.70766-.70792,.70766-1.85555,0-2.56341Z"/>
      <path class="cls-9" d="M1104.32871,277.78885c-.39341,.9206,.03408,1.9857,.95454,2.37898l6.23258,2.66263c.92046,.39328,1.98557-.03415,2.37898-.95468l10.67736-24.9927h-11.31202l-8.93144,20.90576Z"/>
    </g>
    <g>
      <path class="cls-9" d="M964.49143,316.58953h-10.12276v-2.17551h3.76274v-12.42036l-3.86263,1.04335v-2.2865l6.47102-1.69823v15.36173h3.75164v2.17551Z"/>
      <path class="cls-9" d="M982.80563,301.68288h-6.48212v5.33887h5.98264v2.2754h-5.98264v7.29238h-2.66388v-17.19315h9.146v2.2865Z"/>
      <path class="cls-9" d="M998.97763,316.58953h-3.11896l-2.79708-4.684c-.54758-.91756-1.0452-1.54283-1.49288-1.87582s-.96011-.49948-1.53728-.49948h-1.44294v7.05929h-2.66388v-17.19315h5.47206c1.78332,0,3.16151,.40143,4.13457,1.2043s1.45959,1.94057,1.45959,3.4131c0,1.15435-.33669,2.14221-1.01006,2.96357s-1.61313,1.39484-2.81928,1.72043v.0444c.76957,.26639,1.63163,1.16915,2.58619,2.70828l3.22996,5.13908Zm-10.38915-14.99545v5.72735h2.3642c.98416,0,1.77037-.28489,2.35865-.85466s.88241-1.29494,.88241-2.17551c0-1.79812-1.06555-2.69718-3.19666-2.69718h-2.4086Z"/>
      <path class="cls-9" d="M999.72129,308.20939c0-2.71568,.76032-4.91154,2.28095-6.58756s3.57219-2.51404,6.15468-2.51404c2.41969,0,4.36211,.81396,5.82725,2.44189s2.1977,3.71464,2.1977,6.26013c0,2.70088-.74737,4.88749-2.2421,6.55981s-3.51485,2.50849-6.06034,2.50849c-2.42709,0-4.39356-.80656-5.89939-2.41969s-2.25875-3.69614-2.25875-6.24903Zm2.79708-.18869c0,1.89432,.48468,3.4538,1.45404,4.67845s2.2791,1.83697,3.92923,1.83697c1.73152,0,3.07827-.58272,4.04022-1.74817s1.44294-2.73973,1.44294-4.72284c0-2.02751-.46433-3.63324-1.39299-4.81719-.92866-1.18395-2.25135-1.77592-3.96808-1.77592-1.67233,0-3.00797,.61417-4.00693,1.84252s-1.49843,2.79708-1.49843,4.70619Z"/>
      <path class="cls-9" d="M1033.79681,316.58953h-2.97467l-8.22474-12.67565c-.30339-.46618-.52538-.86946-.66597-1.20985h-.0666c.0666,.44398,.0999,1.28014,.0999,2.50849v11.377h-2.58619v-17.19315h3.15226l7.98055,12.43146c.37738,.59197,.62897,1.00266,.75477,1.23205h.0555c-.0814-.53278-.12209-1.35414-.12209-2.46409v-11.19941h2.59729v17.19315Z"/>
      <path class="cls-9" d="M1048.93655,301.68288h-4.93928v14.90665h-2.67498v-14.90665h-4.92819v-2.2865h12.54245v2.2865Z"/>
      <path class="cls-9" d="M1066.70688,316.58953h-9.52339v-17.19315h9.1349v2.2865h-6.47102v5.06138h6.00484v2.2754h-6.00484v5.28337h6.8595v2.2865Z"/>
      <path class="cls-9" d="M1084.25521,316.58953h-2.97467l-8.22474-12.67565c-.30339-.46618-.52538-.86946-.66597-1.20985h-.0666c.0666,.44398,.0999,1.28014,.0999,2.50849v11.377h-2.58619v-17.19315h3.15226l7.98055,12.43146c.37738,.59197,.62897,1.00266,.75477,1.23205h.0555c-.0814-.53278-.12209-1.35414-.12209-2.46409v-11.19941h2.59729v17.19315Z"/>
      <path class="cls-9" d="M1088.56182,316.58953v-17.19315h5.21677c6.06774,0,9.1016,2.79338,9.1016,8.38013,0,2.68608-.86391,4.82644-2.59174,6.42107-1.72782,1.59463-3.94218,2.39195-6.64306,2.39195h-5.08358Zm2.66388-14.90665v12.62015h2.342c2.02751,0,3.62029-.56793,4.77834-1.70378s1.73707-2.72493,1.73707-4.76724c0-2.00531-.55128-3.5315-1.65383-4.57855s-2.70088-1.57058-4.79499-1.57058h-2.4086Z"/>
      <path class="cls-9" d="M1121.2943,316.58953h-9.52339v-17.19315h9.1349v2.2865h-6.47102v5.06138h6.00484v2.2754h-6.00484v5.28337h6.8595v2.2865Z"/>
      <path class="cls-9" d="M1138.84263,316.58953h-2.97467l-8.22474-12.67565c-.30339-.46618-.52538-.86946-.66597-1.20985h-.0666c.0666,.44398,.0999,1.28014,.0999,2.50849v11.377h-2.58619v-17.19315h3.15226l7.98055,12.43146c.37738,.59197,.62897,1.00266,.75477,1.23205h.0555c-.0814-.53278-.12209-1.35414-.12209-2.46409v-11.19941h2.59729v17.19315Z"/>
      <path class="cls-9" d="M1156.44647,315.42408c-1.71673,.96936-3.69614,1.45404-5.93824,1.45404-2.56769,0-4.6211-.78067-6.16023-2.342-1.53913-1.56133-2.3087-3.66284-2.3087-6.30453,0-2.67128,.85281-4.85974,2.55844-6.56536s3.90148-2.55844,6.58756-2.55844c1.84992,0,3.43345,.28489,4.75059,.85466v2.73048c-1.35414-.83616-2.99317-1.25425-4.91709-1.25425-1.81292,0-3.29656,.61047-4.45091,1.83142s-1.73152,2.82298-1.73152,4.80609c0,2.04231,.53093,3.63509,1.59278,4.77834s2.49924,1.71488,4.31216,1.71488c1.19875,0,2.2088-.22199,3.03017-.66597v-4.30661h-3.65174v-2.2643h6.32672v8.09155Z"/>
      <path class="cls-9" d="M1162.86199,301.57188v15.01765h-2.66388v-17.19315h2.66388v2.17551Z"/>
      <path class="cls-9" d="M1181.59797,316.58953h-2.97467l-8.22474-12.67565c-.30339-.46618-.52538-.86946-.66597-1.20985h-.0666c.0666,.44398,.0999,1.28014,.0999,2.50849v11.377h-2.58619v-17.19315h3.15226l7.98055,12.43146c.37738,.59197,.62897,1.00266,.75477,1.23205h.0555c-.0814-.53278-.12209-1.35414-.12209-2.46409v-11.19941h2.59729v17.19315Z"/>
      <path class="cls-9" d="M1195.42797,316.58953h-9.52339v-17.19315h9.1349v2.2865h-6.47102v5.06138h6.00484v2.2754h-6.00484v5.28337h6.8595v2.2865Z"/>
      <path class="cls-9" d="M1208.08142,316.58953h-9.52339v-17.19315h9.1349v2.2865h-6.47102v5.06138h6.00484v2.2754h-6.00484v5.28337h6.8595v2.2865Z"/>
      <path class="cls-9" d="M1224.26451,316.58953h-3.11896l-2.79708-4.684c-.54758-.91756-1.0452-1.54283-1.49288-1.87582s-.96011-.49948-1.53728-.49948h-1.44294v7.05929h-2.66388v-17.19315h5.47206c1.78332,0,3.16151,.40143,4.13457,1.2043s1.45959,1.94057,1.45959,3.4131c0,1.15435-.33669,2.14221-1.01006,2.96357s-1.61313,1.39484-2.81928,1.72043v.0444c.76957,.26639,1.63163,1.16915,2.58619,2.70828l3.22996,5.13908Zm-10.38915-14.99545v5.72735h2.3642c.98416,0,1.77037-.28489,2.35865-.85466s.88241-1.29494,.88241-2.17551c0-1.79812-1.06555-2.69718-3.19666-2.69718h-2.4086Z"/>
    </g>
  </g>
  <g>
    <circle class="cls-3" cx="1533.39011" cy="200.97337" r="186.72385"/>
    <g class="cls-7">
      <path class="cls-11" d="M1587.83132,208.93781l-6.23258-2.6627c-.92073-.39334-1.98557,.03415-2.37898,.95474l-21.82542,51.08673h11.31202l20.07949-46.99993c.39341-.92053-.03408-1.98557-.95454-2.37884Z"/>
      <path class="cls-11" d="M1524.56632,243.98797l20.8486-20.8486c.70766-.70786,.70766-1.85555,0-2.56334l-5.01907-5.0192c-.70792-.70786-1.85568-.70786-2.56361,0l-28.43101,28.43108c-.70766,.70786-.70766,1.85548,0,2.56341l11.76555,11.76528h15.16482l-11.76528-11.76528c-.70792-.70792-.70792-1.85555,0-2.56334Z"/>
      <path class="cls-9" d="M1541.07238,93.6416h-20.44848v-11.68491c0-3.22665-2.61567-5.84239-5.84239-5.84239s-5.84239,2.61574-5.84239,5.84239v11.68491h-20.45788c-8.06411,.00255-14.59912,6.54192-14.59671,14.60596v49.66062c.00644,6.45068,5.23429,11.67847,11.68504,11.68484h58.42413c6.45075-.00637,11.67833-5.23416,11.68477-11.68484v-49.67007c-.00268-8.06404-6.54199-14.59919-14.6061-14.59651Zm-37.97564,58.42413h-11.68477v-5.84239h11.68477v5.84239Zm1.46066-29.21099c-.00027,4.03306-3.26992,7.30224-7.30305,7.30198-4.0334,0-7.30305-3.26965-7.30305-7.30305s3.26965-7.30305,7.30305-7.30305,7.30305,3.26965,7.30305,7.30305v.00107Zm16.06649,29.21099h-11.68477v-5.84239h11.68477v5.84239Zm17.52743,0h-11.68504v-5.84239h11.68504v5.84239Zm1.46066-29.21099c-.00054,4.03306-3.27019,7.30224-7.30305,7.30198-4.0334,0-7.30305-3.26965-7.30305-7.30305s3.26965-7.30305,7.30305-7.30305,7.30305,3.26965,7.30305,7.30305v.00107Z"/>
      <path class="cls-9" d="M1567.37747,152.06573c3.22269-.00382,5.83219-2.61956,5.82843-5.84239v-23.3837c-.00403-3.22276-2.61969-5.83226-5.84265-5.82836h-5.84239v35.05445h5.85661Z"/>
      <path class="cls-9" d="M1462.19977,152.06573h5.84239v-35.05445h-5.85634c-3.22296,.00382-5.83219,2.61956-5.82843,5.84239v23.3837c.00376,3.22276,2.61969,5.83226,5.84239,5.82836Z"/>
      <path class="cls-9" d="M1546.06488,180.10849h-5.83085c-7.75094,3.56129-16.37484,5.58631-25.45253,5.58631s-17.66643-2.02502-25.45253-5.58631h-5.83058c-25.90658,0-46.92479,21.01841-46.92479,46.92486v14.52438c0,9.25226,7.50646,16.75885,16.75885,16.75885h67.83431l-11.76555-11.76528c-.70766-.70792-.70766-1.85555,0-2.56341l28.43101-28.43108c.70792-.70786,1.85568-.70786,2.56361,0l5.01907,5.0192c.70766,.70779,.70766,1.85548,0,2.56334l-20.8486,20.8486c-.70792,.70779-.70792,1.85542,0,2.56334l11.76528,11.76528h21.06275l21.82542-51.08673c.39341-.9206,1.45825-1.34809,2.37898-.95474l6.23258,2.6627c.92046,.39328,1.34795,1.45832,.95454,2.37884l-20.07949,46.99993h7.52444c9.25239,0,16.75885-7.5066,16.75885-16.75885v-14.52438c0-25.90645-21.01847-46.92486-46.92479-46.92486Z"/>
      <path class="cls-9" d="M1537.83224,274.98219c.70792,.70792,1.85568,.70792,2.56334,0l5.01934-5.01893c.70766-.70792,.70766-1.85555,0-2.56341l-9.08333-9.08326h-15.16482l16.66547,16.6656Z"/>
      <path class="cls-9" d="M1629.67586,243.98777l-28.43101-28.43095c-.70792-.70786-1.85568-.70786-2.56334,0l-5.01934,5.019c-.70766,.70786-.70766,1.85548,0,2.56341l20.8486,20.84854c.70792,.70786,.70792,1.85548,0,2.56341l-20.8486,20.84847c-.70766,.70792-.70766,1.85555,0,2.56341l5.01934,5.01914c.70766,.70792,1.85542,.70792,2.56334,0l28.43101-28.43101c.70766-.70792,.70766-1.85555,0-2.56341Z"/>
      <path class="cls-9" d="M1548.46291,279.22235c-.39341,.9206,.03408,1.98564,.95454,2.37891l6.23258,2.6627c.92046,.39328,1.98557-.03422,2.37898-.95474l10.67736-24.99263h-11.31202l-8.93144,20.90576Z"/>
    </g>
    <g>
      <path class="cls-9" d="M1417.16152,316.58953h-10.12276v-2.17551h3.76274v-12.42036l-3.86263,1.04335v-2.2865l6.47102-1.69823v15.36173h3.75164v2.17551Z"/>
      <path class="cls-9" d="M1426.32972,316.58953v-17.19315h5.37217c1.62053,0,2.89882,.35888,3.83488,1.07665s1.40409,1.68343,1.40409,2.89697c0,.94716-.28489,1.77962-.85466,2.49739s-1.32084,1.22095-2.2532,1.50953v.0444c1.16915,.13319,2.11076,.57348,2.82483,1.32084s1.0711,1.69453,1.0711,2.84148c0,1.49473-.53463,2.70273-1.60388,3.62399s-2.48074,1.38189-4.23447,1.38189h-5.56086Zm2.66388-15.00655v5.02808h1.93132c1.01376,0,1.80182-.24419,2.3642-.73257s.84356-1.15805,.84356-2.00901c0-1.52433-1.04335-2.2865-3.13006-2.2865h-2.00901Zm0,7.22579v5.59416h2.50849c1.08775,0,1.93132-.25159,2.53069-.75477s.89906-1.20245,.89906-2.09781c0-1.82772-1.23205-2.74158-3.69614-2.74158h-2.2421Z"/>
      <path class="cls-9" d="M1454.92207,316.58953h-2.93027l-1.60943-4.47311h-6.8817l-1.53173,4.47311h-2.93027l6.48212-17.19315h2.96357l6.43772,17.19315Zm-5.28337-6.68191l-2.3975-6.7818c-.0888-.24419-.17759-.67707-.26639-1.29864h-.0777c-.0666,.51058-.15909,.93606-.27749,1.27644l-2.3864,6.804h5.40546Z"/>
      <path class="cls-9" d="M1468.91856,315.91246c-1.27274,.64377-2.87477,.96566-4.80609,.96566-2.48629,0-4.47865-.78252-5.97709-2.34755s-2.24765-3.63139-2.24765-6.19908c0-2.67868,.83061-4.88564,2.49184-6.62086s3.80158-2.60284,6.42107-2.60284c1.65013,0,3.02277,.22939,4.11792,.68817v2.69718c-1.21355-.68077-2.55659-1.02116-4.02912-1.02116-1.87212,0-3.37425,.61602-4.5064,1.84807s-1.69823,2.84333-1.69823,4.83384c0,1.90172,.53093,3.44085,1.59278,4.6174s2.48444,1.76482,4.26776,1.76482c1.65753,0,3.11526-.38108,4.37321-1.14325v2.51959Z"/>
      <path class="cls-9" d="M1485.01286,316.58953h-3.54075l-6.06034-7.72526c-.22199-.28119-.37368-.52168-.45508-.72147h-.0555v8.44673h-2.66388v-17.19315h2.66388v8.10265h.0555c.1036-.20719,.25899-.44768,.46618-.72147l5.82725-7.38118h3.24106l-6.8817,8.23584,7.40338,8.95731Z"/>
      <path class="cls-9" d="M1502.28371,316.58953h-9.52339v-17.19315h9.1349v2.2865h-6.47102v5.06138h6.00484v2.2754h-6.00484v5.28337h6.8595v2.2865Z"/>
      <path class="cls-9" d="M1519.83205,316.58953h-2.97467l-8.22474-12.67565c-.30339-.46618-.52538-.86946-.66597-1.20985h-.0666c.0666,.44398,.0999,1.28014,.0999,2.50849v11.377h-2.58619v-17.19315h3.15226l7.98055,12.43146c.37738,.59197,.62897,1.00266,.75477,1.23205h.0555c-.0814-.53278-.12209-1.35414-.12209-2.46409v-11.19941h2.59729v17.19315Z"/>
      <path class="cls-9" d="M1524.13866,316.58953v-17.19315h5.21677c6.06774,0,9.1016,2.79338,9.1016,8.38013,0,2.68608-.86391,4.82644-2.59174,6.42107s-3.94218,2.39195-6.64306,2.39195h-5.08358Zm2.66388-14.90665v12.62015h2.342c2.02751,0,3.62029-.56793,4.77834-1.70378s1.73707-2.72493,1.73707-4.76724c0-2.00531-.55128-3.5315-1.65383-4.57855s-2.70088-1.57058-4.79499-1.57058h-2.4086Z"/>
      <path class="cls-9" d="M1556.87113,316.58953h-9.52339v-17.19315h9.1349v2.2865h-6.47102v5.06138h6.00484v2.2754h-6.00484v5.28337h6.8595v2.2865Z"/>
      <path class="cls-9" d="M1574.41947,316.58953h-2.97467l-8.22474-12.67565c-.30339-.46618-.52538-.86946-.66597-1.20985h-.0666c.0666,.44398,.0999,1.28014,.0999,2.50849v11.377h-2.58619v-17.19315h3.15226l7.98055,12.43146c.37738,.59197,.62897,1.00266,.75477,1.23205h.0555c-.0814-.53278-.12209-1.35414-.12209-2.46409v-11.19941h2.59729v17.19315Z"/>
      <path class="cls-9" d="M1592.0233,315.42408c-1.71673,.96936-3.69614,1.45404-5.93824,1.45404-2.56769,0-4.6211-.78067-6.16023-2.342s-2.3087-3.66284-2.3087-6.30453c0-2.67128,.85281-4.85974,2.55844-6.56536s3.90148-2.55844,6.58756-2.55844c1.84992,0,3.43345,.28489,4.75059,.85466v2.73048c-1.35414-.83616-2.99317-1.25425-4.91709-1.25425-1.81292,0-3.29656,.61047-4.45091,1.83142s-1.73152,2.82298-1.73152,4.80609c0,2.04231,.53093,3.63509,1.59278,4.77834s2.49924,1.71488,4.31216,1.71488c1.19875,0,2.2088-.22199,3.03017-.66597v-4.30661h-3.65174v-2.2643h6.32672v8.09155Z"/>
      <path class="cls-9" d="M1598.43882,301.57188v15.01765h-2.66388v-17.19315h2.66388v2.17551Z"/>
      <path class="cls-9" d="M1617.17481,316.58953h-2.97467l-8.22474-12.67565c-.30339-.46618-.52538-.86946-.66597-1.20985h-.0666c.0666,.44398,.0999,1.28014,.0999,2.50849v11.377h-2.58619v-17.19315h3.15226l7.98055,12.43146c.37738,.59197,.62897,1.00266,.75477,1.23205h.0555c-.0814-.53278-.12209-1.35414-.12209-2.46409v-11.19941h2.59729v17.19315Z"/>
      <path class="cls-9" d="M1631.0048,316.58953h-9.52339v-17.19315h9.1349v2.2865h-6.47102v5.06138h6.00484v2.2754h-6.00484v5.28337h6.8595v2.2865Z"/>
      <path class="cls-9" d="M1643.65825,316.58953h-9.52339v-17.19315h9.1349v2.2865h-6.47102v5.06138h6.00484v2.2754h-6.00484v5.28337h6.8595v2.2865Z"/>
      <path class="cls-9" d="M1659.84135,316.58953h-3.11896l-2.79708-4.684c-.54758-.91756-1.0452-1.54283-1.49288-1.87582s-.96011-.49948-1.53728-.49948h-1.44294v7.05929h-2.66388v-17.19315h5.47206c1.78332,0,3.16151,.40143,4.13457,1.2043s1.45959,1.94057,1.45959,3.4131c0,1.15435-.33669,2.14221-1.01006,2.96357s-1.61313,1.39484-2.81928,1.72043v.0444c.76957,.26639,1.63163,1.16915,2.58619,2.70828l3.22996,5.13908Zm-10.38915-14.99545v5.72735h2.3642c.98416,0,1.77037-.28489,2.35865-.85466s.88241-1.29494,.88241-2.17551c0-1.79812-1.06555-2.69718-3.19666-2.69718h-2.4086Z"/>
    </g>
  </g>
</svg>