<?xml version="1.0" encoding="UTF-8"?>
<svg id="_圖層_1" data-name="圖層 1" xmlns="http://www.w3.org/2000/svg" viewBox="0 0 1313.16345 566.85082">
  <defs>
    <style>
      .cls-1 {
        fill: #c8185a;
      }

      .cls-2, .cls-3, .cls-4 {
        fill: #fff;
      }

      .cls-5 {
        fill: #f5b116;
      }

      .cls-6 {
        fill: #814798;
      }

      .cls-7 {
        fill: #eb5c42;
      }

      .cls-8 {
        fill: #c3291f;
      }

      .cls-9 {
        fill: #d07024;
      }

      .cls-10 {
        fill: #e7431f;
      }

      .cls-11 {
        fill: #e97421;
      }

      .cls-12 {
        fill: #f6ba4f;
      }

      .cls-3 {
        font-size: 20px;
      }

      .cls-3, .cls-4 {
        font-family: MicrosoftJhengHeiBold, 'Microsoft JhengHei';
      }

      .cls-13 {
        fill: #eb9a51;
      }

      .cls-14 {
        fill: #8c67aa;
      }

      .cls-15 {
        fill: #e84686;
      }

      .cls-16 {
        fill: #da991e;
      }

      .cls-17 {
        fill: #1181c0;
      }

      .cls-18 {
        fill: #663e95;
      }

      .cls-19 {
        fill: #d3296b;
      }

      .cls-4 {
        font-size: 16px;
      }
    </style>
  </defs>
  <polygon class="cls-17" points="1313.16345 452.64379 985.30444 338.43725 985.30444 392.38305 0 392.38305 0 512.90502 985.30444 512.90502 985.30444 566.85082 1313.16345 452.64379"/>
  <g>
    <rect class="cls-5" x="16.76752" y="258.39339" width="85.3565" height="110.73276"/>
    <polygon class="cls-16" points="135.19005 350.67974 102.12402 369.12615 102.12402 258.39339 135.19005 239.94697 135.19005 350.67974"/>
    <polygon class="cls-12" points="102.12402 258.39339 16.76752 258.39339 49.83355 239.93793 135.19005 239.93793 102.12402 258.39339"/>
  </g>
  <g>
    <rect class="cls-11" x="268.7999" y="210.52454" width="85.3565" height="158.60161"/>
    <polygon class="cls-9" points="387.22243 350.67974 354.1564 369.12615 354.1564 210.52454 387.22243 192.07812 387.22243 350.67974"/>
    <polygon class="cls-13" points="354.1564 210.52454 268.7999 210.52454 301.86593 192.06908 387.22243 192.06908 354.1564 210.52454"/>
  </g>
  <g>
    <rect class="cls-10" x="520.83227" y="162.65569" width="85.3565" height="206.47046"/>
    <polygon class="cls-8" points="639.25481 350.67974 606.18878 369.12615 606.18878 162.65569 639.25481 144.20927 639.25481 350.67974"/>
    <polygon class="cls-7" points="606.18878 162.65569 520.83227 162.65569 553.89831 144.20023 639.25481 144.20023 606.18878 162.65569"/>
  </g>
  <g>
    <rect class="cls-19" x="772.86465" y="114.78684" width="85.3565" height="254.33931"/>
    <polygon class="cls-1" points="891.28719 350.67974 858.22115 369.12615 858.22115 114.78684 891.28719 96.34042 891.28719 350.67974"/>
    <polygon class="cls-15" points="858.22115 114.78684 772.86465 114.78684 805.93068 96.33138 891.28719 96.33138 858.22115 114.78684"/>
  </g>
  <g>
    <rect class="cls-6" x="1024.89703" y="66.91799" width="85.3565" height="302.20816"/>
    <polygon class="cls-18" points="1143.31956 350.67974 1110.25353 369.12615 1110.25353 66.91799 1143.31956 48.47158 1143.31956 350.67974"/>
    <polygon class="cls-14" points="1110.25353 66.91799 1024.89703 66.91799 1057.96306 48.46253 1143.31956 48.46253 1110.25353 66.91799"/>
  </g>
  <text class="cls-3" transform="translate(17.59408 189.81017)"><tspan x="0" y="0">電腦ERP作業</tspan><tspan x="0" y="24">紙本管控</tspan></text>
  <text class="cls-3" transform="translate(258.12187 155.01125)"><tspan x="0" y="0">射出機資料串聯</tspan></text>
  <text class="cls-3" transform="translate(463.0286 116.62372)"><tspan x="0" y="0">機台運作初步可視化(目前)</tspan></text>
  <text class="cls-3" transform="translate(712.361 46.27514)"><tspan x="0" y="0">機台運作完全可視化</tspan><tspan x="0" y="24">導入品質檢測即時回饋系統(未來)</tspan></text>
  <text class="cls-3" transform="translate(934.16601 22.29785)"><tspan x="0" y="0">完整的生產到出貨流程管控可視化(未來)</tspan></text>
  <g>
    <path class="cls-7" d="M606.53453,46.36426h-.03738c3.41149-5.70017,5.06983-12.57154,4.07782-19.90257-1.87033-13.82194-13.23318-24.85741-27.10708-26.29232-18.39875-1.9029-33.92798,12.48061-33.92798,30.49076,0,5.74769,1.61106,11.10683,4.36302,15.70414h-.03791l.5923,.91293c.16111,.24903,.31589,.50174,.48384,.74551l22.2133,34.22492c1.43121,2.20512,4.6589,2.20514,6.09013,.00003l22.21273-34.22337c.169-.24587,.32484-.49964,.487-.75025l.59019-.90977Z"/>
    <circle class="cls-2" cx="580.19977" cy="30.53693" r="17.87904"/>
  </g>
  <text class="cls-4" transform="translate(15.55677 427.06887)"><tspan x="0" y="0">-資訊由人工傳遞</tspan><tspan x="0" y="36">-人為疏失、資訊斷層</tspan></text>
  <text class="cls-4" transform="translate(267.589 427.06887)"><tspan x="0" y="0">-與各品牌射出機研發部進行溝通</tspan><tspan x="0" y="36">-資訊串聯與排除雜訊</tspan></text>
  <text class="cls-4" transform="translate(519.62112 427.06887)"><tspan x="0" y="0">-訊號分類</tspan><tspan x="0" y="36">-機台運作狀況分成四大類</tspan></text>
  <text class="cls-4" transform="translate(771.65359 423.37739)"><tspan x="0" y="0">-資料優化、精確度提高</tspan><tspan x="0" y="36">-機台運作狀況自動化判讀</tspan><tspan x="0" y="72">-將導入品管作業線上回饋系統</tspan></text>
  <text class="cls-4" transform="translate(1023.68613 441.3852)"><tspan x="0" y="0">-完善生產流程</tspan><tspan x="0" y="36">-生產、耗損、品管、包裝、出貨</tspan></text>
</svg>