<?xml version="1.0" encoding="utf-8"?>
<!-- Generator: Adobe Illustrator 23.0.3, SVG Export Plug-In . SVG Version: 6.00 Build 0)  -->
<svg version="1.1" id="_圖層_1" xmlns="http://www.w3.org/2000/svg" xmlns:xlink="http://www.w3.org/1999/xlink" x="0px" y="0px"
	 viewBox="0 0 597.9 444.1" style="enable-background:new 0 0 597.9 444.1;" xml:space="preserve">
<style type="text/css">
	.st0{fill:none;stroke:#4E8FA2;stroke-width:0.5;stroke-miterlimit:10;}
	.st1{fill:#4E94A9;}
	.st2{font-family:'MicrosoftJhengHeiBold';}
	.st3{font-size:5.6px;}
	.st4{fill:none;stroke:#8F8F8F;stroke-width:0.5;stroke-miterlimit:10;}
	.st5{fill:#8F8F8F;}
	.st6{fill:#4E8FA2;}
	.st7{fill:none;stroke:#4D8A9C;stroke-width:0.5;stroke-miterlimit:10;}
	.st8{fill:#4D8A9C;stroke:#4D8A9C;stroke-width:0.5;stroke-miterlimit:10;}
	.st9{font-family:'AdobeFanHeitiStd-Bold-B5pc-H';}
	.st10{font-size:2.79px;}
	.st11{fill:#FFFFFF;}
	.st12{fill:none;stroke:#4E8FA2;stroke-width:0.88;stroke-miterlimit:10;}
	.st13{fill:none;stroke:#FFFFFF;stroke-width:0.88;stroke-miterlimit:10;}
	.st14{font-size:4.2px;}
	.st15{fill:none;stroke:#4A899C;stroke-width:0.5;stroke-miterlimit:10;}
	.st16{fill:#FFFFFF;stroke:#8E8E8E;stroke-width:0.5;stroke-miterlimit:10;}
	.st17{fill:#CD1D1C;}
	.st18{fill:#E0903D;}
	.st19{fill:#7AAD47;}
	.st20{fill:#29B6EB;}
	.st21{font-size:10.2756px;}
	.st22{fill:#8E8E8E;}
	.st23{font-size:7.7067px;}
	.st24{fill:#BCBCBC;}
</style>
<path class="st0" d="M170.1,45h-36.5c-1.4,0-2.6-1.2-2.6-2.6V22c0-1.4,1.1-2.6,2.6-2.6h36.5c1.4,0,2.6,1.1,2.6,2.6v20.5
	C172.7,43.9,171.5,45,170.1,45z"/>
<text transform="matrix(1 0 0 1 140.64 33.82)" class="st1 st2 st3">各區產線</text>
<text transform="matrix(1 0 0 1 33.16 103.55)" class="st1 st2 st3">戰情資訊</text>
<path class="st4" d="M268.9,94.2h-36.5c-1.4,0-2.6-1.2-2.6-2.6V71.2c0-1.4,1.1-2.6,2.6-2.6h36.5c1.4,0,2.6,1.2,2.6,2.6v20.5
	C271.5,93.1,270.4,94.2,268.9,94.2z"/>
<text transform="matrix(1 0 0 1 233.86 83.21)" class="st5 st2 st3">全廠稼動分析</text>
<path class="st6" d="M88.9,77.6c-0.5-0.2-1-0.3-1.5-0.3H3.1c-0.2,0-0.4,0-0.7,0C1,77.4,0,78.7,0,80c0,1.1,0,2.3,0,3.4v53.3
	c0,1.2,0.6,2.2,1.7,2.6c0.7,0.3,1.7,0.2,2.4,0.2h83.6c1.5,0,2.6-1.2,2.7-2.8c0-0.4,0-0.8,0-1.1V80.1C90.4,79.1,89.9,78.1,88.9,77.6
	L88.9,77.6z M89.7,83.9v51.4c0,1.1-0.7,2.1-1.9,2.1c-0.6,0-84.5,0-85.1,0c-1.2,0-2-1-2-2.1V80.1c0-1.1,0.7-2.1,2-2.1
	c0.2,0,0.3,0,0.5,0h84.2c0.2,0,0.4,0,0.5,0c1.2,0.1,1.8,1.1,1.8,2.2C89.7,81.4,89.7,82.7,89.7,83.9L89.7,83.9z"/>
<path class="st7" d="M108,76.6c0,9.3-7.5,16.8-16.8,16.8V76.6l11.9-11.9C106.1,67.8,108,72,108,76.6z"/>
<path class="st7" d="M91.2,76.6H74.5c0-4.6,1.9-8.8,4.9-11.9C79.4,64.8,91.2,76.6,91.2,76.6z"/>
<path class="st8" d="M91.2,59.9c4.6,0,8.8,1.9,11.9,4.9L91.2,76.6L79.4,64.8C82.4,61.8,86.6,59.9,91.2,59.9z"/>
<text transform="matrix(1 0 0 1 96.98 80.24)" class="st5 st9 st10">13%</text>
<text transform="matrix(1 0 0 1 88.71 68)" class="st11 st9 st10">25%</text>
<text transform="matrix(1 0 0 1 78.46 73.69)" class="st5 st9 st10">38%</text>
<polyline class="st12" points="6.3,104.1 6.3,115.8 83.7,115.8 "/>
<rect x="8.3" y="110.8" class="st6" width="1.1" height="5"/>
<rect x="10.4" y="109.7" class="st6" width="1.1" height="6.1"/>
<rect x="12.4" y="108.6" class="st6" width="1.1" height="7.2"/>
<rect x="14.5" y="107.5" class="st6" width="1.1" height="8.3"/>
<rect x="16.6" y="106.3" class="st6" width="1.1" height="9.4"/>
<rect x="18.7" y="105.2" class="st6" width="1.1" height="10.6"/>
<rect x="31.3" y="110.8" class="st6" width="1.1" height="5"/>
<rect x="29.2" y="109.7" class="st6" width="1.1" height="6.1"/>
<rect x="27.1" y="108.6" class="st6" width="1.1" height="7.2"/>
<rect x="25" y="107.5" class="st6" width="1.1" height="8.3"/>
<rect x="22.9" y="106.3" class="st6" width="1.1" height="9.4"/>
<rect x="20.8" y="105.2" class="st6" width="1.1" height="10.6"/>
<rect x="33.1" y="110.8" class="st6" width="1.1" height="5"/>
<rect x="35.2" y="109.7" class="st6" width="1.1" height="6.1"/>
<rect x="37.3" y="108.6" class="st6" width="1.1" height="7.2"/>
<rect x="39.4" y="107.5" class="st6" width="1.1" height="8.3"/>
<rect x="41.5" y="106.3" class="st6" width="1.1" height="9.4"/>
<rect x="43.6" y="105.2" class="st6" width="1.1" height="10.6"/>
<rect x="56.2" y="110.8" class="st6" width="1.1" height="5"/>
<rect x="54.1" y="109.7" class="st6" width="1.1" height="6.1"/>
<rect x="52" y="108.6" class="st6" width="1.1" height="7.2"/>
<rect x="49.9" y="107.5" class="st6" width="1.1" height="8.3"/>
<rect x="47.8" y="106.3" class="st6" width="1.1" height="9.4"/>
<rect x="45.7" y="105.2" class="st6" width="1.1" height="10.6"/>
<rect x="58" y="110.8" class="st6" width="1.1" height="5"/>
<rect x="60.1" y="109.7" class="st6" width="1.1" height="6.1"/>
<rect x="62.2" y="108.6" class="st6" width="1.1" height="7.2"/>
<rect x="64.3" y="107.5" class="st6" width="1.1" height="8.3"/>
<rect x="66.4" y="106.3" class="st6" width="1.1" height="9.4"/>
<rect x="68.5" y="105.2" class="st6" width="1.1" height="10.6"/>
<rect x="81.1" y="110.8" class="st6" width="1.1" height="5"/>
<rect x="79" y="109.7" class="st6" width="1.1" height="6.1"/>
<rect x="76.9" y="108.6" class="st6" width="1.1" height="7.2"/>
<rect x="74.8" y="107.5" class="st6" width="1.1" height="8.3"/>
<rect x="72.7" y="106.3" class="st6" width="1.1" height="9.4"/>
<rect x="70.6" y="105.2" class="st6" width="1.1" height="10.6"/>
<circle class="st12" cx="6.3" cy="103.8" r="0.4"/>
<circle class="st13" cx="84.1" cy="115.8" r="0.4"/>
<g>
	<path class="st0" d="M228.6,25.8h-36.5c-1.4,0-2.6-1.1-2.6-2.6V2.8c0-1.4,1.1-2.6,2.6-2.6h36.5c1.4,0,2.6,1.1,2.6,2.6v20.5
		C231.2,24.7,230,25.8,228.6,25.8z"/>
	<text transform="matrix(1 0 0 1 201.41 11.5)" class="st1 st2 st3">機台01</text>
	<text transform="matrix(1 0 0 1 191.44 18.47)" class="st1 st2 st14">良率、不良率、單號</text>
</g>
<g>
	<path class="st4" d="M322.9,45h-36.5c-1.4,0-2.6-1.2-2.6-2.6V22c0-1.4,1.1-2.6,2.6-2.6h36.5c1.4,0,2.6,1.1,2.6,2.6v20.5
		C325.4,43.9,324.3,45,322.9,45z"/>
	<g>
		<text transform="matrix(1 0 0 1 293.32 31.02)" class="st5 st2 st3">當日全廠</text>
		<text transform="matrix(1 0 0 1 293.32 36.95)" class="st5 st2 st3">OEE趨勢</text>
	</g>
</g>
<g>
	<path class="st4" d="M368.2,62.2h-36.5c-1.4,0-2.6-1.2-2.6-2.6V39.2c0-1.4,1.1-2.6,2.6-2.6h36.5c1.4,0,2.6,1.2,2.6,2.6v20.5
		C370.8,61.1,369.6,62.2,368.2,62.2z"/>
	<g>
		<text transform="matrix(1 0 0 1 332.62 49.45)" class="st5 st2 st3">各機台狀態累</text>
		<text transform="matrix(1 0 0 1 332.62 56.17)" class="st5 st2 st3">積時間</text>
	</g>
</g>
<g>
	<path class="st4" d="M413.6,79.5h-36.5c-1.4,0-2.6-1.2-2.6-2.6V56.5c0-1.4,1.1-2.6,2.6-2.6h36.5c1.4,0,2.6,1.2,2.6,2.6v20.5
		C416.2,78.3,415,79.5,413.6,79.5z"/>
	<text transform="matrix(1 0 0 1 378.71 68.82)" class="st5 st2 st3">本日生產任務</text>
</g>
<g>
	<path class="st4" d="M459,96.7h-36.5c-1.4,0-2.6-1.2-2.6-2.6V73.7c0-1.4,1.1-2.6,2.6-2.6H459c1.4,0,2.6,1.2,2.6,2.6v20.5
		C461.5,95.6,460.4,96.7,459,96.7z"/>
	<text transform="matrix(1 0 0 1 423.72 86.27)" class="st5 st2 st3">生產逾期任務</text>
</g>
<g>
	<path class="st4" d="M504.3,114h-36.5c-1.4,0-2.6-1.2-2.6-2.6V90.9c0-1.4,1.1-2.6,2.6-2.6h36.5c1.4,0,2.6,1.2,2.6,2.6v20.5
		C506.9,112.8,505.7,114,504.3,114z"/>
	<text transform="matrix(1 0 0 1 468.9 103.77)" class="st5 st2 st3">設備即時狀態</text>
</g>
<g>
	<path class="st4" d="M549.7,131.2h-36.5c-1.4,0-2.6-1.1-2.6-2.6v-20.5c0-1.4,1.1-2.6,2.6-2.6h36.5c1.4,0,2.6,1.2,2.6,2.6v20.5
		C552.3,130,551.1,131.2,549.7,131.2z"/>
	<g>
		<text transform="matrix(1 0 0 1 514.92 118.12)" class="st5 st2 st3">機台各狀態時</text>
		<text transform="matrix(1 0 0 1 514.92 124.84)" class="st5 st2 st3">間佔比</text>
	</g>
</g>
<g>
	<path class="st4" d="M595.1,148.4h-36.5c-1.4,0-2.6-1.1-2.6-2.6v-20.5c0-1.4,1.2-2.6,2.6-2.6h36.5c1.4,0,2.6,1.2,2.6,2.6v20.5
		C597.6,147.3,596.5,148.4,595.1,148.4z"/>
	<text transform="matrix(1 0 0 1 559.48 137.27)" class="st5 st2 st3">設備異常事件</text>
</g>
<path class="st0" d="M228.6,64.2h-36.5c-1.4,0-2.6-1.2-2.6-2.6V41.2c0-1.4,1.1-2.6,2.6-2.6h36.5c1.4,0,2.6,1.2,2.6,2.6v20.5
	C231.2,63,230,64.2,228.6,64.2z"/>
<text transform="matrix(1 0 0 1 202.44 49.87)" class="st1 st2 st3">機台N</text>
<text transform="matrix(1 0 0 1 191.44 56.84)" class="st1 st2 st14">良率、不良率、單號</text>
<g>
	<circle class="st1" cx="210.4" cy="30.2" r="0.6"/>
	<circle class="st1" cx="210.4" cy="32.1" r="0.6"/>
	<circle class="st1" cx="210.4" cy="34" r="0.6"/>
</g>
<path class="st15" d="M172.7,32.2h3.2c2.2,0,4-1.8,4-4V17c0-2.2,1.8-4,4-4h5.6"/>
<path class="st15" d="M189.5,51.4h-3.2c-2.2,0-4-1.8-4-4V36.2c0-2.2-1.8-4-4-4h-5.6"/>
<path class="st0" d="M373.2,224.9h-36.5c-1.4,0-2.6-1.1-2.6-2.6v-20.5c0-1.4,1.1-2.6,2.6-2.6h36.5c1.4,0,2.6,1.1,2.6,2.6v20.5
	C375.8,223.7,374.6,224.9,373.2,224.9z"/>
<g>
	<text transform="matrix(1 0 0 1 343.74 210.9)" class="st1 st2 st3">全廠設備</text>
	<text transform="matrix(1 0 0 1 343.74 217.62)" class="st1 st2 st3">稼動分析</text>
</g>
<g>
	<path class="st0" d="M431.7,188.2h-36.5c-1.4,0-2.6-1.1-2.6-2.6v-20.5c0-1.4,1.1-2.6,2.6-2.6h36.5c1.4,0,2.6,1.1,2.6,2.6v20.5
		C434.3,187.1,433.1,188.2,431.7,188.2L431.7,188.2z"/>
	<g>
		<text transform="matrix(1 0 0 1 396.64 174.64)" class="st1 st2 st3">當日機台稼動</text>
		<text transform="matrix(1 0 0 1 396.64 181.37)" class="st1 st2 st3">時間比</text>
	</g>
</g>
<g>
	<path class="st0" d="M431.7,224.8h-36.5c-1.4,0-2.6-1.1-2.6-2.6v-20.5c0-1.4,1.1-2.6,2.6-2.6h36.5c1.4,0,2.6,1.1,2.6,2.6v20.5
		C434.3,223.7,433.1,224.8,431.7,224.8L431.7,224.8z"/>
	<g>
		<text transform="matrix(1 0 0 1 402.24 211.24)" class="st1 st2 st3">停機因素</text>
		<text transform="matrix(1 0 0 1 402.24 217.96)" class="st1 st2 st3">佔比分析</text>
	</g>
</g>
<g>
	<path class="st0" d="M431.7,261.4h-36.5c-1.4,0-2.6-1.1-2.6-2.6v-20.5c0-1.4,1.1-2.6,2.6-2.6h36.5c1.4,0,2.6,1.1,2.6,2.6v20.5
		C434.3,260.3,433.1,261.4,431.7,261.4z"/>
	<g>
		<text transform="matrix(1 0 0 1 393.84 247.83)" class="st1 st2 st3">當日機台各狀態</text>
		<text transform="matrix(1 0 0 1 393.84 254.55)" class="st1 st2 st3">時數統計</text>
	</g>
</g>
<path class="st0" d="M234.8,157.4h-36.5c-1.4,0-2.6-1.1-2.6-2.6v-20.5c0-1.4,1.1-2.6,2.6-2.6h36.5c1.4,0,2.6,1.1,2.6,2.6v20.5
	C237.4,156.3,236.2,157.4,234.8,157.4L234.8,157.4z"/>
<g>
	<text transform="matrix(1 0 0 1 199.94 143.78)" class="st1 st2 st3">生產進度追蹤</text>
	<text transform="matrix(1 0 0 1 199.94 150.5)" class="st1 st2 st3">即時戰情</text>
</g>
<path class="st4" d="M317.5,189.8h-36.5c-1.4,0-2.6-1.1-2.6-2.6v-20.5c0-1.4,1.1-2.6,2.6-2.6h36.5c1.4,0,2.6,1.1,2.6,2.6v20.5
	C320,188.6,318.9,189.8,317.5,189.8L317.5,189.8z"/>
<g>
	<text transform="matrix(1 0 0 1 282.6 176.13)" class="st5 st2 st3">出貨即時戰情</text>
	<text transform="matrix(1 0 0 1 282.6 182.85)" class="st5 st2 st3">近兩個月趨勢</text>
</g>
<path class="st15" d="M131,32.2h-7.8c-4.3,0-7.9,3.5-7.9,7.9v60.6c0,4.3-3.5,7.9-7.9,7.9H90.3"/>
<path class="st15" d="M90.3,108.6h7.8c4.3,0,7.9,3.5,7.9,7.9v20.3c0,4.4,3.5,7.9,7.9,7.9h81.8"/>
<path class="st4" d="M90.3,108.5h7.8c4.3,0,7.9,3.5,7.9,7.9v52.7c0,4.4,3.5,7.9,7.9,7.9h164.5"/>
<path class="st15" d="M90.3,108.5h7.8c4.3,0,7.9,3.5,7.9,7.9v87.8c0,4.4,3.5,7.9,7.9,7.9h220.4"/>
<path class="st4" d="M90.1,108.6h109.1c5,0,9-4,9-9v-9.2c0-5,4-9,9-9h12.8"/>
<path class="st4" d="M271.5,81.4L271.5,81.4c3.1,0,5.6-2.5,5.6-5.6V37.8c0-3.1,2.5-5.6,5.6-5.6h1.2"/>
<path class="st4" d="M329.1,49.6h-23.3c-3.1,0-5.6,2.5-5.6,5.6v20.7c0,3.1-2.5,5.6-5.6,5.6h-23.1"/>
<path class="st4" d="M374.5,66.7h-68.7c-3.1,0-5.6,2.5-5.6,5.6v3.6c0,3.1-2.5,5.6-5.6,5.6h-20.4"/>
<path class="st4" d="M419.9,84H304.2c-0.7,0-1.3-0.6-1.3-1.3l0,0c0-0.7-0.6-1.3-1.3-1.3l-25.2,0"/>
<path class="st4" d="M465.2,101.2H308.5c-3.1,0-5.6-2.5-5.6-5.6V87c0-3.1-2.5-5.6-5.5-5.6l-16.2,0"/>
<path class="st4" d="M273.2,81.4h19.5c3.1,0,5.6,2.5,5.6,5.6v25.9c0,3.1,2.5,5.6,5.6,5.6h206.8"/>
<path class="st4" d="M556,135.6H300.5c-3.1,0-5.6-2.5-5.6-5.6V86.9c0-3.1-2.5-5.6-5.6-5.6h-15.9"/>
<path class="st15" d="M375.8,212.1L375.8,212.1c4.5,0,8.1-3.6,8.1-8.1v-20.4c0-4.5,3.6-8.1,8.1-8.1h0.7"/>
<path class="st15" d="M375.8,212L375.8,212c4.5,0,8.1,3.6,8.1,8.1v20.4c0,4.5,3.6,8.1,8.1,8.1h0.7"/>
<line class="st15" x1="375.8" y1="212" x2="392.6" y2="212"/>
<g>
	<path class="st16" d="M106.9,440.7H4.7c-2.6,0-4.7-2.1-4.7-4.7V281c0-2.6,2.1-4.7,4.7-4.7h102.2c2.6,0,4.7,2.1,4.7,4.7v154.9
		C111.6,438.6,109.5,440.7,106.9,440.7z"/>
	<path class="st16" d="M228.5,440.7H126.3c-2.6,0-4.7-2.1-4.7-4.7V281c0-2.6,2.1-4.7,4.7-4.7h102.2c2.6,0,4.7,2.1,4.7,4.7v154.9
		C233.2,438.6,231.1,440.7,228.5,440.7z"/>
	<path class="st16" d="M350.1,440.7H247.9c-2.6,0-4.7-2.1-4.7-4.7V281c0-2.6,2.1-4.7,4.7-4.7h102.2c2.6,0,4.7,2.1,4.7,4.7v154.9
		C354.9,438.6,352.7,440.7,350.1,440.7z"/>
	<path class="st16" d="M471.7,440.7H369.5c-2.6,0-4.7-2.1-4.7-4.7V281c0-2.6,2.1-4.7,4.7-4.7h102.2c2.6,0,4.7,2.1,4.7,4.7v154.9
		C476.5,438.6,474.3,440.7,471.7,440.7z"/>
	<path class="st17" d="M111.6,351.1H-0.1v-70c0-2.6,2.1-4.7,4.7-4.7h102.2c2.6,0,4.7,2.1,4.7,4.7V351.1z"/>
	<path class="st18" d="M233.2,351.1H121.5v-70c0-2.6,2.1-4.7,4.7-4.7h102.2c2.6,0,4.7,2.1,4.7,4.7V351.1z"/>
	<path class="st19" d="M354.9,351.1H243.1v-70c0-2.6,2.1-4.7,4.7-4.7h102.2c2.6,0,4.7,2.1,4.7,4.7V351.1z"/>
	<path class="st20" d="M476.5,351.1H364.8v-70c0-2.6,2.1-4.7,4.7-4.7h102.2c2.6,0,4.7,2.1,4.7,4.7V351.1z"/>
	<text transform="matrix(1 0 0 1 9.0964 294.7522)" class="st11 st2 st21">Danger 500</text>
	<text transform="matrix(1 0 0 1 9.0964 365.5881)"><tspan x="0" y="0" class="st22 st2 st23">故障、不明原因停擺、過期</tspan><tspan x="0" y="15.4" class="st22 st2 st23">等需要緊急處理的狀況。 </tspan><tspan x="0" y="30.8" class="st22 st2 st23">Emergency : breakdowns, </tspan><tspan x="0" y="46.2" class="st22 st2 st23">unknown stoppages, </tspan><tspan x="0" y="61.7" class="st22 st2 st23">expired items</tspan></text>
	<text transform="matrix(1 0 0 1 130.7102 294.7522)" class="st11 st2 st21">Warning 400</text>
	<text transform="matrix(1 0 0 1 130.7102 365.5881)"><tspan x="0" y="0" class="st22 st2 st23">異常、即將過期、注意等低</tspan><tspan x="0" y="15.4" class="st22 st2 st23">於危險的狀況。</tspan><tspan x="0" y="30.8" class="st22 st2 st23">Warning : abnormal, </tspan><tspan x="0" y="46.2" class="st22 st2 st23">near expiration, caution.</tspan></text>
	<text transform="matrix(1 0 0 1 252.324 294.7522)" class="st11 st2 st21">Sucess 400</text>
	<text transform="matrix(1 0 0 1 252.324 365.5881)"><tspan x="0" y="0" class="st22 st2 st23">正常、通過、穩定並持續進</tspan><tspan x="0" y="15.4" class="st22 st2 st23">行的狀態。</tspan><tspan x="0" y="30.8" class="st22 st2 st23">Normal : stable, approved, </tspan><tspan x="0" y="46.2" class="st22 st2 st23">ongoing.</tspan></text>
	<text transform="matrix(1 0 0 1 373.9373 294.7522)" class="st11 st2 st21">Test 300</text>
	<text transform="matrix(1 0 0 1 373.9373 365.5881)"><tspan x="0" y="0" class="st22 st2 st23">測試</tspan><tspan x="0" y="15.4" class="st22 st2 st23">Test</tspan></text>
	<path class="st16" d="M593.2,440.7H491c-2.6,0-4.7-2.1-4.7-4.7V281c0-2.6,2.1-4.7,4.7-4.7h102.2c2.6,0,4.7,2.1,4.7,4.7v154.9
		C598,438.6,595.8,440.7,593.2,440.7z"/>
	<path class="st24" d="M598,351.1H486.2v-70c0-2.6,2.1-4.7,4.7-4.7h102.2c2.6,0,4.7,2.1,4.7,4.7V351.1z"/>
	<text transform="matrix(1 0 0 1 495.4207 294.7522)" class="st11 st2 st21">Neutral 300</text>
	<text transform="matrix(1 0 0 1 495.4207 365.5881)"><tspan x="0" y="0" class="st22 st2 st23">關機、無訊號、無運作等停</tspan><tspan x="0" y="15.4" class="st22 st2 st23">滯狀況。</tspan><tspan x="0" y="30.8" class="st22 st2 st23">Stopped : powered off, </tspan><tspan x="0" y="46.2" class="st22 st2 st23">no signal, idle</tspan></text>
</g>
</svg>
