<?xml version="1.0" encoding="UTF-8"?>
<svg id="_圖層_1" data-name="圖層 1" xmlns="http://www.w3.org/2000/svg" viewBox="0 0 597.87 348.31">
  <defs>
    <style>
      .cls-1 {
        stroke: #4a899c;
      }

      .cls-1, .cls-2, .cls-3, .cls-4, .cls-5, .cls-6, .cls-7 {
        fill: none;
      }

      .cls-1, .cls-2, .cls-3, .cls-5, .cls-8, .cls-6, .cls-7 {
        stroke-miterlimit: 10;
      }

      .cls-1, .cls-3, .cls-5, .cls-8, .cls-7 {
        stroke-width: .5px;
      }

      .cls-9 {
        fill: #1584bf;
      }

      .cls-2, .cls-5 {
        stroke: #4e8fa2;
      }

      .cls-2, .cls-6 {
        stroke-width: .88px;
      }

      .cls-10 {
        fill: #9f9f9f;
      }

      .cls-11, .cls-4, .cls-12, .cls-13, .cls-14, .cls-15 {
        isolation: isolate;
      }

      .cls-11, .cls-13 {
        font-size: 5.6px;
      }

      .cls-11, .cls-13, .cls-14 {
        font-family: MicrosoftJhengHeiBold, 'Microsoft JhengHei';
      }

      .cls-11, .cls-14, .cls-16 {
        fill: #4e94a9;
      }

      .cls-3, .cls-8 {
        stroke: #4d8a9c;
      }

      .cls-17 {
        fill: #4e8fa2;
      }

      .cls-18, .cls-13, .cls-15 {
        fill: #8f8f8f;
      }

      .cls-19 {
        fill: #23aa38;
      }

      .cls-20 {
        fill: #c5171f;
      }

      .cls-8 {
        fill: #4d8a9c;
      }

      .cls-12 {
        fill: #fff;
      }

      .cls-12, .cls-15 {
        font-family: AdobeFanHeitiStd-Bold-B5pc-H, 'Adobe Fan Heiti Std';
        font-size: 2.79px;
        font-weight: 700;
      }

      .cls-6 {
        stroke: #fff;
      }

      .cls-7 {
        stroke: #8f8f8f;
      }

      .cls-14 {
        font-size: 4.2px;
      }

      .cls-21 {
        fill: #db8e1d;
      }
    </style>
  </defs>
  <path class="cls-5" d="m170.12,45.01h-36.54c-1.41,0-2.56-1.15-2.56-2.56v-20.46c0-1.41,1.15-2.56,2.56-2.56h36.54c1.41,0,2.56,1.15,2.56,2.56v20.46c0,1.41-1.15,2.56-2.56,2.56Z"/>
  <text class="cls-11" transform="translate(140.64 33.82)"><tspan x="0" y="0">各區產線</tspan></text>
  <text class="cls-11" transform="translate(33.16 103.55)"><tspan x="0" y="0">戰情資訊</tspan></text>
  <path class="cls-7" d="m268.94,94.24h-36.54c-1.41,0-2.56-1.15-2.56-2.56v-20.46c0-1.41,1.15-2.56,2.56-2.56h36.54c1.41,0,2.56,1.15,2.56,2.56v20.46c0,1.41-1.14,2.56-2.56,2.56Z"/>
  <text class="cls-13" transform="translate(233.86 83.21)"><tspan x="0" y="0">全廠稼動分析</tspan></text>
  <path class="cls-17" d="m88.92,77.58c-.48-.24-.98-.29-1.5-.29H3.06c-.22,0-.43,0-.65.01-1.44.14-2.4,1.36-2.41,2.75C0,81.2,0,82.34,0,83.47v53.29c0,1.16.58,2.21,1.69,2.65.73.29,1.66.18,2.43.18h83.59c1.53-.04,2.64-1.24,2.65-2.75,0-.37,0-.75,0-1.12v-55.58c0-1.06-.46-2.07-1.45-2.57Zm.75,6.34v51.43c0,1.15-.74,2.11-1.95,2.15-.56,0-84.5.01-85.07,0-1.22-.03-1.95-1.01-1.95-2.15v-55.21c0-1.14.74-2.11,1.95-2.14.15,0,.31,0,.46,0h84.19c.18,0,.36,0,.53,0,1.19.08,1.83,1.09,1.83,2.18,0,1.25,0,2.5,0,3.74Z"/>
  <path class="cls-3" d="m108.01,76.65c0,9.26-7.51,16.77-16.77,16.77v-16.77l11.86-11.86c3.03,3.03,4.91,7.23,4.91,11.86Z"/>
  <path class="cls-3" d="m91.24,76.65h-16.77c0-4.63,1.88-8.82,4.91-11.86l11.86,11.86Z"/>
  <path class="cls-8" d="m91.24,59.88c4.63,0,8.82,1.88,11.86,4.91l-11.86,11.86-11.86-11.86c3.03-3.03,7.23-4.91,11.86-4.91Z"/>
  <text class="cls-15" transform="translate(96.98 80.24)"><tspan x="0" y="0">13%</tspan></text>
  <text class="cls-12" transform="translate(88.71 68)"><tspan x="0" y="0">25%</tspan></text>
  <text class="cls-15" transform="translate(78.46 73.69)"><tspan x="0" y="0">38%</tspan></text>
  <polyline class="cls-2" points="6.33 104.14 6.33 115.79 83.69 115.79"/>
  <rect class="cls-17" x="8.25" y="110.83" width="1.14" height="4.96"/>
  <rect class="cls-17" x="10.35" y="109.71" width="1.14" height="6.08"/>
  <rect class="cls-17" x="12.44" y="108.59" width="1.14" height="7.2"/>
  <rect class="cls-17" x="14.54" y="107.46" width="1.14" height="8.33"/>
  <rect class="cls-17" x="16.64" y="106.34" width="1.14" height="9.45"/>
  <rect class="cls-17" x="18.73" y="105.22" width="1.14" height="10.57"/>
  <rect class="cls-17" x="31.32" y="110.83" width="1.14" height="4.96"/>
  <rect class="cls-17" x="29.22" y="109.71" width="1.14" height="6.08"/>
  <rect class="cls-17" x="27.13" y="108.59" width="1.14" height="7.2"/>
  <rect class="cls-17" x="25.03" y="107.46" width="1.14" height="8.33"/>
  <rect class="cls-17" x="22.93" y="106.34" width="1.14" height="9.45"/>
  <rect class="cls-17" x="20.84" y="105.22" width="1.14" height="10.57"/>
  <rect class="cls-17" x="33.13" y="110.83" width="1.14" height="4.96"/>
  <rect class="cls-17" x="35.22" y="109.71" width="1.14" height="6.08"/>
  <rect class="cls-17" x="37.32" y="108.58" width="1.14" height="7.2"/>
  <rect class="cls-17" x="39.42" y="107.46" width="1.14" height="8.33"/>
  <rect class="cls-17" x="41.51" y="106.34" width="1.14" height="9.45"/>
  <rect class="cls-17" x="43.61" y="105.22" width="1.14" height="10.57"/>
  <rect class="cls-17" x="56.2" y="110.83" width="1.14" height="4.96"/>
  <rect class="cls-17" x="54.1" y="109.71" width="1.14" height="6.08"/>
  <rect class="cls-17" x="52" y="108.58" width="1.14" height="7.2"/>
  <rect class="cls-17" x="49.91" y="107.46" width="1.14" height="8.33"/>
  <rect class="cls-17" x="47.81" y="106.34" width="1.14" height="9.45"/>
  <rect class="cls-17" x="45.71" y="105.22" width="1.14" height="10.57"/>
  <rect class="cls-17" x="58.01" y="110.83" width="1.14" height="4.96"/>
  <rect class="cls-17" x="60.1" y="109.71" width="1.14" height="6.08"/>
  <rect class="cls-17" x="62.2" y="108.58" width="1.14" height="7.2"/>
  <rect class="cls-17" x="64.3" y="107.46" width="1.14" height="8.33"/>
  <rect class="cls-17" x="66.39" y="106.34" width="1.14" height="9.45"/>
  <rect class="cls-17" x="68.49" y="105.22" width="1.14" height="10.57"/>
  <rect class="cls-17" x="81.07" y="110.83" width="1.14" height="4.96"/>
  <rect class="cls-17" x="78.98" y="109.71" width="1.14" height="6.08"/>
  <rect class="cls-17" x="76.88" y="108.58" width="1.14" height="7.2"/>
  <rect class="cls-17" x="74.78" y="107.46" width="1.14" height="8.33"/>
  <rect class="cls-17" x="72.69" y="106.34" width="1.14" height="9.45"/>
  <rect class="cls-17" x="70.59" y="105.22" width="1.14" height="10.57"/>
  <circle class="cls-2" cx="6.31" cy="103.82" r=".41"/>
  <circle class="cls-6" cx="84.06" cy="115.79" r=".41"/>
  <g>
    <path class="cls-5" d="m228.62,25.83h-36.54c-1.41,0-2.56-1.15-2.56-2.56V2.81c0-1.41,1.15-2.56,2.56-2.56h36.54c1.41,0,2.56,1.15,2.56,2.56v20.46c0,1.41-1.14,2.56-2.56,2.56Z"/>
    <text class="cls-11" transform="translate(201.41 11.5)"><tspan x="0" y="0">機台01</tspan></text>
    <text class="cls-14" transform="translate(191.44 18.47)"><tspan x="0" y="0">良率、不良率、單號</tspan></text>
  </g>
  <g>
    <path class="cls-7" d="m322.87,45.02h-36.54c-1.41,0-2.56-1.15-2.56-2.56v-20.46c0-1.41,1.15-2.56,2.56-2.56h36.54c1.41,0,2.56,1.15,2.56,2.56v20.46c0,1.41-1.14,2.56-2.56,2.56Z"/>
    <g class="cls-4">
      <text class="cls-13" transform="translate(293.32 31.02)"><tspan x="0" y="0">當日全廠</tspan></text>
      <text class="cls-13" transform="translate(293.32 36.95)"><tspan x="0" y="0">OEE趨勢</tspan></text>
    </g>
  </g>
  <g>
    <path class="cls-7" d="m368.24,62.25h-36.54c-1.41,0-2.56-1.15-2.56-2.56v-20.46c0-1.41,1.15-2.56,2.56-2.56h36.54c1.41,0,2.56,1.15,2.56,2.56v20.46c0,1.41-1.15,2.56-2.56,2.56Z"/>
    <g class="cls-4">
      <text class="cls-13" transform="translate(332.62 49.45)"><tspan x="0" y="0">各機台狀態累</tspan></text>
      <text class="cls-13" transform="translate(332.62 56.17)"><tspan x="0" y="0">積時間</tspan></text>
    </g>
  </g>
  <g>
    <path class="cls-7" d="m413.6,79.49h-36.54c-1.41,0-2.56-1.15-2.56-2.56v-20.46c0-1.41,1.15-2.56,2.56-2.56h36.54c1.41,0,2.56,1.15,2.56,2.56v20.46c0,1.41-1.15,2.56-2.56,2.56Z"/>
    <text class="cls-13" transform="translate(378.71 68.82)"><tspan x="0" y="0">本日生產任務</tspan></text>
  </g>
  <g>
    <path class="cls-7" d="m458.97,96.72h-36.54c-1.41,0-2.56-1.15-2.56-2.56v-20.46c0-1.41,1.15-2.56,2.56-2.56h36.54c1.41,0,2.56,1.15,2.56,2.56v20.46c0,1.41-1.15,2.56-2.56,2.56Z"/>
    <text class="cls-13" transform="translate(423.72 86.27)"><tspan x="0" y="0">生產逾期任務</tspan></text>
  </g>
  <g>
    <path class="cls-7" d="m504.33,113.96h-36.54c-1.41,0-2.56-1.15-2.56-2.56v-20.46c0-1.41,1.15-2.56,2.56-2.56h36.54c1.41,0,2.56,1.15,2.56,2.56v20.46c0,1.41-1.14,2.56-2.56,2.56Z"/>
    <text class="cls-13" transform="translate(468.9 103.77)"><tspan x="0" y="0">設備即時狀態</tspan></text>
  </g>
  <g>
    <path class="cls-7" d="m549.7,131.2h-36.54c-1.41,0-2.56-1.15-2.56-2.56v-20.46c0-1.41,1.15-2.56,2.56-2.56h36.54c1.41,0,2.56,1.15,2.56,2.56v20.46c0,1.41-1.14,2.56-2.56,2.56Z"/>
    <g class="cls-4">
      <text class="cls-13" transform="translate(514.92 118.12)"><tspan x="0" y="0">機台各狀態時</tspan></text>
      <text class="cls-13" transform="translate(514.92 124.84)"><tspan x="0" y="0">間佔比</tspan></text>
    </g>
  </g>
  <g>
    <path class="cls-7" d="m595.06,148.43h-36.54c-1.41,0-2.56-1.15-2.56-2.56v-20.46c0-1.41,1.15-2.56,2.56-2.56h36.54c1.41,0,2.56,1.15,2.56,2.56v20.46c0,1.41-1.14,2.56-2.56,2.56Z"/>
    <text class="cls-13" transform="translate(559.48 137.27)"><tspan x="0" y="0">設備異常事件</tspan></text>
  </g>
  <path class="cls-5" d="m228.62,64.2h-36.54c-1.41,0-2.56-1.15-2.56-2.56v-20.46c0-1.41,1.15-2.56,2.56-2.56h36.54c1.41,0,2.56,1.15,2.56,2.56v20.46c0,1.41-1.14,2.56-2.56,2.56Z"/>
  <text class="cls-11" transform="translate(202.44 49.87)"><tspan x="0" y="0">機台N</tspan></text>
  <text class="cls-14" transform="translate(191.44 56.84)"><tspan x="0" y="0">良率、不良率、單號</tspan></text>
  <g>
    <circle class="cls-16" cx="210.35" cy="30.16" r=".62"/>
    <circle class="cls-16" cx="210.35" cy="32.1" r=".62"/>
    <circle class="cls-16" cx="210.35" cy="34.04" r=".62"/>
  </g>
  <path class="cls-1" d="m172.67,32.22h3.22c2.19,0,3.97-1.78,3.97-3.97v-11.27c0-2.19,1.78-3.97,3.97-3.97h5.65"/>
  <path class="cls-1" d="m189.47,51.42h-3.22c-2.19,0-3.97-1.78-3.97-3.97v-11.27c0-2.19-1.78-3.97-3.97-3.97h-5.65"/>
  <path class="cls-5" d="m373.22,224.87h-36.54c-1.41,0-2.56-1.15-2.56-2.56v-20.46c0-1.41,1.15-2.56,2.56-2.56h36.54c1.41,0,2.56,1.15,2.56,2.56v20.46c0,1.41-1.14,2.56-2.56,2.56Z"/>
  <g class="cls-4">
    <text class="cls-11" transform="translate(343.74 210.9)"><tspan x="0" y="0">全廠設備</tspan></text>
    <text class="cls-11" transform="translate(343.74 217.62)"><tspan x="0" y="0">稼動分析</tspan></text>
  </g>
  <g>
    <path class="cls-5" d="m431.72,188.24h-36.54c-1.41,0-2.56-1.15-2.56-2.56v-20.46c0-1.41,1.15-2.56,2.56-2.56h36.54c1.41,0,2.56,1.15,2.56,2.56v20.46c0,1.41-1.14,2.56-2.56,2.56Z"/>
    <g class="cls-4">
      <text class="cls-11" transform="translate(396.64 174.64)"><tspan x="0" y="0">當日機台稼動</tspan></text>
      <text class="cls-11" transform="translate(396.64 181.37)"><tspan x="0" y="0">時間比</tspan></text>
    </g>
  </g>
  <g>
    <path class="cls-5" d="m431.72,224.83h-36.54c-1.41,0-2.56-1.15-2.56-2.56v-20.46c0-1.41,1.15-2.56,2.56-2.56h36.54c1.41,0,2.56,1.15,2.56,2.56v20.46c0,1.41-1.14,2.56-2.56,2.56Z"/>
    <g class="cls-4">
      <text class="cls-11" transform="translate(402.24 211.24)"><tspan x="0" y="0">停機因素</tspan></text>
      <text class="cls-11" transform="translate(402.24 217.96)"><tspan x="0" y="0">佔比分析</tspan></text>
    </g>
  </g>
  <g>
    <path class="cls-5" d="m431.72,261.43h-36.54c-1.41,0-2.56-1.15-2.56-2.56v-20.46c0-1.41,1.15-2.56,2.56-2.56h36.54c1.41,0,2.56,1.15,2.56,2.56v20.46c0,1.41-1.14,2.56-2.56,2.56Z"/>
    <g class="cls-4">
      <text class="cls-11" transform="translate(393.84 247.83)"><tspan x="0" y="0">當日機台各狀態</tspan></text>
      <text class="cls-11" transform="translate(393.84 254.55)"><tspan x="0" y="0">時數統計</tspan></text>
    </g>
  </g>
  <path class="cls-5" d="m234.82,157.45h-36.54c-1.41,0-2.56-1.15-2.56-2.56v-20.46c0-1.41,1.15-2.56,2.56-2.56h36.54c1.41,0,2.56,1.15,2.56,2.56v20.46c0,1.41-1.15,2.56-2.56,2.56Z"/>
  <g class="cls-4">
    <text class="cls-11" transform="translate(199.94 143.78)"><tspan x="0" y="0">生產進度追蹤</tspan></text>
    <text class="cls-11" transform="translate(199.94 150.5)"><tspan x="0" y="0">即時戰情</tspan></text>
  </g>
  <path class="cls-7" d="m317.48,189.8h-36.54c-1.41,0-2.56-1.15-2.56-2.56v-20.46c0-1.41,1.15-2.56,2.56-2.56h36.54c1.41,0,2.56,1.15,2.56,2.56v20.46c0,1.41-1.14,2.56-2.56,2.56Z"/>
  <g class="cls-4">
    <text class="cls-13" transform="translate(282.6 176.13)"><tspan x="0" y="0">出貨即時戰情</tspan></text>
    <text class="cls-13" transform="translate(282.6 182.85)"><tspan x="0" y="0">近兩個月趨勢</tspan></text>
  </g>
  <path class="cls-1" d="m130.97,32.22h-7.83c-4.35,0-7.87,3.52-7.87,7.87v60.63c0,4.35-3.52,7.87-7.87,7.87h-17.14"/>
  <path class="cls-1" d="m90.26,108.6h7.83c4.35,0,7.87,3.52,7.87,7.87v20.28c0,4.35,3.52,7.87,7.87,7.87h81.84"/>
  <path class="cls-7" d="m90.26,108.55h7.83c4.35,0,7.87,3.52,7.87,7.87v52.65c0,4.35,3.52,7.87,7.87,7.87h164.5"/>
  <path class="cls-1" d="m90.26,108.55h7.83c4.35,0,7.87,3.52,7.87,7.87v87.81c0,4.35,3.52,7.87,7.87,7.87h220.41"/>
  <path class="cls-7" d="m90.12,108.6h109.07c4.97,0,8.99-4.03,8.99-8.99v-9.17c0-4.97,4.03-8.99,8.99-8.99h12.75"/>
  <path class="cls-7" d="m271.48,81.43h0c3.07,0,5.56-2.49,5.56-5.56v-38.09c0-3.07,2.49-5.56,5.56-5.56h1.18"/>
  <path class="cls-7" d="m329.14,49.63h-23.34c-3.07,0-5.56,2.49-5.56,5.56v20.68c0,3.07-2.49,5.56-5.56,5.56h-23.12"/>
  <path class="cls-7" d="m374.5,66.71h-68.7c-3.07,0-5.56,2.49-5.56,5.56v3.6c0,3.07-2.49,5.56-5.56,5.56h-20.38"/>
  <path class="cls-7" d="m419.86,84.05h-115.62c-.73,0-1.32-.59-1.32-1.32h0c0-.73-.59-1.32-1.32-1.32l-25.19.03"/>
  <path class="cls-7" d="m465.21,101.22h-156.73c-3.07,0-5.56-2.49-5.56-5.56v-8.7c0-3.07-2.48-5.56-5.55-5.56l-16.2-.03"/>
  <path class="cls-7" d="m273.16,81.37h19.47c3.07,0,5.56,2.49,5.56,5.56v25.92c0,3.07,2.49,5.56,5.56,5.56h206.82"/>
  <path class="cls-7" d="m555.96,135.62h-255.51c-3.07,0-5.56-2.49-5.56-5.56v-43.13c0-3.07-2.49-5.56-5.56-5.56h-15.87"/>
  <path class="cls-1" d="m375.77,212.06h0c4.47,0,8.09-3.62,8.09-8.09v-20.43c0-4.47,3.62-8.09,8.09-8.09h.68"/>
  <path class="cls-1" d="m375.77,212.02h0c4.47,0,8.09,3.62,8.09,8.09v20.43c0,4.47,3.62,8.09,8.09,8.09h.68"/>
  <line class="cls-1" x1="375.84" y1="212.04" x2="392.65" y2="212.04"/>
  <g>
    <rect class="cls-19" x="30.54" y="281.43" width="46.59" height="46.59"/>
    <g>
      <path class="cls-18" d="m35.28,339.25h-.98l-2.7-4.17c-.1-.15-.17-.29-.22-.4h-.02c.02.15.03.42.03.82v3.74h-.85v-5.65h1.04l2.62,4.09c.12.19.21.33.25.4h.02c-.03-.18-.04-.44-.04-.81v-3.68h.85v5.65h0Z"/>
      <path class="cls-18" d="m36.34,337.27c0-.66.19-1.19.57-1.57s.89-.58,1.55-.58c.61,0,1.1.19,1.46.56s.54.88.54,1.52-.19,1.17-.57,1.56c-.38.39-.88.58-1.51.58s-1.11-.19-1.48-.57-.55-.88-.55-1.51Zm.87-.02c0,.44.11.79.32,1.04s.51.37.88.37c.78,0,1.16-.48,1.16-1.43,0-.46-.1-.81-.3-1.06-.2-.24-.49-.36-.86-.36s-.67.13-.88.39-.32.61-.32,1.06Z"/>
      <path class="cls-18" d="m43.69,336.04c-.13-.08-.29-.12-.5-.12-.28,0-.5.12-.67.36s-.26.57-.26.97v2.01h-.86v-4.03h.86v.8h.02c.2-.58.55-.87,1.06-.87.15,0,.27.02.36.05v.84h0Z"/>
      <path class="cls-18" d="m50.3,339.25h-.86v-2.31c0-.4-.06-.69-.19-.86s-.33-.27-.62-.27c-.24,0-.45.11-.63.34s-.26.5-.26.82v2.29h-.85v-2.37c0-.71-.27-1.07-.82-1.07-.25,0-.46.11-.63.32s-.25.5-.25.84v2.28h-.86v-4.03h.86v.63h.02c.29-.49.71-.73,1.27-.73s.95.27,1.15.81c.3-.54.75-.81,1.35-.81.88,0,1.32.55,1.32,1.64v2.49h0Z"/>
      <path class="cls-18" d="m51.53,335.49c.41-.24.89-.36,1.43-.36,1.02,0,1.53.53,1.53,1.58v2.55h-.83v-.61h-.02c-.28.47-.68.71-1.23.71-.4,0-.71-.11-.94-.32-.23-.21-.34-.5-.34-.86,0-.76.45-1.2,1.35-1.33l1.17-.16c0-.6-.26-.9-.79-.9-.48,0-.93.16-1.33.47v-.76h0Zm1.24,1.89c-.29.04-.5.11-.62.22s-.18.27-.18.48c0,.18.06.32.19.44.13.11.29.17.5.17.29,0,.53-.1.71-.3s.28-.46.28-.77v-.36l-.89.12Z"/>
      <path class="cls-18" d="m55.61,339.25v-5.97h.86v5.97h-.86Z"/>
      <path class="cls-18" d="m31.42,346.15v2.07h-.88v-5.65h1.71c.64,0,1.13.15,1.47.44.34.3.51.72.51,1.29s-.2,1.02-.61,1.37c-.41.34-.91.51-1.51.49h-.7Zm0-2.85v2.12h.63c.84,0,1.27-.36,1.27-1.09s-.4-1.03-1.21-1.03h-.68Z"/>
      <path class="cls-18" d="m37.41,345c-.13-.08-.29-.12-.5-.12-.28,0-.5.12-.67.36s-.26.57-.26.97v2.01h-.86v-4.03h.86v.8h.02c.2-.58.55-.87,1.06-.87.15,0,.27.02.36.05v.84h0Z"/>
      <path class="cls-18" d="m37.7,346.24c0-.66.19-1.19.57-1.57s.89-.58,1.55-.58c.61,0,1.1.19,1.46.56s.54.88.54,1.52-.19,1.17-.57,1.56c-.38.39-.88.58-1.51.58s-1.11-.19-1.48-.57-.55-.88-.55-1.51Zm.87-.02c0,.44.11.79.32,1.04s.51.37.88.37c.78,0,1.16-.48,1.16-1.43,0-.46-.1-.81-.3-1.06-.2-.24-.49-.36-.86-.36s-.67.13-.88.39-.32.61-.32,1.06Z"/>
      <path class="cls-18" d="m46.38,348.22h-.85v-.64h-.02c-.29.49-.74.73-1.33.73-.51,0-.92-.18-1.22-.55s-.45-.85-.45-1.47c0-.67.17-1.2.51-1.61.34-.4.78-.6,1.33-.6s.94.21,1.17.62h.02v-2.46h.85v5.97h0Zm-.85-2.36c0-.31-.1-.56-.3-.77s-.44-.31-.73-.31c-.35,0-.62.13-.82.4s-.31.63-.31,1.09c0,.42.1.76.29,1,.19.24.45.37.78.37s.58-.12.79-.36c.2-.24.3-.55.3-.92v-.49Z"/>
      <path class="cls-18" d="m51.06,348.22h-.85v-.63h-.02c-.28.48-.69.73-1.24.73-.95,0-1.43-.57-1.43-1.71v-2.42h.85v2.31c0,.75.29,1.13.87,1.13.28,0,.51-.1.69-.31s.27-.48.27-.81v-2.32h.85v4.03h0Z"/>
      <path class="cls-18" d="m55.13,348.05c-.3.18-.68.27-1.14.27-.59,0-1.07-.19-1.43-.56s-.55-.86-.55-1.46c0-.67.2-1.21.59-1.61.39-.4.91-.6,1.57-.6.4,0,.73.06.97.19v.8c-.29-.21-.6-.31-.93-.31-.39,0-.71.13-.96.4s-.37.62-.37,1.06.12.78.35,1.02c.23.25.54.37.94.37.34,0,.66-.11.96-.33v.75h0Z"/>
      <path class="cls-18" d="m58.12,348.17c-.16.09-.39.13-.68.13-.77,0-1.15-.42-1.15-1.25v-2.2h-.68v-.68h.68v-.94l.85-.26v1.2h.98v.68h-.98v2.05c0,.25.04.43.13.54s.23.17.43.17c.15,0,.29-.04.42-.13,0,0,0,.68,0,.68Z"/>
      <path class="cls-18" d="m58.83,342.8c0-.14.05-.26.15-.36s.22-.14.37-.14.27.05.38.14c.1.09.15.21.15.36s-.05.26-.15.36c-.1.09-.23.14-.38.14s-.27-.05-.37-.14c-.1-.1-.15-.21-.15-.35Zm.08,5.42v-4.03h.86v4.03h-.86Z"/>
      <path class="cls-18" d="m60.72,346.24c0-.66.19-1.19.57-1.57s.89-.58,1.55-.58c.61,0,1.1.19,1.46.56s.54.88.54,1.52-.19,1.17-.57,1.56c-.38.39-.88.58-1.51.58s-1.11-.19-1.48-.57-.55-.88-.55-1.51Zm.87-.02c0,.44.11.79.32,1.04s.51.37.88.37c.78,0,1.16-.48,1.16-1.43,0-.46-.1-.81-.3-1.06-.2-.24-.49-.36-.86-.36s-.67.13-.88.39-.32.61-.32,1.06Z"/>
      <path class="cls-18" d="m69.32,348.22h-.85v-2.28c0-.78-.28-1.16-.85-1.16-.28,0-.52.11-.71.32s-.28.49-.28.82v2.3h-.86v-4.03h.86v.66h.02c.3-.5.74-.76,1.31-.76.9,0,1.35.55,1.35,1.66v2.47h0Z"/>
    </g>
  </g>
  <g>
    <rect class="cls-9" x="152.59" y="281.43" width="46.59" height="46.59"/>
    <g>
      <path class="cls-18" d="m156.72,334.35h-1.62v4.9h-.88v-4.9h-1.62v-.75h4.12v.75h0Z"/>
      <path class="cls-18" d="m160,337.47h-2.77c.04.81.45,1.22,1.24,1.22.45,0,.85-.13,1.22-.4v.71c-.36.24-.83.35-1.42.35s-1.07-.18-1.4-.55-.51-.88-.51-1.53c0-.62.18-1.14.55-1.54.36-.4.82-.61,1.37-.61s.97.17,1.27.52.45.82.45,1.42v.4Zm-.83-.62c0-.35-.08-.61-.24-.8-.16-.18-.38-.28-.66-.28-.26,0-.49.1-.68.29-.19.2-.31.46-.36.78h1.94Z"/>
      <path class="cls-18" d="m160.71,338.32c.38.26.77.38,1.17.38.54,0,.8-.17.8-.5,0-.14-.06-.25-.17-.34-.11-.09-.36-.21-.76-.35-.41-.16-.69-.33-.83-.51-.14-.18-.22-.4-.22-.67,0-.37.16-.67.47-.88s.7-.32,1.16-.32c.35,0,.68.06.99.18v.76c-.31-.19-.65-.28-1.03-.28-.22,0-.39.05-.53.13-.13.09-.2.21-.2.35s.05.26.15.34.32.19.68.33c.44.16.74.33.9.51s.24.41.24.68c0,.38-.16.68-.47.9s-.72.33-1.23.33c-.43,0-.81-.08-1.13-.23v-.81h0Z"/>
      <path class="cls-18" d="m166.5,339.21c-.16.09-.39.13-.68.13-.77,0-1.15-.42-1.15-1.25v-2.2h-.68v-.68h.68v-.94l.85-.26v1.2h.98v.68h-.98v2.05c0,.25.04.43.13.54s.23.17.43.17c.15,0,.29-.04.42-.13v.68Z"/>
      <path class="cls-18" d="m167.21,333.83c0-.14.05-.26.15-.36s.22-.14.37-.14.27.05.38.14.15.21.15.36-.05.26-.15.36-.23.14-.38.14-.27-.05-.37-.14c-.1-.1-.15-.21-.15-.35Zm.08,5.42v-4.03h.86v4.03h-.86Z"/>
      <path class="cls-18" d="m172.9,339.25h-.85v-2.28c0-.78-.28-1.16-.85-1.16-.28,0-.52.11-.71.32s-.28.49-.28.82v2.3h-.86v-4.03h.86v.66h.02c.3-.5.74-.76,1.31-.76.9,0,1.35.55,1.35,1.66v2.47h0Z"/>
      <path class="cls-18" d="m177.66,338.88c0,1.51-.76,2.27-2.27,2.27-.51,0-.95-.09-1.31-.26v-.79c.44.25.87.37,1.29.37.95,0,1.43-.49,1.43-1.46v-.4h-.01c-.3.49-.74.74-1.34.74-.51,0-.91-.18-1.22-.54-.31-.36-.46-.84-.46-1.45,0-.68.17-1.22.5-1.63s.78-.61,1.34-.61c.53,0,.92.21,1.17.62h.01v-.53h.86v3.66h0Zm-.85-1.99c0-.3-.1-.55-.3-.76s-.44-.32-.73-.32c-.35,0-.63.13-.83.4-.2.27-.3.64-.3,1.11,0,.41.1.73.29.98.19.24.45.37.77.37s.59-.12.79-.36c.21-.24.31-.54.31-.91v-.5Z"/>
      <path class="cls-18" d="m185.97,339.25v-3.65c0-.32.02-.7.05-1.13h-.02c-.07.31-.13.52-.17.62l-1.72,4.17h-.57l-1.73-4.13c-.04-.1-.1-.32-.17-.65h-.02c.02.34.04.75.04,1.23v3.55h-.81v-5.65h1.22l1.53,3.73c.12.29.2.53.24.73h.03c.05-.15.13-.4.26-.74l1.55-3.72h1.17v5.65h-.87Z"/>
      <path class="cls-18" d="m187.89,337.27c0-.66.19-1.19.57-1.57s.89-.58,1.55-.58c.61,0,1.1.19,1.46.56s.54.88.54,1.52-.19,1.17-.57,1.56c-.38.39-.88.58-1.51.58s-1.11-.19-1.48-.57-.55-.88-.55-1.51Zm.87-.02c0,.44.11.79.32,1.04s.51.37.88.37c.78,0,1.16-.48,1.16-1.43,0-.46-.1-.81-.3-1.06-.2-.24-.49-.36-.86-.36s-.67.13-.88.39-.32.61-.32,1.06Z"/>
      <path class="cls-18" d="m192.94,339.25v-5.97h.86v5.97h-.86Z"/>
      <path class="cls-18" d="m198.63,339.25h-.85v-.64h-.02c-.29.49-.74.73-1.33.73-.51,0-.92-.18-1.22-.55s-.45-.85-.45-1.47c0-.67.17-1.2.51-1.61.34-.4.78-.6,1.33-.6s.94.21,1.17.62h.02v-2.46h.85v5.97h0Zm-.85-2.36c0-.31-.1-.56-.3-.77s-.44-.31-.73-.31c-.35,0-.62.13-.82.4s-.31.63-.31,1.09c0,.42.1.76.29,1,.19.24.45.37.78.37s.58-.12.79-.36c.2-.24.3-.55.3-.92v-.49Z"/>
    </g>
  </g>
  <rect class="cls-21" x="274.64" y="281.43" width="46.59" height="46.59"/>
  <g>
    <rect class="cls-20" x="396.69" y="281.43" width="46.59" height="46.59"/>
    <g>
      <path class="cls-18" d="m400.09,338.93h-3.13v-5.65h3v.75h-2.13v1.66h1.97v.75h-1.97v1.74h2.25v.75Z"/>
      <path class="cls-18" d="m406.98,338.93h-.86v-2.31c0-.4-.06-.69-.19-.86s-.33-.27-.62-.27c-.24,0-.45.11-.63.34s-.26.5-.26.82v2.29h-.85v-2.37c0-.71-.27-1.07-.82-1.07-.25,0-.46.11-.63.32s-.25.5-.25.84v2.28h-.86v-4.03h.86v.63h.02c.29-.49.71-.73,1.27-.73s.95.27,1.15.81c.3-.54.75-.81,1.35-.81.88,0,1.32.55,1.32,1.64v2.49h0Z"/>
      <path class="cls-18" d="m411.49,337.14h-2.77c.04.81.45,1.22,1.24,1.22.45,0,.85-.13,1.22-.4v.71c-.36.24-.83.35-1.42.35s-1.07-.18-1.4-.55-.51-.88-.51-1.53c0-.62.18-1.14.55-1.54.36-.4.82-.61,1.37-.61s.97.17,1.27.52.45.82.45,1.42v.4h0Zm-.83-.62c0-.35-.08-.61-.24-.8-.16-.18-.38-.28-.66-.28-.26,0-.49.1-.68.29-.19.2-.31.46-.36.78h1.94Z"/>
      <path class="cls-18" d="m414.68,335.72c-.13-.08-.29-.12-.5-.12-.28,0-.5.12-.67.36s-.26.57-.26.97v2.01h-.86v-4.03h.86v.8h.02c.2-.58.55-.87,1.06-.87.15,0,.27.02.36.05v.84h0Z"/>
      <path class="cls-18" d="m418.86,338.56c0,1.51-.76,2.27-2.27,2.27-.51,0-.95-.09-1.31-.26v-.79c.44.25.87.37,1.29.37.95,0,1.43-.49,1.43-1.46v-.4h-.01c-.3.49-.74.74-1.34.74-.51,0-.91-.18-1.22-.54-.31-.36-.46-.84-.46-1.45,0-.68.17-1.22.5-1.63s.78-.61,1.34-.61c.53,0,.92.21,1.17.62h.01v-.53h.86v3.66h0Zm-.85-1.99c0-.3-.1-.55-.3-.76s-.44-.32-.73-.32c-.35,0-.63.13-.83.4-.2.27-.3.64-.3,1.11,0,.41.1.73.29.98.19.24.45.37.77.37s.59-.12.79-.36c.21-.24.31-.54.31-.91v-.5Z"/>
      <path class="cls-18" d="m423.44,337.14h-2.77c.04.81.45,1.22,1.24,1.22.45,0,.85-.13,1.22-.4v.71c-.36.24-.83.35-1.42.35s-1.07-.18-1.4-.55-.51-.88-.51-1.53c0-.62.18-1.14.55-1.54.36-.4.82-.61,1.37-.61s.97.17,1.27.52.45.82.45,1.42v.4h0Zm-.83-.62c0-.35-.08-.61-.24-.8-.16-.18-.38-.28-.66-.28-.26,0-.49.1-.68.29-.19.2-.31.46-.36.78h1.94Z"/>
      <path class="cls-18" d="m427.88,338.93h-.85v-2.28c0-.78-.28-1.16-.85-1.16-.28,0-.52.11-.71.32s-.28.49-.28.82v2.3h-.86v-4.03h.86v.66h.02c.3-.5.74-.76,1.31-.76.9,0,1.35.55,1.35,1.66v2.47h0Z"/>
      <path class="cls-18" d="m431.87,338.76c-.3.18-.68.27-1.14.27-.59,0-1.07-.19-1.43-.56s-.55-.86-.55-1.46c0-.67.2-1.21.59-1.61.39-.4.91-.6,1.57-.6.4,0,.73.06.97.19v.8c-.29-.21-.6-.31-.93-.31-.39,0-.71.13-.96.4s-.37.62-.37,1.06.12.78.35,1.02c.23.25.54.37.94.37.34,0,.66-.11.96-.33v.75h0Z"/>
      <path class="cls-18" d="m436.22,334.9l-1.78,4.57c-.35.91-.86,1.36-1.53,1.36-.22,0-.4-.02-.53-.07v-.72c.14.06.29.09.44.09.32,0,.56-.18.71-.54l.28-.67-1.6-4.03h.95l.97,2.88c.02.06.05.19.09.39h.02c.01-.08.04-.2.1-.38l1.01-2.89h.86Z"/>
      <path class="cls-18" d="m396.69,346.73c.43.35.94.53,1.53.53.75,0,1.12-.26,1.12-.77,0-.15-.04-.28-.12-.4s-.19-.22-.33-.31c-.14-.09-.42-.23-.83-.43-.51-.24-.86-.49-1.07-.74-.2-.25-.3-.54-.3-.88,0-.49.19-.87.58-1.15s.88-.42,1.47-.42c.57,0,.99.07,1.28.21v.9c-.35-.24-.78-.36-1.3-.36-.33,0-.6.07-.81.2s-.31.32-.31.55c0,.21.07.39.22.52s.47.32.95.55c.56.26.95.53,1.16.79s.32.57.32.91c0,.51-.18.9-.55,1.17s-.88.4-1.54.4c-.24,0-.51-.03-.8-.09-.29-.06-.52-.14-.68-.23v-.94h0Z"/>
      <path class="cls-18" d="m401.13,342.48c0-.14.05-.26.15-.36s.22-.14.37-.14.27.05.38.14.15.21.15.36-.05.26-.15.36-.23.14-.38.14-.27-.05-.37-.14c-.1-.09-.15-.21-.15-.35Zm.08,5.42v-4.03h.86v4.03h-.86Z"/>
      <path class="cls-18" d="m405.35,347.85c-.16.09-.39.13-.68.13-.77,0-1.15-.42-1.15-1.25v-2.2h-.68v-.68h.68v-.94l.85-.26v1.2h.98v.68h-.98v2.05c0,.25.04.43.13.54s.23.17.43.17c.15,0,.29-.04.42-.13v.68Z"/>
      <path class="cls-18" d="m409.62,347.9h-.85v-.63h-.02c-.28.48-.69.73-1.24.73-.95,0-1.43-.57-1.43-1.71v-2.42h.85v2.31c0,.75.29,1.13.87,1.13.28,0,.51-.1.69-.31s.27-.48.27-.81v-2.32h.85v4.03h0Z"/>
      <path class="cls-18" d="m410.93,344.13c.41-.24.89-.36,1.43-.36,1.02,0,1.53.53,1.53,1.58v2.55h-.83v-.61h-.02c-.28.47-.68.71-1.23.71-.4,0-.71-.11-.94-.32-.23-.21-.34-.5-.34-.86,0-.76.45-1.2,1.35-1.33l1.17-.16c0-.6-.26-.9-.79-.9-.48,0-.93.16-1.33.47v-.76h0Zm1.24,1.89c-.29.04-.5.11-.62.22s-.18.27-.18.48c0,.18.06.32.19.44.13.11.29.17.5.17.29,0,.53-.1.71-.3s.28-.46.28-.77v-.36l-.89.12Z"/>
      <path class="cls-18" d="m417.09,347.85c-.16.09-.39.13-.68.13-.77,0-1.15-.42-1.15-1.25v-2.2h-.68v-.68h.68v-.94l.85-.26v1.2h.98v.68h-.98v2.05c0,.25.04.43.13.54s.23.17.43.17c.15,0,.29-.04.42-.13v.68Z"/>
      <path class="cls-18" d="m417.81,342.48c0-.14.05-.26.15-.36s.22-.14.37-.14.27.05.38.14.15.21.15.36-.05.26-.15.36-.23.14-.38.14-.27-.05-.37-.14c-.1-.09-.15-.21-.15-.35Zm.08,5.42v-4.03h.86v4.03h-.86Z"/>
      <path class="cls-18" d="m419.7,345.92c0-.66.19-1.19.57-1.57s.89-.58,1.55-.58c.61,0,1.1.19,1.46.56s.54.88.54,1.52-.19,1.17-.57,1.56c-.38.39-.88.58-1.51.58s-1.11-.19-1.48-.57-.55-.88-.55-1.51Zm.87-.02c0,.44.11.79.32,1.04s.51.37.88.37c.78,0,1.16-.48,1.16-1.43,0-.46-.1-.81-.3-1.06-.2-.24-.49-.36-.86-.36s-.67.13-.88.39-.32.61-.32,1.06Z"/>
      <path class="cls-18" d="m428.3,347.9h-.85v-2.28c0-.78-.28-1.16-.85-1.16-.28,0-.52.11-.71.32s-.28.49-.28.82v2.3h-.86v-4.03h.86v.66h.02c.3-.5.74-.76,1.31-.76.9,0,1.35.55,1.35,1.66v2.47h0Z"/>
    </g>
  </g>
  <g>
    <rect class="cls-10" x="518.74" y="281.43" width="46.59" height="46.59"/>
    <g>
      <path class="cls-18" d="m523.48,339.2h-.98l-2.7-4.17c-.1-.15-.17-.29-.22-.4h-.02c.02.15.03.42.03.82v3.74h-.85v-5.65h1.04l2.62,4.09c.12.19.21.33.25.4h.02c-.03-.18-.04-.44-.04-.81v-3.68h.85v5.65h0Z"/>
      <path class="cls-18" d="m524.53,337.22c0-.66.19-1.19.57-1.57.38-.38.89-.58,1.55-.58.61,0,1.1.19,1.46.56s.54.88.54,1.52-.19,1.17-.57,1.56c-.38.39-.88.58-1.51.58s-1.11-.19-1.48-.57-.55-.88-.55-1.51Zm.87-.02c0,.44.11.79.32,1.04s.51.37.88.37c.78,0,1.16-.48,1.16-1.43,0-.46-.1-.81-.3-1.06-.2-.24-.49-.36-.86-.36s-.67.13-.88.39-.32.61-.32,1.06Z"/>
      <path class="cls-18" d="m531.2,336.44c0-.89.25-1.61.75-2.17s1.17-.83,2.02-.83c.8,0,1.43.27,1.92.8s.72,1.22.72,2.06c0,.89-.25,1.61-.74,2.16s-1.16.82-1.99.82-1.44-.26-1.94-.8c-.49-.53-.74-1.21-.74-2.05Zm.92-.06c0,.62.16,1.14.48,1.54s.75.6,1.29.6c.57,0,1.01-.19,1.33-.57s.47-.9.47-1.55-.15-1.19-.46-1.58c-.31-.39-.74-.58-1.3-.58s-.99.2-1.32.61-.49.92-.49,1.55Z"/>
      <path class="cls-18" d="m538.41,338.66v2.4h-.86v-5.89h.86v.67h.02c.31-.51.76-.77,1.36-.77.51,0,.92.18,1.21.54.29.36.44.84.44,1.46,0,.67-.17,1.21-.5,1.62-.33.41-.78.61-1.34.61-.51,0-.9-.21-1.17-.64h-.02Zm0-1.16c0,.31.1.58.29.79s.44.32.74.32c.36,0,.63-.14.83-.41s.3-.65.3-1.14c0-.42-.09-.74-.27-.96s-.44-.34-.77-.34-.6.12-.8.36-.31.54-.31.9v.48h0Z"/>
      <path class="cls-18" d="m545.77,337.41h-2.77c.04.81.45,1.22,1.24,1.22.45,0,.85-.13,1.22-.4v.71c-.36.24-.83.35-1.42.35s-1.07-.18-1.4-.55-.51-.88-.51-1.53c0-.62.18-1.14.55-1.54.36-.4.82-.61,1.37-.61s.97.17,1.27.52.45.82.45,1.42v.4h0Zm-.83-.62c0-.35-.08-.61-.24-.8-.16-.18-.38-.28-.66-.28-.26,0-.49.1-.68.29-.19.2-.31.46-.36.78h1.94Z"/>
      <path class="cls-18" d="m548.95,335.98c-.13-.08-.29-.12-.5-.12-.28,0-.5.12-.67.36s-.26.57-.26.97v2.01h-.86v-4.03h.86v.8h.02c.2-.58.55-.87,1.06-.87.15,0,.27.02.36.05v.84h0Z"/>
      <path class="cls-18" d="m549.71,335.43c.41-.24.89-.36,1.43-.36,1.02,0,1.53.53,1.53,1.58v2.55h-.83v-.61h-.02c-.28.47-.68.71-1.23.71-.4,0-.71-.11-.94-.32-.23-.21-.34-.5-.34-.86,0-.76.45-1.2,1.35-1.33l1.17-.16c0-.6-.26-.9-.79-.9-.48,0-.93.16-1.33.47v-.76h0Zm1.24,1.89c-.29.04-.5.11-.62.22s-.18.27-.18.48c0,.18.06.32.19.44.13.11.29.17.5.17.29,0,.53-.1.71-.3s.28-.46.28-.77v-.36l-.89.12Z"/>
      <path class="cls-18" d="m555.87,339.16c-.16.09-.39.13-.68.13-.77,0-1.15-.42-1.15-1.25v-2.2h-.68v-.68h.68v-.94l.85-.26v1.2h.98v.68h-.98v2.05c0,.25.04.43.13.54.09.11.23.17.43.17.15,0,.29-.04.42-.13v.68h0Z"/>
      <path class="cls-18" d="m556.58,333.78c0-.14.05-.26.15-.36s.22-.14.37-.14.27.05.38.14.15.21.15.36-.05.26-.15.36-.23.14-.38.14-.27-.05-.37-.14c-.1-.09-.15-.21-.15-.35Zm.08,5.42v-4.03h.86v4.03h-.86Z"/>
      <path class="cls-18" d="m558.47,337.22c0-.66.19-1.19.57-1.57.38-.38.89-.58,1.55-.58.61,0,1.1.19,1.46.56s.54.88.54,1.52-.19,1.17-.57,1.56c-.38.39-.88.58-1.51.58s-1.11-.19-1.48-.57-.55-.88-.55-1.51Zm.87-.02c0,.44.11.79.32,1.04s.51.37.88.37c.78,0,1.16-.48,1.16-1.43,0-.46-.1-.81-.3-1.06-.2-.24-.49-.36-.86-.36s-.67.13-.88.39-.32.61-.32,1.06Z"/>
      <path class="cls-18" d="m567.07,339.2h-.85v-2.28c0-.78-.28-1.16-.85-1.16-.28,0-.52.11-.71.32s-.28.49-.28.82v2.3h-.86v-4.03h.86v.66h.02c.3-.5.74-.76,1.31-.76.9,0,1.35.55,1.35,1.66v2.47h0Z"/>
    </g>
  </g>
  <g>
    <path class="cls-18" d="m279.77,339.2v-3.65c0-.32.02-.7.05-1.13h-.02c-.07.31-.13.52-.17.62l-1.72,4.17h-.57l-1.73-4.13c-.04-.11-.1-.32-.17-.65h-.02c.02.34.04.75.04,1.23v3.55h-.81v-5.65h1.22l1.53,3.73c.12.29.2.53.24.73h.03c.05-.15.13-.4.26-.74l1.55-3.72h1.17v5.65h-.87Z"/>
    <path class="cls-18" d="m281.86,333.78c0-.14.05-.26.15-.36.1-.09.22-.14.37-.14s.27.05.38.14c.1.09.15.21.15.36s-.05.26-.15.36c-.1.09-.23.14-.38.14s-.27-.05-.37-.14-.15-.21-.15-.35Zm.08,5.42v-4.03h.86v4.03h-.86Z"/>
    <path class="cls-18" d="m287.55,339.2h-.85v-2.28c0-.78-.28-1.16-.85-1.16-.28,0-.52.11-.71.32s-.28.49-.28.82v2.3h-.86v-4.03h.86v.66h.02c.3-.5.74-.76,1.31-.76.9,0,1.35.55,1.35,1.66v2.47h0Z"/>
    <path class="cls-18" d="m288.43,337.22c0-.66.19-1.19.57-1.57.38-.38.89-.58,1.55-.58.61,0,1.1.19,1.46.56s.54.88.54,1.52-.19,1.17-.57,1.56c-.38.39-.88.58-1.51.58s-1.11-.19-1.48-.57c-.37-.38-.55-.88-.55-1.51Zm.87-.02c0,.44.11.79.32,1.04s.51.37.88.37c.78,0,1.16-.48,1.16-1.43,0-.46-.1-.81-.3-1.06-.2-.24-.49-.36-.86-.36s-.67.13-.88.39c-.21.26-.32.61-.32,1.06Z"/>
    <path class="cls-18" d="m295.78,335.98c-.13-.08-.29-.12-.5-.12-.28,0-.5.12-.67.36s-.26.57-.26.97v2.01h-.86v-4.03h.86v.8h.02c.2-.58.55-.87,1.06-.87.15,0,.27.02.36.05v.84h0Z"/>
    <path class="cls-18" d="m298.21,333.78c0-.14.05-.26.15-.36.1-.09.22-.14.37-.14s.27.05.38.14c.1.09.15.21.15.36s-.05.26-.15.36c-.1.09-.23.14-.38.14s-.27-.05-.37-.14-.15-.21-.15-.35Zm.08,5.42v-4.03h.86v4.03h-.86Z"/>
    <path class="cls-18" d="m300.17,338.26c.38.26.77.38,1.17.38.54,0,.8-.17.8-.5,0-.14-.06-.25-.17-.34-.11-.09-.36-.21-.76-.35-.41-.16-.69-.33-.83-.51s-.22-.4-.22-.67c0-.37.16-.67.47-.88.31-.22.7-.32,1.16-.32.35,0,.68.06.99.18v.76c-.31-.19-.65-.28-1.03-.28-.22,0-.39.04-.53.13-.13.09-.2.21-.2.35s.05.26.15.34c.1.08.32.19.68.33.44.16.74.33.9.51.16.18.24.41.24.68,0,.38-.16.68-.47.9s-.72.33-1.23.33c-.43,0-.81-.08-1.13-.23v-.81h0Z"/>
    <path class="cls-18" d="m303.7,338.26c.38.26.77.38,1.17.38.54,0,.8-.17.8-.5,0-.14-.06-.25-.17-.34-.11-.09-.36-.21-.76-.35-.41-.16-.69-.33-.83-.51s-.22-.4-.22-.67c0-.37.16-.67.47-.88.31-.22.7-.32,1.16-.32.35,0,.68.06.99.18v.76c-.31-.19-.65-.28-1.03-.28-.22,0-.39.04-.53.13-.13.09-.2.21-.2.35s.05.26.15.34c.1.08.32.19.68.33.44.16.74.33.9.51.16.18.24.41.24.68,0,.38-.16.68-.47.9s-.72.33-1.23.33c-.43,0-.81-.08-1.13-.23v-.81h0Z"/>
    <path class="cls-18" d="m310.88,339.2h-.85v-.63h-.02c-.28.48-.69.73-1.24.73-.95,0-1.43-.57-1.43-1.71v-2.42h.85v2.31c0,.75.29,1.13.87,1.13.28,0,.51-.1.69-.31.18-.21.27-.48.27-.81v-2.32h.85v4.03h0Z"/>
    <path class="cls-18" d="m315.47,337.41h-2.77c.04.81.45,1.22,1.24,1.22.45,0,.85-.13,1.22-.4v.71c-.36.24-.83.35-1.42.35s-1.07-.18-1.4-.55-.51-.88-.51-1.53.18-1.14.55-1.54c.36-.4.82-.61,1.37-.61s.97.17,1.27.52c.3.34.45.82.45,1.42v.4h0Zm-.83-.62c0-.35-.08-.61-.24-.8-.16-.18-.38-.28-.66-.28-.26,0-.49.1-.68.29-.19.2-.31.46-.36.78h1.94Z"/>
  </g>
</svg>