<?xml version="1.0" encoding="UTF-8"?>
<svg id="_圖層_1" data-name="圖層 1" xmlns="http://www.w3.org/2000/svg" xmlns:xlink="http://www.w3.org/1999/xlink" viewBox="0 0 2728.12909 1454.6739">
  <defs>
    <style>
      .cls-1 {
        fill: url(#_未命名漸層_14);
      }

      .cls-2, .cls-3 {
        font-size: 44.60346px;
      }

      .cls-2, .cls-3, .cls-4, .cls-5 {
        font-family: MicrosoftJhengHeiBold, 'Microsoft JhengHei';
      }

      .cls-2, .cls-4 {
        fill: #f3dfec;
      }

      .cls-3, .cls-6 {
        fill: #f5cd1e;
      }

      .cls-7 {
        fill: url(#_未命名漸層_19-2);
      }

      .cls-8 {
        filter: url(#drop-shadow-3);
      }

      .cls-9 {
        filter: url(#drop-shadow-1);
      }

      .cls-10 {
        fill: #11a7ae;
      }

      .cls-11 {
        fill: url(#_未命名漸層_45);
      }

      .cls-12 {
        fill: url(#_未命名漸層_27);
      }

      .cls-13 {
        fill: #a42388;
      }

      .cls-14 {
        fill: #e0edc7;
      }

      .cls-15 {
        fill: url(#_未命名漸層_14-2);
      }

      .cls-16 {
        filter: url(#drop-shadow-2);
      }

      .cls-17 {
        fill: url(#_未命名漸層_7);
      }

      .cls-18 {
        fill: url(#_未命名漸層_56);
      }

      .cls-19 {
        fill: #e36329;
      }

      .cls-4, .cls-5 {
        font-size: 37.29933px;
      }

      .cls-20 {
        fill: #353382;
      }

      .cls-21 {
        fill: #d9adcf;
      }

      .cls-22 {
        fill: url(#_未命名漸層_19);
      }

      .cls-5 {
        fill: #f6e398;
      }
    </style>
    <linearGradient id="_未命名漸層_45" data-name="未命名漸層 45" x1="2232.12717" y1="554.30497" x2="2601.09864" y2="1364.64104" gradientUnits="userSpaceOnUse">
      <stop offset=".14804" stop-color="#12a292"/>
      <stop offset=".46927" stop-color="#89c497"/>
      <stop offset="1" stop-color="#1babc0"/>
    </linearGradient>
    <linearGradient id="_未命名漸層_7" data-name="未命名漸層 7" x1="1956.00827" y1="1115.01202" x2="1959.55083" y2="707.61737" gradientUnits="userSpaceOnUse">
      <stop offset="0" stop-color="#1babc0"/>
      <stop offset="1" stop-color="#89c497"/>
    </linearGradient>
    <filter id="drop-shadow-1" filterUnits="userSpaceOnUse">
      <feOffset dx="42.29216" dy="42.29216"/>
      <feGaussianBlur result="blur" stdDeviation="42.29216"/>
      <feFlood flood-color="#323333" flood-opacity=".75"/>
      <feComposite in2="blur" operator="in"/>
      <feComposite in="SourceGraphic"/>
    </filter>
    <linearGradient id="_未命名漸層_56" data-name="未命名漸層 56" x1="1624.69492" y1="518.7354" x2="1171.65399" y2="833.99584" gradientUnits="userSpaceOnUse">
      <stop offset=".04686" stop-color="#7864a2"/>
      <stop offset=".5916" stop-color="#3b3083"/>
      <stop offset="1" stop-color="#1c2a52"/>
    </linearGradient>
    <linearGradient id="_未命名漸層_27" data-name="未命名漸層 27" x1="1529.51099" y1="1162.59686" x2="1988.90086" y2="1162.59686" gradientTransform="translate(2700.09784 -1529.51099) rotate(90)" gradientUnits="userSpaceOnUse">
      <stop offset="0" stop-color="#3b3083"/>
      <stop offset="1" stop-color="#7864a2"/>
    </linearGradient>
    <filter id="drop-shadow-2" filterUnits="userSpaceOnUse">
      <feOffset dx="22.67717" dy="-22.67717"/>
      <feGaussianBlur result="blur-2" stdDeviation="56.69291"/>
      <feFlood flood-color="#252525" flood-opacity=".75"/>
      <feComposite in2="blur-2" operator="in"/>
      <feComposite in="SourceGraphic"/>
    </filter>
    <linearGradient id="_未命名漸層_14" data-name="未命名漸層 14" x1="727.9825" y1="737.45696" x2="1292.80193" y2="917.05392" gradientUnits="userSpaceOnUse">
      <stop offset="0" stop-color="#861c7b"/>
      <stop offset="1" stop-color="#c45199"/>
    </linearGradient>
    <linearGradient id="_未命名漸層_14-2" data-name="未命名漸層 14" x1="4398.84053" y1="3130.66101" x2="4411.42871" y2="2623.98683" gradientTransform="translate(-1922.71037 5626.33291) rotate(-90)" xlink:href="#_未命名漸層_14"/>
    <filter id="drop-shadow-3" filterUnits="userSpaceOnUse">
      <feOffset dx="22.67717" dy="22.67717"/>
      <feGaussianBlur result="blur-3" stdDeviation="17.00787"/>
      <feFlood flood-color="#323333" flood-opacity=".75"/>
      <feComposite in2="blur-3" operator="in"/>
      <feComposite in="SourceGraphic"/>
    </filter>
    <linearGradient id="_未命名漸層_19" data-name="未命名漸層 19" x1="573.59891" y1="635.10409" x2="573.59891" y2="242.34266" gradientUnits="userSpaceOnUse">
      <stop offset="0" stop-color="#c5552f"/>
      <stop offset="1" stop-color="#f09928"/>
    </linearGradient>
    <linearGradient id="_未命名漸層_19-2" data-name="未命名漸層 19" x1="191.19968" y1="635.10409" x2="191.19968" y2="242.34266" xlink:href="#_未命名漸層_19"/>
  </defs>
  <g>
    <path class="cls-11" d="M2213.27688,361.98775V1391.69253c80.92194,0,157.47053-18.69141,225.5995-51.95763h237.29526v-237.29545c33.26622-68.12897,51.95744-144.67756,51.95744-225.5995,0-284.3452-230.50701-514.85221-514.85221-514.85221Z"/>
    <path class="cls-17" d="M2213.27688,361.98775c-284.3452,0-514.85221,230.50701-514.85221,514.85221s230.50701,514.85258,514.85221,514.85258h0V361.98775h0Z"/>
    <path class="cls-10" d="M2213.27688,361.98775c-284.3452,0-514.85221,230.50701-514.85221,514.85221s230.50701,514.85258,514.85221,514.85258h0V361.98775h0Z"/>
  </g>
  <path class="cls-14" d="M2146.46575,971.87648h-46.97364v92.49468h-53.99554v-92.49468h-171.67148v-36.80316l163.43882-245.76419h62.22819v239.22675h46.97364v43.34061Zm-100.96918-43.34061v-146.73206c0-10.97584,.32168-23.56705,.96852-37.77362h-.96852c-4.03688,10.01158-8.80005,19.69605-14.28564,29.05651l-103.14846,155.44917h117.4341Z"/>
  <text class="cls-4" transform="translate(2274.97321 816.63861)"><tspan x="0" y="0">1.色彩柔和不刺眼</tspan><tspan x="0" y="74.59863">2.圖文間距清晰</tspan><tspan x="0" y="149.19727">3.色彩統一系統化</tspan></text>
  <text class="cls-2" transform="translate(1921.62433 1143.07964)"><tspan x="0" y="0">色彩柔和</tspan></text>
  <g>
    <g class="cls-9">
      <path class="cls-18" d="M1996.89091,459.38988h-918.77987c0,72.20448,16.6778,140.50684,46.36049,201.29657v211.73276h211.73282c60.78967,29.68263,129.09209,46.36055,201.29663,46.36055,253.71405,0,459.38994-205.67595,459.38994-459.38988Z"/>
      <path class="cls-12" d="M1996.89091,459.38975C1996.89091,205.6757,1791.21503,0,1537.50097,0s-459.38994,205.6757-459.38994,459.38975v.00012h918.77987v-.00012Z"/>
      <path class="cls-20" d="M1996.89091,459.38975C1996.89091,205.6757,1791.21503,0,1537.50097,0s-459.38994,205.6757-459.38994,459.38975v.00012h918.77987v-.00012Z"/>
    </g>
    <path class="cls-21" d="M1362.11007,333.16889c18.49322,14.07433,39.42879,21.11038,62.80698,21.11038,17.32902,0,31.16906-4.21448,41.52235-12.64903,10.3505-8.43119,15.52728-19.85933,15.52728-34.28217,0-31.75214-23.14641-47.62821-69.43644-47.62821h-23.0294v-32.97415h21.6337c41.28778,0,61.9346-14.82943,61.9346-44.48829,0-27.67952-15.76185-41.52263-47.2797-41.52263-18.61051,0-36.4056,6.28095-53.38584,18.84285v-36.63794c17.79509-10.119,38.84543-15.17794,63.15577-15.17794,23.2609,0,42.30733,5.90452,57.13676,17.70797,14.82943,11.8068,22.24415,27.71191,22.24415,47.71533,0,35.47625-18.02967,58.09683-54.08369,67.86732v.69701c19.07379,1.86206,34.36929,8.69593,45.884,20.49938,11.51442,11.8068,17.27177,26.31677,17.27177,43.52878,0,25.12268-9.10196,44.9552-27.30364,59.49198-18.2042,14.54124-41.90102,21.80851-71.0938,21.80851-26.40389,0-47.57124-4.71043-63.50484-14.1313v-39.77786Z"/>
    <text class="cls-4" transform="translate(1360.15903 585.95149)"><tspan x="0" y="0">1.減少使用流程複雜性</tspan><tspan x="0" y="74.59863">2.減少非必要功能</tspan><tspan x="0" y="149.19727">3.作業盡量3~5個步驟完成</tspan></text>
    <text class="cls-2" transform="translate(1557.78647 264.76667)"><tspan x="0" y="0">流程簡化</tspan></text>
  </g>
  <g class="cls-16">
    <g>
      <path class="cls-1" d="M464.27054,997.30356h914.74099c0-71.88723-16.60456-139.8892-46.1567-200.41176v-210.80188h-210.80204c-60.52223-29.55213-128.52437-46.1567-200.41159-46.1567-252.59882,0-457.37066,204.77168-457.37066,457.37033Z"/>
      <path class="cls-15" d="M464.27054,997.30356c0,252.59882,204.77185,457.37033,457.37066,457.37033s457.37033-204.77152,457.37033-457.37033H464.27054Z"/>
      <path class="cls-13" d="M464.27054,997.30356c0,252.59882,204.77185,457.37033,457.37066,457.37033s457.37033-204.77152,457.37033-457.37033H464.27054Z"/>
    </g>
    <path class="cls-21" d="M946.20236,946.36954h-181.07346v-36.85419l84.42587-83.10943c18.803-18.42649,32.68487-34.34532,41.64862-47.76008,8.96073-13.41115,13.44426-28.01655,13.44426-43.81017,0-32.21566-17.04926-48.3247-51.14447-48.3247-25.57209,0-50.14225,10.71809-73.70778,32.15306v-42.49434c23.69164-17.29846,50.89166-25.9483,81.60519-25.9483,26.70042,0,47.97708,7.1161,63.83631,21.34107,15.85622,14.22858,23.78584,33.69041,23.78584,58.38427,0,17.80048-5.01504,35.50826-15.0424,53.11853-10.03007,17.61267-27.51694,38.45173-52.46061,62.51958l-64.68234,61.67446v.94023h129.36497v38.17002Z"/>
    <text class="cls-4" transform="translate(669.50522 1060.47605)"><tspan x="0" y="0">1.功能模組化</tspan><tspan x="0" y="74.59863">2.功能各自獨立單一化</tspan><tspan x="0" y="149.19727">3.功能有效分類</tspan><tspan x="0" y="223.79639">4.需考慮作業時只有單手操作</tspan></text>
    <text class="cls-2" transform="translate(975.53987 859.46512)"><tspan x="0" y="0">功能模組化</tspan></text>
  </g>
  <g>
    <g class="cls-8">
      <path class="cls-22" d="M382.39937,108.20882V873.00735c60.10348,0,116.9587-13.88278,167.56052-38.59078h176.24779v-176.24779c24.708-50.60182,38.59078-107.45718,38.59078-167.56079,0-211.19318-171.20605-382.39916-382.39909-382.39916Z"/>
      <path class="cls-7" d="M382.39909,108.20882C171.20578,108.20882,0,279.4148,0,490.60798s171.20578,382.39937,382.39909,382.39937h.00027V108.20882h-.00027Z"/>
      <path class="cls-19" d="M382.39909,108.20882C171.20578,108.20882,0,279.4148,0,490.60798s171.20578,382.39937,382.39909,382.39937h.00027V108.20882h-.00027Z"/>
    </g>
    <polygon class="cls-6" points="192.66406 312.23269 192.66406 346.67089 216.18811 340.31698 216.18811 592.36614 255.78268 592.36614 255.78268 295.66798 192.66406 312.23269"/>
    <text class="cls-5" transform="translate(406.33602 430.40642)"><tspan x="0" y="0">1.功能圖示化</tspan><tspan x="0" y="74.59863">2.圖示語意清楚</tspan><tspan x="0" y="149.19727">3.圖示比例多於文字</tspan></text>
    <text class="cls-3" transform="translate(166.76062 660.5784)"><tspan x="0" y="0">圖示化</tspan></text>
  </g>
</svg>