<?xml version="1.0" encoding="UTF-8"?>
<svg id="_圖層_1" data-name="圖層 1" xmlns="http://www.w3.org/2000/svg" xmlns:xlink="http://www.w3.org/1999/xlink" viewBox="0 0 659.28 283.68">
  <defs>
    <style>
      .cls-1 {
        fill: #fff;
      }

      .cls-2 {
        filter: url(#drop-shadow-4);
      }

      .cls-3 {
        filter: url(#drop-shadow-3);
      }

      .cls-4 {
        fill: #44aec7;
      }

      .cls-5 {
        fill: #52b44b;
      }

      .cls-6 {
        filter: url(#drop-shadow-5);
      }

      .cls-7 {
        fill: #eb8b3a;
      }

      .cls-8 {
        filter: url(#drop-shadow-2);
      }

      .cls-9 {
        fill: #e84465;
      }

      .cls-10 {
        fill: #dbdbdb;
        filter: url(#drop-shadow-1);
      }
    </style>
    <filter id="drop-shadow-1" filterUnits="userSpaceOnUse">
      <feOffset dx="8.50394" dy="8.50394"/>
      <feGaussianBlur result="blur" stdDeviation="8.50394"/>
      <feFlood flood-color="#2f3030" flood-opacity=".75"/>
      <feComposite in2="blur" operator="in"/>
      <feComposite in="SourceGraphic"/>
    </filter>
    <filter id="drop-shadow-2" filterUnits="userSpaceOnUse">
      <feOffset dx=".85039" dy=".85039"/>
      <feGaussianBlur result="blur-2" stdDeviation="1.41732"/>
      <feFlood flood-color="#2f3030" flood-opacity=".75"/>
      <feComposite in2="blur-2" operator="in"/>
      <feComposite in="SourceGraphic"/>
    </filter>
    <filter id="drop-shadow-3" filterUnits="userSpaceOnUse">
      <feOffset dx=".85039" dy=".85039"/>
      <feGaussianBlur result="blur-3" stdDeviation="1.41732"/>
      <feFlood flood-color="#2f3030" flood-opacity=".75"/>
      <feComposite in2="blur-3" operator="in"/>
      <feComposite in="SourceGraphic"/>
    </filter>
    <filter id="drop-shadow-4" filterUnits="userSpaceOnUse">
      <feOffset dx=".85039" dy=".85039"/>
      <feGaussianBlur result="blur-4" stdDeviation="1.41732"/>
      <feFlood flood-color="#2f3030" flood-opacity=".75"/>
      <feComposite in2="blur-4" operator="in"/>
      <feComposite in="SourceGraphic"/>
    </filter>
    <filter id="drop-shadow-5" filterUnits="userSpaceOnUse">
      <feOffset dx=".85039" dy=".85039"/>
      <feGaussianBlur result="blur-5" stdDeviation="1.41732"/>
      <feFlood flood-color="#2f3030" flood-opacity=".75"/>
      <feComposite in2="blur-5" operator="in"/>
      <feComposite in="SourceGraphic"/>
    </filter>
  </defs>
  <path class="cls-10" d="M573.85104,140.89213c-14.94457-.81862-28.6533,4.41732-38.91144,13.4753-11.17936,9.87141-27.02103,12.49997-40.98422,7.26051l-180.36991-67.68082c-10.94441-4.10671-18.3134-14.31323-19.01664-25.98159-.01095-.18165-.0228-.36348-.03557-.54549-1.90257-27.1278-24.066-48.90448-51.22365-50.31855-21.98938-1.14496-41.29678,10.81052-50.83037,28.75517-7.00871,13.19218-20.91616,21.25614-35.85456,21.25614h-1.38803c-14.91168,0-28.84291-8.01118-35.82072-21.18951-9.57794-18.08895-29.08007-30.11098-51.26005-28.79989-27.62902,1.63319-49.82911,24.30832-50.92162,51.96399-1.22341,30.96908,23.52014,56.46016,54.21737,56.46016,14.75255,0,28.12446-5.88916,37.90045-15.44412,8.69299-8.49644,21.70378-10.82942,33.01161-6.36954l168.01071,66.26447c10.07243,3.97263,16.88778,13.67405,16.77585,24.50101-.01211,1.17187,.01309,2.35273,.07679,3.54149,1.4683,27.40175,23.60984,49.63853,51.00651,51.19873,22.86004,1.30185,42.85921-11.55797,52.05303-30.61382,5.82737-12.07827,18.29422-19.53745,31.70476-19.53745h24.34125c15.18773,0,29.43168,8.0885,36.57932,21.48919,9.12519,17.1083,27.14237,28.75263,47.88757,28.75263,30.71006,0,55.46137-25.51236,54.21583-56.49882-1.115-27.7389-23.44451-50.42078-51.16425-51.93919Zm-244.91004,27.45541L129.18601,89.56289c-3.24037-1.27802-5.10615-4.67886-4.45088-8.09997,.00753-.0393,.01501-.07861,.02245-.11794,.64626-3.41513,3.63339-5.88435,7.10913-5.88435h33.15742c10.97293,0,21.05419,6.45255,25.2547,16.58965,8.14814,19.66393,27.51823,33.49726,50.12934,33.49726,13.21335,0,25.32007-4.72654,34.73034-12.57718,2.04821-1.70875,5.02567-1.69231,7.026,.07224l52.34851,46.17822c1.98171,1.74812,2.40385,4.67512,.99689,6.91197l-.04832,.07682c-1.37639,2.18824-4.11576,3.0864-6.52058,2.13792Zm126.95897,22.393c-10.75473,0-20.26875-6.617-24.40742-16.54351-8.17444-19.60624-27.51493-33.38862-50.08439-33.38862-13.04096,0-25.00007,4.60816-34.35593,12.27647-2.04965,1.67995-5.00392,1.65155-6.99132-.1016l-51.72971-45.63247c-2.40153-2.11847-2.88683-5.63064-1.25356-8.38521,.01907-.03216,.03811-.06434,.05711-.09655,1.64589-2.78896,5.00791-4.05178,8.03989-2.91408l218.20772,81.87885c2.98305,1.11934,4.65762,4.22976,4.07614,7.36239-.00823,.04434-.01641,.0887-.02453,.13308-.57014,3.11502-3.22572,5.41125-6.39249,5.41125h-55.14153Z"/>
  <circle class="cls-4" cx="240.40815" cy="71.28671" r="43.30435"/>
  <circle class="cls-7" cx="381.40815" cy="195.06932" r="43.30435"/>
  <circle class="cls-5" cx="570.79946" cy="195.06932" r="43.30435"/>
  <circle class="cls-9" cx="71.45163" cy="71.28671" r="43.30435"/>
  <g class="cls-8">
    <path class="cls-1" d="M70.73558,72.79487l-.39551,.92285c-3.05273-.39258-5.53125-1.05469-7.43555-1.98633-2.06836,.86133-4.51465,1.50879-7.33887,1.94238l-.58008-.89648c2.73633-.375,5.0127-.91406,6.8291-1.61719-1.03711-.63281-1.93359-1.31836-2.68945-2.05664-.88477,.69141-1.72266,1.26855-2.51367,1.73145l-.65039-.7207c2.16797-1.17188,3.73242-2.55176,4.69336-4.13965l.94043,.37793c-.29883,.48633-.58008,.87598-.84375,1.16895h6.97852v.89648c-.86719,.9668-2.13867,1.91016-3.81445,2.83008,1.80469,.76758,4.07812,1.2832,6.82031,1.54688Zm-.77344-4.37695h-.91406v-2.87402h-12.51562v2.82129h-.94922v-3.70898h6.92578c-.12891-.35156-.39258-.77637-.79102-1.27441l1.01074-.30762c.33398,.5332,.62695,1.06055,.87891,1.58203h6.35449v3.76172Zm-1.81934,10.49414h-.93164v-.79102h-8.82422v.79102h-.93164v-4.9834h10.6875v4.9834Zm-.93164-1.72266v-2.33789h-8.82422v2.33789h8.82422Zm-.84375-8.77148h-6.4248l-.09668,.09668c.84375,.87305,1.8457,1.61133,3.00586,2.21484,1.4707-.68555,2.64258-1.45605,3.51562-2.31152Z"/>
    <path class="cls-1" d="M87.87425,64.13764c-4.19531,.83789-8.05371,1.25684-11.5752,1.25684v2.38184h11.54004v5.79199h-11.71582c-.32227,2.26172-1.1748,4.09863-2.55762,5.51074l-.68555-.80859c.97266-.9375,1.62744-2.01562,1.96436-3.23438s.50537-3.33984,.50537-6.36328v-4.1748c3.96094,.01758,7.95703-.38965,11.98828-1.22168l.53613,.86133Zm-1.01074,8.46387v-3.87598h-10.54688c0,.67969-.0293,1.97168-.08789,3.87598h10.63477Z"/>
  </g>
  <g class="cls-3">
    <path class="cls-1" d="M239.2455,65.5351h-13.39453v5.20312c0,3.35156-.41895,6.11133-1.25684,8.2793l-.83496-.51855c.79102-1.82227,1.18652-4.69629,1.18652-8.62207v-5.2207h6.5918c-.1582-.41016-.35742-.7998-.59766-1.16895l.8877-.36035c.24023,.41016,.49219,.91992,.75586,1.5293h6.66211v.87891Zm-10.49414,3.78809l-.7998,.44824c-.24609-.67969-.68262-1.55566-1.30957-2.62793l.73828-.43066c.5918,.9375,1.04883,1.80762,1.37109,2.61035Zm4.43848,8.38477c0,.85547-.55957,1.2832-1.67871,1.2832-.19336,0-.44824-.00879-.76465-.02637l-.34277-.87891c.19922,.02344,.43652,.03516,.71191,.03516,.55664,0,.89795-.03613,1.02393-.10938s.18896-.2041,.18896-.3916v-6.46875h-4.64062v7.88379h-.90527v-8.7627h2.95312v-4.12207h.92285v4.12207h2.53125v7.43555Zm-1.81055-1.09863h-2.77734v-4.22754h2.77734v4.22754Zm-.85254-.82617v-2.5752h-1.09863v2.5752h1.09863Zm3.33105-8.65723c-.50977,1.14258-1.02539,2.02441-1.54688,2.64551l-.75586-.46582c.46875-.60352,.9668-1.46777,1.49414-2.59277l.80859,.41309Zm5.7832,11.19727l-.61523,.67676c-.97852-.69727-1.76367-1.48242-2.35547-2.35547-.60352,.80273-1.40332,1.57617-2.39941,2.32031l-.60645-.6416c1.06055-.76172,1.89844-1.60254,2.51367-2.52246-.5625-1.31836-.91406-2.46387-1.05469-3.43652l.84375-.25488c.14648,1.03711,.39844,1.94824,.75586,2.7334,.59766-1.37109,.92871-3.14062,.99316-5.30859h-1.83691c-.46289,1.21289-.93164,2.16211-1.40625,2.84766l-.73828-.5625c.99023-1.55859,1.71094-3.43652,2.16211-5.63379l.86133,.21973c-.14062,.76172-.33984,1.50586-.59766,2.23242h3.24316l.01758,.89648h-.80859c-.12891,2.63672-.59766,4.72559-1.40625,6.2666,.45703,.84961,1.26855,1.69043,2.43457,2.52246Z"/>
    <path class="cls-1" d="M257.36854,65.48237h-4.8252l.70312,.58008c-.24023,.67383-.57129,1.40039-.99316,2.17969h4.0166v9.44824c0,.38086-.12891,.7002-.38672,.95801s-.81445,.38672-1.66992,.38672c-.22852,0-.48633-.01172-.77344-.03516l-.31641-.93164,1.81055-.03516c.28125,0,.42188-.14355,.42188-.43066v-8.49902h-3.62109v1.58203c0,.29883,.16113,.44824,.4834,.44824h2.32031v.85254h-2.66309c-.25195,0-.49512-.09473-.72949-.28516s-.35156-.40332-.35156-.6377v-1.95996h-2.42578c-.05859,.89062-.39404,1.66895-1.00635,2.33398s-1.40479,1.11719-2.37744,1.35742l-.44824-.86133c1.79883-.43359,2.75684-1.37695,2.87402-2.83008h-3.57715v9.91406h-.94043v-10.77539h3.91113c-.29883-.86719-.62402-1.59961-.97559-2.19727l.58008-.5625h-4.63184v-.87891h7.33008c-.14648-.39258-.3457-.81152-.59766-1.25684l.95801-.27246c.28125,.50977,.49219,1.01953,.63281,1.5293h7.26855v.87891Zm-4.15723,11.46973h-7.21582v-3.76172h7.21582v3.76172Zm-.82617-11.46973h-5.69531c.48633,1.10742,.8584,2.02734,1.11621,2.75977h3.46289c.41016-.82617,.78223-1.74609,1.11621-2.75977Zm-.14941,10.59082v-2.02148h-5.30859v2.02148h5.30859Z"/>
  </g>
  <g class="cls-2">
    <path class="cls-1" d="M569.6616,188.47908h-6.30176c-.23438,.82031-.49805,1.53516-.79102,2.14453h5.72168v6.37207h-4.36816v4.51758c0,.35742-.13916,.6748-.41748,.9541-.27832,.27734-.90088,.41699-1.86768,.41699-.31055,0-.6123-.01465-.90527-.04395l-.36035-.93164,2.05664-.03516c.16406,0,.30029-.07031,.40869-.21094s.1626-.29883,.1626-.47461v-4.19238h-4.42969v-6.37207h2.93555c.35742-.59766,.64746-1.3125,.87012-2.14453h-6.0293v6.37207c0,3.28125-.51855,5.98828-1.55566,8.12109l-.86133-.50977c.47461-.84375,.83936-1.97363,1.09424-3.3877,.25488-1.41602,.38232-2.80566,.38232-4.1709v-7.32129h14.25586v.89648Zm-8.56934,9.94922c-.79688,1.21289-1.89551,2.4375-3.2959,3.67383l-.77344-.7207c1.50586-1.22461,2.58105-2.36426,3.22559-3.41895l.84375,.46582Zm6.2666-5.12402v-1.78418h-7.86621v1.78418h7.86621Zm0,2.76855v-1.88965h-7.86621v1.88965h7.86621Zm2.28516,5.45801l-.75586,.6416c-.82617-1.29492-1.88086-2.46973-3.16406-3.52441l.77344-.70312c1.27734,1.20703,2.32617,2.40234,3.14648,3.58594Z"/>
    <path class="cls-1" d="M574.62742,195.22908c-.42188,2.05078-.97852,3.74121-1.66992,5.07129l-.90527-.39551c.70312-1.29492,1.28027-2.94434,1.73145-4.94824l.84375,.27246Zm4.66699-1.30078h-2.77734v8.98242h-.93164v-8.98242h-3.33105v-.86133h3.33105v-5.94141h.93164v5.94141h2.77734v.86133Zm-4.77246-2.30273l-.89648,.36035c-.20508-.87891-.64453-1.95117-1.31836-3.2168l.80859-.36035c.67969,1.20703,1.14844,2.2793,1.40625,3.2168Zm4.86035,6.38965l-.94043,.30762c-.14062-.81445-.5127-1.83984-1.11621-3.07617l.83496-.29004c.60352,1.24219,1.01074,2.26172,1.22168,3.05859Zm.14062-9.28125c-.38672,1.33008-.82324,2.45215-1.30957,3.36621l-.86133-.42188c.52734-.88477,.97559-1.97461,1.34473-3.26953l.82617,.3252Zm8.20898,9.28125l-1.85449,.36035v4.57031h-.91406v-4.38574l-5.58105,1.0459-.12305-.90527,5.7041-1.08105v-10.44141h.91406v10.26562l1.73145-.3252,.12305,.89648Zm-4.06934-2.19727l-.70312,.7207c-.60938-.9082-1.59082-1.91016-2.94434-3.00586l.67676-.65918c1.16602,.94336,2.15625,1.9248,2.9707,2.94434Zm.30762-4.85156l-.70312,.69434c-.72656-.82031-1.69043-1.64062-2.8916-2.46094l.62402-.66797c.99609,.63281,1.98633,1.44434,2.9707,2.43457Z"/>
  </g>
  <g class="cls-6">
    <path class="cls-1" d="M380.71769,194.59627h-13.22754v1.78418c0,3.05859-.61816,5.27344-1.85449,6.64453l-.65039-.65039c.50391-.61523,.89355-1.37402,1.16895-2.27637s.41309-1.77539,.41309-2.61914v-3.7793h14.15039v.89648Zm-.44824-4.96582h-2.75098c-.61523,.7207-1.25977,1.29785-1.93359,1.73145,1.54102,.39844,2.82129,.7998,3.84082,1.2041l-.50977,.73828c-1.37695-.53906-2.85938-.99609-4.44727-1.37109-1.80469,.76758-3.93457,1.18652-6.38965,1.25684l-.31641-.82617c2.32031-.16992,4.07227-.43359,5.25586-.79102-1.40625-.32227-2.8125-.5918-4.21875-.80859l.41309-.73828c1.86914,.29297,3.58008,.63574,5.13281,1.02832,.74414-.39258,1.38574-.86719,1.9248-1.42383h-10.29199v-.87891h6.75c-.16406-.39258-.42188-.80859-.77344-1.24805l.84375-.37793c.42188,.57422,.73828,1.11621,.94922,1.62598h6.52148v.87891Zm.29004,12.86719h-12.92871v-.86133h6.19629v-1.69629h-4.39453v-.87891h4.39453v-1.58203h-3.8584c-.41016,.55664-.87598,1.05469-1.39746,1.49414l-.5625-.75586c.91992-.7793,1.70508-1.81055,2.35547-3.09375l.87012,.28125c-.23438,.48047-.45703,.88477-.66797,1.21289h3.26074v-1.47656h.89648v1.47656h4.94824v.86133h-4.94824v1.58203h4.57031v.87891h-4.57031v1.69629h5.83594v.86133Z"/>
    <path class="cls-1" d="M389.82315,202.91072h-.93164v-1.27441h-3.98145v1.27441h-.9668v-7.88379h5.87988v7.88379Zm-.94922-2.18848v-4.75488h-3.96387v4.75488h3.96387Zm7.55859-7.74316h-10.59961v-5.34375h10.59961v5.34375Zm-.94043-.89648v-3.5332h-8.70996v3.5332h8.70996Zm2.38184,10.82812h-.95801v-1.27441h-4.00781v1.27441h-.95801v-7.88379h5.92383v7.88379Zm-.95801-2.18848v-4.75488h-4.00781v4.75488h4.00781Z"/>
  </g>
</svg>